<svg width="368" height="285" viewBox="0 0 368 285" fill="none" xmlns="http://www.w3.org/2000/svg">
<path d="M197.783 65.7339C200.98 65.7339 280.827 65.0432 303.377 65.0432C304.952 65.0432 302.962 61.7758 302.09 61.5478C299.315 60.8571 296.43 60.7811 293.608 60.4357C290.829 60.1163 288.106 59.299 285.53 58.0111C283.309 56.8851 281.093 55.5865 278.692 55.1444C274.047 54.2671 269.968 57.2858 265.611 58.5982C264.289 59.0562 262.9 59.1779 261.536 58.9555C260.172 58.733 258.861 58.1713 257.689 57.3065C255.675 55.8559 253.84 54.122 251.734 52.8441C247.701 50.4688 243.302 49.1158 238.812 48.8698C234.323 48.6237 229.839 49.4899 225.641 51.4142C223.643 52.3382 221.73 53.5097 219.935 54.9095C217.805 56.5812 215.971 58.7226 213.836 60.3735C209.104 64.0346 203.259 62.8465 198.1 64.9465C197.823 65.0984 197.506 65.7339 197.783 65.7339Z" fill="#EBEBEB"/>
<path d="M287.769 115.318C291.998 115.318 363.191 115.878 367.663 115.705C367.737 115.702 367.809 115.671 367.868 115.616C367.926 115.561 367.969 115.485 367.988 115.399C368.007 115.313 368.003 115.221 367.976 115.138C367.948 115.055 367.899 114.985 367.836 114.938C365.014 113.266 361.818 113.605 358.886 112.424C357.155 111.733 356.105 110.351 354.905 108.832C353.914 107.479 352.633 106.476 351.2 105.93C349.888 105.46 348.495 105.41 347.161 105.785C345.719 106.193 344.467 107.167 343.088 107.809C339.666 109.357 336.342 107.885 333.901 104.853C331.888 102.359 329.908 100.017 327.168 98.6358C326.05 98.0313 324.841 97.709 323.615 97.6888C322.389 97.6686 321.172 97.951 320.041 98.5184C317.428 99.8999 315.639 102.787 313.181 104.494C310.296 106.531 306.799 106.048 303.585 106.663C300.371 107.277 297.913 110.517 295.097 112.382C294.176 113.086 293.113 113.478 292.021 113.515C291.394 113.449 290.77 113.346 290.152 113.204C289.183 113.059 288.265 113.094 287.613 114.061C287.457 114.316 287.492 115.318 287.769 115.318Z" fill="#EBEBEB"/>
<path d="M0.194562 120.816C3.28161 120.816 55.2536 121.224 58.5196 121.099C58.7561 121.099 58.8831 120.678 58.6465 120.54C56.5923 119.317 54.2554 119.566 52.1147 118.702C50.8568 118.191 50.0836 117.21 49.2296 116.077C48.5085 115.089 47.5742 114.358 46.5291 113.964C45.5709 113.621 44.5548 113.583 43.5806 113.853C42.5304 114.157 41.6129 114.875 40.6089 115.331C38.1104 116.464 35.6812 115.387 33.8982 113.176C32.4326 111.352 31.0131 109.632 28.9878 108.651C28.1731 108.212 27.2917 107.979 26.3984 107.964C25.505 107.95 24.6188 108.156 23.7946 108.569C21.8674 109.619 20.5402 111.691 18.7515 112.927C16.628 114.413 14.0892 114.067 11.7465 114.509C9.40377 114.951 7.59771 117.321 5.54352 118.654C4.87434 119.17 4.10047 119.459 3.30469 119.49C2.84584 119.439 2.38941 119.361 1.93716 119.255C1.22742 119.151 0.558085 119.179 0.0791601 119.883C-0.0593243 120.084 -0.0131646 120.816 0.194562 120.816Z" fill="#EBEBEB"/>
<path d="M272.293 44.2505C275.38 44.2505 327.358 44.658 330.624 44.5337C330.855 44.5337 330.982 44.1123 330.751 43.9742C328.691 42.7515 326.354 43.0002 324.213 42.1367C322.956 41.6255 322.182 40.6377 321.328 39.5118C320.604 38.525 319.668 37.7941 318.622 37.398C317.667 37.0511 316.651 37.0129 315.679 37.2875C314.623 37.5845 313.706 38.3098 312.702 38.7657C310.203 39.8917 307.78 38.821 305.997 36.6105C304.526 34.7869 303.077 33.0668 301.081 32.0859C300.266 31.6466 299.385 31.412 298.492 31.3966C297.599 31.3811 296.712 31.5852 295.888 31.9961C293.978 33.0323 292.668 35.1115 290.879 36.3618C288.756 37.847 286.217 37.4947 283.874 37.9437C281.531 38.3927 279.731 40.7552 277.671 42.0884C277.002 42.6058 276.228 42.8948 275.432 42.9242C274.973 42.8735 274.517 42.7951 274.065 42.6893C273.737 42.5831 273.392 42.5855 273.066 42.6963C272.74 42.807 272.445 43.0219 272.213 43.3179C272.08 43.5183 272.103 44.2505 272.293 44.2505Z" fill="#EBEBEB"/>
<path d="M45.4733 44.5067C45.5367 44.714 127.41 44.5067 126.36 44.5067C125.892 44.5067 127.075 43.664 126.614 43.3946C123.948 41.8058 121.034 41.7644 118.131 41.4466C116.418 41.3591 114.736 40.8685 113.181 40.0029C111.634 39.0358 110.671 37.3572 109.58 35.8099C107.89 33.4217 105.719 31.5882 103.273 30.4824C100.827 29.3765 98.1858 29.0348 95.5988 29.4893C89.7767 30.5807 85.2125 35.8859 79.3615 36.8668C75.859 37.4539 72.547 35.8306 69.1252 35.2573C66.4768 34.8202 63.781 35.411 61.4336 36.9428C59.5871 38.0342 57.8849 38.9598 55.7961 39.1325C54.192 39.2707 52.5821 39.0496 50.978 39.0289C48.3479 39.0874 45.8262 40.2935 43.8865 42.4206C43.6268 42.6762 42.8017 44.5067 45.4733 44.5067Z" fill="#EBEBEB"/>
<path d="M18.9765 284.703H38.7625L38.7625 160.536H18.9765L18.9765 284.703Z" fill="#DBDBDB"/>
<path d="M31.8442 169.308H35.6929V164.57H31.8442V169.308Z" fill="#EBEBEB"/>
<path d="M26.922 169.308H30.7708V164.57H26.922V169.308Z" fill="#EBEBEB"/>
<path d="M31.8442 177.349H35.6929V172.61H31.8442V177.349Z" fill="#EBEBEB"/>
<path d="M26.922 177.349H30.7708V172.61H26.922V177.349Z" fill="#EBEBEB"/>
<path d="M31.8442 185.404H35.6929V180.665H31.8442V185.404Z" fill="#EBEBEB"/>
<path d="M26.922 185.404H30.7708V180.665H26.922V185.404Z" fill="#EBEBEB"/>
<path d="M31.8442 193.458H35.6929V188.719H31.8442V193.458Z" fill="#EBEBEB"/>
<path d="M26.922 193.458H30.7708V188.719H26.922V193.458Z" fill="#EBEBEB"/>
<path d="M31.8442 201.506H35.6929V196.767H31.8442V201.506Z" fill="#EBEBEB"/>
<path d="M26.922 201.506H30.7708V196.767H26.922V201.506Z" fill="#EBEBEB"/>
<path d="M31.8442 209.553H35.6929V204.815H31.8442V209.553Z" fill="#EBEBEB"/>
<path d="M26.922 209.553H30.7708V204.815H26.922V209.553Z" fill="#EBEBEB"/>
<path d="M31.8442 217.601H35.6929V212.862H31.8442V217.601Z" fill="#EBEBEB"/>
<path d="M26.922 217.601H30.7708V212.862H26.922V217.601Z" fill="#EBEBEB"/>
<path d="M31.8442 225.655H35.6929V220.916H31.8442V225.655Z" fill="#EBEBEB"/>
<path d="M26.922 225.655H30.7708V220.916H26.922V225.655Z" fill="#EBEBEB"/>
<path d="M31.8442 233.703H35.6929V228.964H31.8442V233.703Z" fill="#EBEBEB"/>
<path d="M26.922 233.703H30.7708V228.964H26.922V233.703Z" fill="#EBEBEB"/>
<path d="M31.8442 241.75H35.6929V237.011H31.8442V241.75Z" fill="#EBEBEB"/>
<path d="M26.922 241.75H30.7708V237.011H26.922V241.75Z" fill="#EBEBEB"/>
<path d="M31.8442 249.797H35.6929V245.059H31.8442V249.797Z" fill="#EBEBEB"/>
<path d="M26.922 249.797H30.7708V245.059H26.922V249.797Z" fill="#EBEBEB"/>
<path d="M31.8442 257.853H35.6929V253.114H31.8442V257.853Z" fill="#EBEBEB"/>
<path d="M26.922 257.853H30.7708V253.114H26.922V257.853Z" fill="#EBEBEB"/>
<path d="M31.8442 265.893H35.6929V261.154H31.8442V265.893Z" fill="#EBEBEB"/>
<path d="M26.922 265.893H30.7708V261.154H26.922V265.893Z" fill="#EBEBEB"/>
<path d="M31.8442 273.947H35.6929V269.208H31.8442V273.947Z" fill="#EBEBEB"/>
<path d="M25.8951 269.208H22.0464V273.947H25.8951V269.208Z" fill="#EBEBEB"/>
<path d="M25.8951 261.161H22.0464V265.9H25.8951V261.161Z" fill="#EBEBEB"/>
<path d="M25.8951 253.106H22.0464V257.845H25.8951V253.106Z" fill="#EBEBEB"/>
<path d="M25.8951 245.059H22.0464V249.798H25.8951V245.059Z" fill="#EBEBEB"/>
<path d="M25.8951 237.011H22.0464V241.75H25.8951V237.011Z" fill="#EBEBEB"/>
<path d="M25.8951 228.958H22.0464V233.696H25.8951V228.958Z" fill="#EBEBEB"/>
<path d="M25.8951 220.909H22.0464V225.648H25.8951V220.909Z" fill="#EBEBEB"/>
<path d="M25.8951 212.862H22.0464V217.6H25.8951V212.862Z" fill="#EBEBEB"/>
<path d="M25.8951 204.815H22.0464V209.553H25.8951V204.815Z" fill="#EBEBEB"/>
<path d="M25.8951 196.759H22.0464V201.498H25.8951V196.759Z" fill="#EBEBEB"/>
<path d="M25.8951 188.713H22.0464V193.451H25.8951V188.713Z" fill="#EBEBEB"/>
<path d="M25.8951 180.665H22.0464V185.404H25.8951V180.665Z" fill="#EBEBEB"/>
<path d="M25.8951 172.616H22.0464V177.355H25.8951V172.616Z" fill="#EBEBEB"/>
<path d="M25.8951 164.563H22.0464V169.301H25.8951V164.563Z" fill="#EBEBEB"/>
<path d="M26.922 273.947H30.7708V269.208H26.922V273.947Z" fill="#EBEBEB"/>
<path d="M3.37399 284.703H18.9766L18.9766 160.536H3.37399L3.37399 284.703Z" fill="#A6A6A6"/>
<path d="M8.15749 269.208H4.98389V273.947H8.15749V269.208Z" fill="#C7C7C7"/>
<path d="M12.2197 269.208H9.04614V273.947H12.2197V269.208Z" fill="#C7C7C7"/>
<path d="M8.15749 261.161H4.98389V265.9H8.15749V261.161Z" fill="#C7C7C7"/>
<path d="M12.2197 261.161H9.04614V265.9H12.2197V261.161Z" fill="#C7C7C7"/>
<path d="M8.15749 253.106H4.98389V257.845H8.15749V253.106Z" fill="#C7C7C7"/>
<path d="M12.2197 253.106H9.04614V257.845H12.2197V253.106Z" fill="#C7C7C7"/>
<path d="M8.15749 245.059H4.98389V249.798H8.15749V245.059Z" fill="#C7C7C7"/>
<path d="M12.2197 245.059H9.04614V249.798H12.2197V245.059Z" fill="#C7C7C7"/>
<path d="M8.15749 237.011H4.98389V241.75H8.15749V237.011Z" fill="#C7C7C7"/>
<path d="M12.2197 237.011H9.04614V241.75H12.2197V237.011Z" fill="#C7C7C7"/>
<path d="M8.15749 228.958H4.98389V233.696H8.15749V228.958Z" fill="#C7C7C7"/>
<path d="M12.2197 228.958H9.04614V233.696H12.2197V228.958Z" fill="#C7C7C7"/>
<path d="M8.15749 220.909H4.98389V225.648H8.15749V220.909Z" fill="#C7C7C7"/>
<path d="M12.2197 220.909H9.04614V225.648H12.2197V220.909Z" fill="#C7C7C7"/>
<path d="M8.15749 212.862H4.98389V217.6H8.15749V212.862Z" fill="#C7C7C7"/>
<path d="M12.2197 212.862H9.04614V217.6H12.2197V212.862Z" fill="#C7C7C7"/>
<path d="M8.15749 204.815H4.98389V209.553H8.15749V204.815Z" fill="#C7C7C7"/>
<path d="M12.2197 204.815H9.04614V209.553H12.2197V204.815Z" fill="#C7C7C7"/>
<path d="M8.15749 196.759H4.98389V201.498H8.15749V196.759Z" fill="#C7C7C7"/>
<path d="M12.2197 196.759H9.04614V201.498H12.2197V196.759Z" fill="#C7C7C7"/>
<path d="M8.15749 188.713H4.98389V193.451H8.15749V188.713Z" fill="#C7C7C7"/>
<path d="M12.2197 188.713H9.04614V193.451H12.2197V188.713Z" fill="#C7C7C7"/>
<path d="M8.15749 180.665H4.98389V185.404H8.15749V180.665Z" fill="#C7C7C7"/>
<path d="M12.2197 180.665H9.04614V185.404H12.2197V180.665Z" fill="#C7C7C7"/>
<path d="M8.15749 172.616H4.98389V177.355H8.15749V172.616Z" fill="#C7C7C7"/>
<path d="M12.2197 172.616H9.04614V177.355H12.2197V172.616Z" fill="#C7C7C7"/>
<path d="M8.15749 164.563H4.98389V169.301H8.15749V164.563Z" fill="#C7C7C7"/>
<path d="M13.0796 169.308H16.2532V164.57H13.0796V169.308Z" fill="#C7C7C7"/>
<path d="M13.0796 177.349H16.2532V172.61H13.0796V177.349Z" fill="#C7C7C7"/>
<path d="M13.0796 185.404H16.2532V180.665H13.0796V185.404Z" fill="#C7C7C7"/>
<path d="M13.0796 193.458H16.2532V188.719H13.0796V193.458Z" fill="#C7C7C7"/>
<path d="M13.0796 201.506H16.2532V196.767H13.0796V201.506Z" fill="#C7C7C7"/>
<path d="M13.0796 209.553H16.2532V204.815H13.0796V209.553Z" fill="#C7C7C7"/>
<path d="M13.0796 217.601H16.2532V212.862H13.0796V217.601Z" fill="#C7C7C7"/>
<path d="M13.0796 225.655H16.2532V220.916H13.0796V225.655Z" fill="#C7C7C7"/>
<path d="M13.0796 233.703H16.2532V228.964H13.0796V233.703Z" fill="#C7C7C7"/>
<path d="M13.0796 241.75H16.2532V237.011H13.0796V241.75Z" fill="#C7C7C7"/>
<path d="M13.0796 249.797H16.2532V245.059H13.0796V249.797Z" fill="#C7C7C7"/>
<path d="M13.0796 257.853H16.2532V253.114H13.0796V257.853Z" fill="#C7C7C7"/>
<path d="M13.0796 265.893H16.2532V261.154H13.0796V265.893Z" fill="#C7C7C7"/>
<path d="M13.0796 273.947H16.2532V269.208H13.0796V273.947Z" fill="#C7C7C7"/>
<path d="M12.2197 164.563H9.04614V169.301H12.2197V164.563Z" fill="#C7C7C7"/>
<path d="M364.149 157.821H343.509V284.695H364.149V157.821Z" fill="#EBEBEB"/>
<path d="M343.503 157.828H364.639V155.3H343.503V157.828Z" fill="#C7C7C7"/>
<path d="M362.279 161.544H360.19V284.696H362.279V161.544Z" fill="white"/>
<path d="M358.575 161.544H356.486V284.696H358.575V161.544Z" fill="white"/>
<path d="M354.87 161.544H352.781V284.696H354.87V161.544Z" fill="white"/>
<path d="M351.166 161.544H349.077V284.696H351.166V161.544Z" fill="white"/>
<path d="M347.462 161.544H345.373V284.696H347.462V161.544Z" fill="white"/>
<path d="M360.19 169.731H362.279V164.743H360.19V169.731Z" fill="#EBEBEB"/>
<path d="M356.486 169.731H358.575V164.743H356.486V169.731Z" fill="#EBEBEB"/>
<path d="M352.782 169.731H354.87V164.743H352.782V169.731Z" fill="#EBEBEB"/>
<path d="M349.077 169.731H351.166V164.743H349.077V169.731Z" fill="#EBEBEB"/>
<path d="M345.373 169.731H347.461V164.743H345.373V169.731Z" fill="#EBEBEB"/>
<path d="M360.19 177.832H362.279V172.844H360.19V177.832Z" fill="#EBEBEB"/>
<path d="M356.486 177.832H358.575V172.844H356.486V177.832Z" fill="#EBEBEB"/>
<path d="M352.782 177.832H354.87V172.844H352.782V177.832Z" fill="#EBEBEB"/>
<path d="M349.077 177.832H351.166V172.844H349.077V177.832Z" fill="#EBEBEB"/>
<path d="M345.373 177.832H347.461V172.844H345.373V177.832Z" fill="#EBEBEB"/>
<path d="M360.19 185.935H362.279V180.947H360.19V185.935Z" fill="#EBEBEB"/>
<path d="M356.486 185.935H358.575V180.947H356.486V185.935Z" fill="#EBEBEB"/>
<path d="M352.782 185.935H354.87V180.947H352.782V185.935Z" fill="#EBEBEB"/>
<path d="M349.077 185.935H351.166V180.947H349.077V185.935Z" fill="#EBEBEB"/>
<path d="M345.373 185.935H347.461V180.947H345.373V185.935Z" fill="#EBEBEB"/>
<path d="M360.19 194.038H362.279V189.05H360.19V194.038Z" fill="#EBEBEB"/>
<path d="M356.486 194.038H358.575V189.05H356.486V194.038Z" fill="#EBEBEB"/>
<path d="M352.782 194.038H354.87V189.05H352.782V194.038Z" fill="#EBEBEB"/>
<path d="M349.077 194.038H351.166V189.05H349.077V194.038Z" fill="#EBEBEB"/>
<path d="M345.373 194.038H347.461V189.05H345.373V194.038Z" fill="#EBEBEB"/>
<path d="M360.19 202.148H362.279V197.161H360.19V202.148Z" fill="#EBEBEB"/>
<path d="M356.486 202.148H358.575V197.161H356.486V202.148Z" fill="#EBEBEB"/>
<path d="M352.782 202.148H354.87V197.161H352.782V202.148Z" fill="#EBEBEB"/>
<path d="M349.077 202.148H351.166V197.161H349.077V202.148Z" fill="#EBEBEB"/>
<path d="M345.373 202.148H347.461V197.161H345.373V202.148Z" fill="#EBEBEB"/>
<path d="M360.19 210.251H362.279V205.264H360.19V210.251Z" fill="#EBEBEB"/>
<path d="M356.486 210.251H358.575V205.264H356.486V210.251Z" fill="#EBEBEB"/>
<path d="M352.782 210.251H354.87V205.264H352.782V210.251Z" fill="#EBEBEB"/>
<path d="M349.077 210.251H351.166V205.264H349.077V210.251Z" fill="#EBEBEB"/>
<path d="M345.373 210.251H347.461V205.264H345.373V210.251Z" fill="#EBEBEB"/>
<path d="M360.19 218.361H362.279V213.374H360.19V218.361Z" fill="#EBEBEB"/>
<path d="M356.486 218.361H358.575V213.374H356.486V218.361Z" fill="#EBEBEB"/>
<path d="M352.782 218.361H354.87V213.374H352.782V218.361Z" fill="#EBEBEB"/>
<path d="M349.077 218.361H351.166V213.374H349.077V218.361Z" fill="#EBEBEB"/>
<path d="M345.373 218.361H347.461V213.374H345.373V218.361Z" fill="#EBEBEB"/>
<path d="M360.19 226.471H362.279V221.484H360.19V226.471Z" fill="#EBEBEB"/>
<path d="M356.486 226.471H358.575V221.484H356.486V226.471Z" fill="#EBEBEB"/>
<path d="M352.782 226.471H354.87V221.484H352.782V226.471Z" fill="#EBEBEB"/>
<path d="M349.077 226.471H351.166V221.484H349.077V226.471Z" fill="#EBEBEB"/>
<path d="M345.373 226.471H347.461V221.484H345.373V226.471Z" fill="#EBEBEB"/>
<path d="M360.19 234.572H362.279V229.585H360.19V234.572Z" fill="#EBEBEB"/>
<path d="M356.486 234.572H358.575V229.585H356.486V234.572Z" fill="#EBEBEB"/>
<path d="M352.782 234.572H354.87V229.585H352.782V234.572Z" fill="#EBEBEB"/>
<path d="M349.077 234.572H351.166V229.585H349.077V234.572Z" fill="#EBEBEB"/>
<path d="M345.373 234.572H347.461V229.585H345.373V234.572Z" fill="#EBEBEB"/>
<path d="M360.19 242.675H362.279V237.688H360.19V242.675Z" fill="#EBEBEB"/>
<path d="M356.486 242.675H358.575V237.688H356.486V242.675Z" fill="#EBEBEB"/>
<path d="M352.782 242.675H354.87V237.688H352.782V242.675Z" fill="#EBEBEB"/>
<path d="M349.077 242.675H351.166V237.688H349.077V242.675Z" fill="#EBEBEB"/>
<path d="M345.373 242.675H347.461V237.688H345.373V242.675Z" fill="#EBEBEB"/>
<path d="M360.19 250.778H362.279V245.791H360.19V250.778Z" fill="#EBEBEB"/>
<path d="M356.486 250.778H358.575V245.791H356.486V250.778Z" fill="#EBEBEB"/>
<path d="M352.782 250.778H354.87V245.791H352.782V250.778Z" fill="#EBEBEB"/>
<path d="M349.077 250.778H351.166V245.791H349.077V250.778Z" fill="#EBEBEB"/>
<path d="M345.373 250.778H347.461V245.791H345.373V250.778Z" fill="#EBEBEB"/>
<path d="M360.19 258.888H362.279V253.901H360.19V258.888Z" fill="#EBEBEB"/>
<path d="M356.486 258.888H358.575V253.901H356.486V258.888Z" fill="#EBEBEB"/>
<path d="M352.782 258.888H354.87V253.901H352.782V258.888Z" fill="#EBEBEB"/>
<path d="M349.077 258.888H351.166V253.901H349.077V258.888Z" fill="#EBEBEB"/>
<path d="M345.373 258.888H347.461V253.901H345.373V258.888Z" fill="#EBEBEB"/>
<path d="M360.19 266.999H362.279V262.011H360.19V266.999Z" fill="#EBEBEB"/>
<path d="M356.486 266.999H358.575V262.011H356.486V266.999Z" fill="#EBEBEB"/>
<path d="M352.782 266.999H354.87V262.011H352.782V266.999Z" fill="#EBEBEB"/>
<path d="M349.077 266.999H351.166V262.011H349.077V266.999Z" fill="#EBEBEB"/>
<path d="M345.373 266.999H347.461V262.011H345.373V266.999Z" fill="#EBEBEB"/>
<path d="M362.279 270.113H360.19V284.702H362.279V270.113Z" fill="#EBEBEB"/>
<path d="M358.575 270.113H356.486V284.702H358.575V270.113Z" fill="#EBEBEB"/>
<path d="M354.87 270.113H352.781V284.702H354.87V270.113Z" fill="#EBEBEB"/>
<path d="M351.166 270.113H349.077V284.702H351.166V270.113Z" fill="#EBEBEB"/>
<path d="M347.462 270.113H345.373V284.702H347.462V270.113Z" fill="#EBEBEB"/>
<path d="M343.509 157.821H330.255V284.695H343.509V157.821Z" fill="#DBDBDB"/>
<path d="M329.678 157.828H343.503V155.3H329.678V157.828Z" fill="#C7C7C7"/>
<path d="M341.639 161.544H339.551V284.696H341.639V161.544Z" fill="#C7C7C7"/>
<path d="M337.935 161.544H335.846V284.696H337.935V161.544Z" fill="#C7C7C7"/>
<path d="M334.23 161.544H332.142V284.696H334.23V161.544Z" fill="#C7C7C7"/>
<path d="M339.551 169.731H341.639V164.743H339.551V169.731Z" fill="#DBDBDB"/>
<path d="M335.846 169.731H337.935V164.743H335.846V169.731Z" fill="#DBDBDB"/>
<path d="M332.142 169.731H334.23V164.743H332.142V169.731Z" fill="#DBDBDB"/>
<path d="M339.551 177.832H341.639V172.844H339.551V177.832Z" fill="#DBDBDB"/>
<path d="M335.846 177.832H337.935V172.844H335.846V177.832Z" fill="#DBDBDB"/>
<path d="M332.142 177.832H334.23V172.844H332.142V177.832Z" fill="#DBDBDB"/>
<path d="M339.551 185.935H341.639V180.947H339.551V185.935Z" fill="#DBDBDB"/>
<path d="M335.846 185.935H337.935V180.947H335.846V185.935Z" fill="#DBDBDB"/>
<path d="M332.142 185.935H334.23V180.947H332.142V185.935Z" fill="#DBDBDB"/>
<path d="M339.551 194.038H341.639V189.05H339.551V194.038Z" fill="#DBDBDB"/>
<path d="M335.846 194.038H337.935V189.05H335.846V194.038Z" fill="#DBDBDB"/>
<path d="M332.142 194.038H334.23V189.05H332.142V194.038Z" fill="#DBDBDB"/>
<path d="M339.551 202.148H341.639V197.161H339.551V202.148Z" fill="#DBDBDB"/>
<path d="M335.846 202.148H337.935V197.161H335.846V202.148Z" fill="#DBDBDB"/>
<path d="M332.142 202.148H334.23V197.161H332.142V202.148Z" fill="#DBDBDB"/>
<path d="M339.551 210.251H341.639V205.264H339.551V210.251Z" fill="#DBDBDB"/>
<path d="M335.846 210.251H337.935V205.264H335.846V210.251Z" fill="#DBDBDB"/>
<path d="M332.142 210.251H334.23V205.264H332.142V210.251Z" fill="#DBDBDB"/>
<path d="M339.551 218.361H341.639V213.374H339.551V218.361Z" fill="#DBDBDB"/>
<path d="M335.846 218.361H337.935V213.374H335.846V218.361Z" fill="#DBDBDB"/>
<path d="M332.142 218.361H334.23V213.374H332.142V218.361Z" fill="#DBDBDB"/>
<path d="M339.551 226.471H341.639V221.484H339.551V226.471Z" fill="#DBDBDB"/>
<path d="M335.846 226.471H337.935V221.484H335.846V226.471Z" fill="#DBDBDB"/>
<path d="M332.142 226.471H334.23V221.484H332.142V226.471Z" fill="#DBDBDB"/>
<path d="M339.551 234.572H341.639V229.585H339.551V234.572Z" fill="#DBDBDB"/>
<path d="M335.846 234.572H337.935V229.585H335.846V234.572Z" fill="#DBDBDB"/>
<path d="M332.142 234.572H334.23V229.585H332.142V234.572Z" fill="#DBDBDB"/>
<path d="M339.551 242.675H341.639V237.688H339.551V242.675Z" fill="#DBDBDB"/>
<path d="M335.846 242.675H337.935V237.688H335.846V242.675Z" fill="#DBDBDB"/>
<path d="M332.142 242.675H334.23V237.688H332.142V242.675Z" fill="#DBDBDB"/>
<path d="M339.551 250.778H341.639V245.791H339.551V250.778Z" fill="#DBDBDB"/>
<path d="M335.846 250.778H337.935V245.791H335.846V250.778Z" fill="#DBDBDB"/>
<path d="M332.142 250.778H334.23V245.791H332.142V250.778Z" fill="#DBDBDB"/>
<path d="M339.551 258.888H341.639V253.901H339.551V258.888Z" fill="#DBDBDB"/>
<path d="M335.846 258.888H337.935V253.901H335.846V258.888Z" fill="#DBDBDB"/>
<path d="M332.142 258.888H334.23V253.901H332.142V258.888Z" fill="#DBDBDB"/>
<path d="M339.551 266.999H341.639V262.011H339.551V266.999Z" fill="#DBDBDB"/>
<path d="M335.846 266.999H337.935V262.011H335.846V266.999Z" fill="#DBDBDB"/>
<path d="M332.142 266.999H334.23V262.011H332.142V266.999Z" fill="#DBDBDB"/>
<path d="M341.639 270.113H339.551V284.702H341.639V270.113Z" fill="#DBDBDB"/>
<path d="M337.935 270.113H335.846V284.702H337.935V270.113Z" fill="#DBDBDB"/>
<path d="M334.23 270.113H332.142V284.702H334.23V270.113Z" fill="#DBDBDB"/>
<path d="M26.8645 212.108H37.3201V197.326H26.8645V212.108Z" fill="#DBDBDB"/>
<path d="M20.2346 212.647H26.8645V197.319H20.2346V212.647Z" fill="#C7C7C7"/>
<path d="M19.796 212.647H26.374V203.847H19.796V212.647Z" fill="#DBDBDB"/>
<path d="M15.6874 212.647H19.79V203.847H15.6874V212.647Z" fill="#C7C7C7"/>
<path d="M24.4237 284.703H41.3303L41.3303 211.149H24.4237L24.4237 284.703Z" fill="#EBEBEB"/>
<path d="M34.0829 216.91H39.3972V214.313H34.0829V216.91Z" fill="white"/>
<path d="M27.2855 216.91H32.5999V214.313H27.2855V216.91Z" fill="white"/>
<path d="M34.0829 221.324H39.3972V218.727H34.0829V221.324Z" fill="white"/>
<path d="M27.2855 221.324H32.5999V218.727H27.2855V221.324Z" fill="white"/>
<path d="M34.0829 225.738H39.3972V223.141H34.0829V225.738Z" fill="white"/>
<path d="M27.2855 225.738H32.5999V223.141H27.2855V225.738Z" fill="white"/>
<path d="M34.0829 230.152H39.3972V227.555H34.0829V230.152Z" fill="white"/>
<path d="M27.2855 230.152H32.5999V227.555H27.2855V230.152Z" fill="white"/>
<path d="M34.0829 234.565H39.3972V231.968H34.0829V234.565Z" fill="white"/>
<path d="M27.2855 234.565H32.5999V231.968H27.2855V234.565Z" fill="white"/>
<path d="M34.0829 238.98H39.3972V236.382H34.0829V238.98Z" fill="white"/>
<path d="M27.2855 238.98H32.5999V236.382H27.2855V238.98Z" fill="white"/>
<path d="M34.0829 243.394H39.3972V240.797H34.0829V243.394Z" fill="white"/>
<path d="M27.2855 243.394H32.5999V240.797H27.2855V243.394Z" fill="white"/>
<path d="M34.0829 247.815H39.3972V245.218H34.0829V247.815Z" fill="white"/>
<path d="M27.2855 247.815H32.5999V245.218H27.2855V247.815Z" fill="white"/>
<path d="M34.0829 252.229H39.3972V249.632H34.0829V252.229Z" fill="white"/>
<path d="M27.2855 252.229H32.5999V249.632H27.2855V252.229Z" fill="white"/>
<path d="M34.0829 256.644H39.3972V254.047H34.0829V256.644Z" fill="white"/>
<path d="M27.2855 256.644H32.5999V254.047H27.2855V256.644Z" fill="white"/>
<path d="M34.0829 261.057H39.3972V258.46H34.0829V261.057Z" fill="white"/>
<path d="M27.2855 261.057H32.5999V258.46H27.2855V261.057Z" fill="white"/>
<path d="M34.0829 265.472H39.3972V262.875H34.0829V265.472Z" fill="white"/>
<path d="M27.2855 265.472H32.5999V262.875H27.2855V265.472Z" fill="white"/>
<path d="M34.0829 269.885H39.3972V267.287H34.0829V269.885Z" fill="white"/>
<path d="M27.2855 269.885H32.5999V267.287H27.2855V269.885Z" fill="white"/>
<path d="M34.0829 274.299H39.3972V271.702H34.0829V274.299Z" fill="white"/>
<path d="M27.2855 274.299H32.5999V271.702H27.2855V274.299Z" fill="white"/>
<path d="M10.7252 284.703H24.4236L24.4236 211.149H10.7252L10.7252 284.703Z" fill="#C7C7C7"/>
<path d="M16.4609 271.703H12.0986V274.3H16.4609V271.703Z" fill="#EBEBEB"/>
<path d="M22.0463 271.703H17.6841V274.3H22.0463V271.703Z" fill="#EBEBEB"/>
<path d="M16.4609 267.289H12.0986V269.886H16.4609V267.289Z" fill="#EBEBEB"/>
<path d="M22.0463 267.289H17.6841V269.886H22.0463V267.289Z" fill="#EBEBEB"/>
<path d="M16.4609 262.874H12.0986V265.471H16.4609V262.874Z" fill="#EBEBEB"/>
<path d="M22.0463 262.874H17.6841V265.471H22.0463V262.874Z" fill="#EBEBEB"/>
<path d="M16.4609 258.46H12.0986V261.058H16.4609V258.46Z" fill="#EBEBEB"/>
<path d="M22.0463 258.46H17.6841V261.058H22.0463V258.46Z" fill="#EBEBEB"/>
<path d="M16.4609 254.039H12.0986V256.636H16.4609V254.039Z" fill="#EBEBEB"/>
<path d="M22.0463 254.039H17.6841V256.636H22.0463V254.039Z" fill="#EBEBEB"/>
<path d="M16.4609 249.624H12.0986V252.222H16.4609V249.624Z" fill="#EBEBEB"/>
<path d="M22.0463 249.624H17.6841V252.222H22.0463V249.624Z" fill="#EBEBEB"/>
<path d="M16.4609 245.212H12.0986V247.809H16.4609V245.212Z" fill="#EBEBEB"/>
<path d="M22.0463 245.212H17.6841V247.809H22.0463V245.212Z" fill="#EBEBEB"/>
<path d="M16.4609 240.797H12.0986V243.394H16.4609V240.797Z" fill="#EBEBEB"/>
<path d="M22.0463 240.797H17.6841V243.394H22.0463V240.797Z" fill="#EBEBEB"/>
<path d="M16.4609 236.383H12.0986V238.98H16.4609V236.383Z" fill="#EBEBEB"/>
<path d="M22.0463 236.383H17.6841V238.98H22.0463V236.383Z" fill="#EBEBEB"/>
<path d="M16.4609 231.969H12.0986V234.566H16.4609V231.969Z" fill="#EBEBEB"/>
<path d="M22.0463 231.969H17.6841V234.566H22.0463V231.969Z" fill="#EBEBEB"/>
<path d="M16.4609 227.554H12.0986V230.152H16.4609V227.554Z" fill="#EBEBEB"/>
<path d="M22.0463 227.554H17.6841V230.152H22.0463V227.554Z" fill="#EBEBEB"/>
<path d="M16.4609 223.134H12.0986V225.731H16.4609V223.134Z" fill="#EBEBEB"/>
<path d="M22.0463 223.134H17.6841V225.731H22.0463V223.134Z" fill="#EBEBEB"/>
<path d="M16.4609 218.719H12.0986V221.317H16.4609V218.719Z" fill="#EBEBEB"/>
<path d="M22.0463 218.719H17.6841V221.317H22.0463V218.719Z" fill="#EBEBEB"/>
<path d="M16.4609 214.305H12.0986V216.902H16.4609V214.305Z" fill="#EBEBEB"/>
<path d="M22.0463 214.305H17.6841V216.902H22.0463V214.305Z" fill="#EBEBEB"/>
<path d="M323.117 212.108H333.573V197.326H323.117V212.108Z" fill="#DBDBDB"/>
<path d="M316.481 212.647H323.111V197.319H316.481V212.647Z" fill="#C7C7C7"/>
<path d="M316.043 212.647H322.621V203.847H316.043V212.647Z" fill="#DBDBDB"/>
<path d="M311.94 212.647H316.043V203.847H311.94V212.647Z" fill="#C7C7C7"/>
<path d="M320.676 284.703H337.583V211.149H320.676V284.703Z" fill="#EBEBEB"/>
<path d="M330.33 216.91H335.644V214.313H330.33V216.91Z" fill="white"/>
<path d="M323.533 216.91H328.847V214.313H323.533V216.91Z" fill="white"/>
<path d="M330.33 221.324H335.644V218.727H330.33V221.324Z" fill="white"/>
<path d="M323.533 221.324H328.847V218.727H323.533V221.324Z" fill="white"/>
<path d="M330.33 225.738H335.644V223.141H330.33V225.738Z" fill="white"/>
<path d="M323.533 225.738H328.847V223.141H323.533V225.738Z" fill="white"/>
<path d="M330.33 230.152H335.644V227.555H330.33V230.152Z" fill="white"/>
<path d="M323.533 230.152H328.847V227.555H323.533V230.152Z" fill="white"/>
<path d="M330.33 234.565H335.644V231.968H330.33V234.565Z" fill="white"/>
<path d="M323.533 234.565H328.847V231.968H323.533V234.565Z" fill="white"/>
<path d="M330.33 238.98H335.644V236.382H330.33V238.98Z" fill="white"/>
<path d="M323.533 238.98H328.847V236.382H323.533V238.98Z" fill="white"/>
<path d="M330.33 243.394H335.644V240.797H330.33V243.394Z" fill="white"/>
<path d="M323.533 243.394H328.847V240.797H323.533V243.394Z" fill="white"/>
<path d="M330.33 247.815H335.644V245.218H330.33V247.815Z" fill="white"/>
<path d="M323.533 247.815H328.847V245.218H323.533V247.815Z" fill="white"/>
<path d="M330.33 252.229H335.644V249.632H330.33V252.229Z" fill="white"/>
<path d="M323.533 252.229H328.847V249.632H323.533V252.229Z" fill="white"/>
<path d="M330.33 256.644H335.644V254.047H330.33V256.644Z" fill="white"/>
<path d="M323.533 256.644H328.847V254.047H323.533V256.644Z" fill="white"/>
<path d="M330.33 261.057H335.644V258.46H330.33V261.057Z" fill="white"/>
<path d="M323.533 261.057H328.847V258.46H323.533V261.057Z" fill="white"/>
<path d="M330.33 265.472H335.644V262.875H330.33V265.472Z" fill="white"/>
<path d="M323.533 265.472H328.847V262.875H323.533V265.472Z" fill="white"/>
<path d="M330.33 269.885H335.644V267.287H330.33V269.885Z" fill="white"/>
<path d="M323.533 269.885H328.847V267.287H323.533V269.885Z" fill="white"/>
<path d="M330.33 274.299H335.644V271.702H330.33V274.299Z" fill="white"/>
<path d="M323.533 274.299H328.847V271.702H323.533V274.299Z" fill="white"/>
<path d="M306.978 284.703H320.676V211.149H306.978V284.703Z" fill="#C7C7C7"/>
<path d="M312.708 271.703H308.345V274.3H312.708V271.703Z" fill="#EBEBEB"/>
<path d="M318.293 271.703H313.931V274.3H318.293V271.703Z" fill="#EBEBEB"/>
<path d="M312.708 267.289H308.345V269.886H312.708V267.289Z" fill="#EBEBEB"/>
<path d="M318.293 267.289H313.931V269.886H318.293V267.289Z" fill="#EBEBEB"/>
<path d="M312.708 262.874H308.345V265.471H312.708V262.874Z" fill="#EBEBEB"/>
<path d="M318.293 262.874H313.931V265.471H318.293V262.874Z" fill="#EBEBEB"/>
<path d="M312.708 258.46H308.345V261.058H312.708V258.46Z" fill="#EBEBEB"/>
<path d="M318.293 258.46H313.931V261.058H318.293V258.46Z" fill="#EBEBEB"/>
<path d="M312.708 254.039H308.345V256.636H312.708V254.039Z" fill="#EBEBEB"/>
<path d="M318.293 254.039H313.931V256.636H318.293V254.039Z" fill="#EBEBEB"/>
<path d="M312.708 249.624H308.345V252.222H312.708V249.624Z" fill="#EBEBEB"/>
<path d="M318.293 249.624H313.931V252.222H318.293V249.624Z" fill="#EBEBEB"/>
<path d="M312.708 245.212H308.345V247.809H312.708V245.212Z" fill="#EBEBEB"/>
<path d="M318.293 245.212H313.931V247.809H318.293V245.212Z" fill="#EBEBEB"/>
<path d="M312.708 240.797H308.345V243.394H312.708V240.797Z" fill="#EBEBEB"/>
<path d="M318.293 240.797H313.931V243.394H318.293V240.797Z" fill="#EBEBEB"/>
<path d="M312.708 236.383H308.345V238.98H312.708V236.383Z" fill="#EBEBEB"/>
<path d="M318.293 236.383H313.931V238.98H318.293V236.383Z" fill="#EBEBEB"/>
<path d="M312.708 231.969H308.345V234.566H312.708V231.969Z" fill="#EBEBEB"/>
<path d="M318.293 231.969H313.931V234.566H318.293V231.969Z" fill="#EBEBEB"/>
<path d="M312.708 227.554H308.345V230.152H312.708V227.554Z" fill="#EBEBEB"/>
<path d="M318.293 227.554H313.931V230.152H318.293V227.554Z" fill="#EBEBEB"/>
<path d="M312.708 223.134H308.345V225.731H312.708V223.134Z" fill="#EBEBEB"/>
<path d="M318.293 223.134H313.931V225.731H318.293V223.134Z" fill="#EBEBEB"/>
<path d="M312.708 218.719H308.345V221.317H312.708V218.719Z" fill="#EBEBEB"/>
<path d="M318.293 218.719H313.931V221.317H318.293V218.719Z" fill="#EBEBEB"/>
<path d="M312.708 214.305H308.345V216.902H312.708V214.305Z" fill="#EBEBEB"/>
<path d="M318.293 214.305H313.931V216.902H318.293V214.305Z" fill="#EBEBEB"/>
<path d="M340.976 284.703H360.917V236.777H340.976V284.703Z" fill="#C7C7C7"/>
<path d="M354.253 243.858H357.784V240.922H354.253V243.858Z" fill="#DBDBDB"/>
<path d="M354.253 250.122H357.784V247.186H354.253V250.122Z" fill="#DBDBDB"/>
<path d="M354.253 256.395H357.784V253.459H354.253V256.395Z" fill="#DBDBDB"/>
<path d="M354.253 262.667H357.784V259.731H354.253V262.667Z" fill="#DBDBDB"/>
<path d="M354.253 268.939H357.784V266.003H354.253V268.939Z" fill="#DBDBDB"/>
<path d="M354.253 275.211H357.784V272.276H354.253V275.211Z" fill="#DBDBDB"/>
<path d="M354.253 281.484H357.784V278.548H354.253V281.484Z" fill="#DBDBDB"/>
<path d="M349.175 243.858H352.707V240.922H349.175V243.858Z" fill="#DBDBDB"/>
<path d="M349.175 250.122H352.707V247.186H349.175V250.122Z" fill="#DBDBDB"/>
<path d="M349.175 256.395H352.707V253.459H349.175V256.395Z" fill="#DBDBDB"/>
<path d="M349.175 262.667H352.707V259.731H349.175V262.667Z" fill="#DBDBDB"/>
<path d="M349.175 268.939H352.707V266.003H349.175V268.939Z" fill="#DBDBDB"/>
<path d="M349.175 275.211H352.707V272.276H349.175V275.211Z" fill="#DBDBDB"/>
<path d="M349.175 281.484H352.707V278.548H349.175V281.484Z" fill="#DBDBDB"/>
<path d="M344.115 243.858H347.646V240.922H344.115V243.858Z" fill="#DBDBDB"/>
<path d="M344.115 250.122H347.646V247.186H344.115V250.122Z" fill="#DBDBDB"/>
<path d="M344.115 256.395H347.646V253.459H344.115V256.395Z" fill="#DBDBDB"/>
<path d="M344.115 262.667H347.646V259.731H344.115V262.667Z" fill="#DBDBDB"/>
<path d="M344.115 268.939H347.646V266.003H344.115V268.939Z" fill="#DBDBDB"/>
<path d="M344.115 275.211H347.646V272.276H344.115V275.211Z" fill="#DBDBDB"/>
<path d="M344.115 281.484H347.646V278.548H344.115V281.484Z" fill="#DBDBDB"/>
<path d="M340.976 236.769H354.253V231.775H340.976V236.769Z" fill="#DBDBDB"/>
<path d="M340.976 231.775H349.395V228.68H340.976V231.775Z" fill="#EBEBEB"/>
<path d="M326.989 284.703H340.982V236.777H326.989V284.703Z" fill="#A6A6A6"/>
<path d="M331.293 278.085H328.42V281.021H331.293V278.085Z" fill="#C7C7C7"/>
<path d="M331.293 271.813H328.42V274.749H331.293V271.813Z" fill="#C7C7C7"/>
<path d="M331.293 265.541H328.42V268.476H331.293V265.541Z" fill="#C7C7C7"/>
<path d="M331.293 259.268H328.42V262.204H331.293V259.268Z" fill="#C7C7C7"/>
<path d="M331.293 252.996H328.42V255.932H331.293V252.996Z" fill="#C7C7C7"/>
<path d="M331.293 246.724H328.42V249.66H331.293V246.724Z" fill="#C7C7C7"/>
<path d="M331.293 240.45H328.42V243.386H331.293V240.45Z" fill="#C7C7C7"/>
<path d="M335.425 278.085H332.551V281.021H335.425V278.085Z" fill="#C7C7C7"/>
<path d="M335.425 271.813H332.551V274.749H335.425V271.813Z" fill="#C7C7C7"/>
<path d="M335.425 265.541H332.551V268.476H335.425V265.541Z" fill="#C7C7C7"/>
<path d="M335.425 259.268H332.551V262.204H335.425V259.268Z" fill="#C7C7C7"/>
<path d="M335.425 252.996H332.551V255.932H335.425V252.996Z" fill="#C7C7C7"/>
<path d="M335.425 246.724H332.551V249.66H335.425V246.724Z" fill="#C7C7C7"/>
<path d="M335.425 240.45H332.551V243.386H335.425V240.45Z" fill="#C7C7C7"/>
<path d="M339.551 278.085H336.677V281.021H339.551V278.085Z" fill="#C7C7C7"/>
<path d="M339.551 271.813H336.677V274.749H339.551V271.813Z" fill="#C7C7C7"/>
<path d="M339.551 265.541H336.677V268.476H339.551V265.541Z" fill="#C7C7C7"/>
<path d="M339.551 259.268H336.677V262.204H339.551V259.268Z" fill="#C7C7C7"/>
<path d="M339.551 252.996H336.677V255.932H339.551V252.996Z" fill="#C7C7C7"/>
<path d="M339.551 246.724H336.677V249.66H339.551V246.724Z" fill="#C7C7C7"/>
<path d="M339.551 240.45H336.677V243.386H339.551V240.45Z" fill="#C7C7C7"/>
<path d="M329.107 236.769H340.976V231.775H329.107V236.769Z" fill="#C7C7C7"/>
<path d="M334.548 231.775H340.982V228.68H334.548V231.775Z" fill="#DBDBDB"/>
<path d="M333.221 102.752H34.8042V126.321H333.221V102.752Z" fill="#FFC727"/>
<path opacity="0.7" d="M333.221 102.752H34.8042V126.321H333.221V102.752Z" fill="white"/>
<path opacity="0.5" d="M333.221 102.752H34.8042V109.438L333.221 106.965V102.752Z" fill="#FFC727"/>
<path d="M336.446 97.7788H31.573V102.759H336.446V97.7788Z" fill="#FFC727"/>
<path d="M87.5957 90.4565H60.3489V97.7719H87.5957V90.4565Z" fill="#C7C7C7"/>
<path d="M68.3232 86.1394H64.4688V90.4567H68.3232V86.1394Z" fill="#C7C7C7"/>
<path d="M83.47 86.1394H79.6155V90.4567H83.47V86.1394Z" fill="#C7C7C7"/>
<path d="M320.774 90.4565H293.528V97.7719H320.774V90.4565Z" fill="#C7C7C7"/>
<path d="M301.502 86.1394H297.647V90.4567H301.502V86.1394Z" fill="#C7C7C7"/>
<path d="M316.655 86.1394H312.8V90.4567H316.655V86.1394Z" fill="#C7C7C7"/>
<path d="M286.996 90.4565H259.749V97.7719H286.996V90.4565Z" fill="#C7C7C7"/>
<path d="M267.723 86.1394H263.869V90.4567H267.723V86.1394Z" fill="#C7C7C7"/>
<path d="M282.87 86.1394H279.016V90.4567H282.87V86.1394Z" fill="#C7C7C7"/>
<path d="M352.435 131.302H15.5837V284.681H352.435V131.302Z" fill="#FFC727"/>
<path opacity="0.7" d="M352.435 131.302H15.5837V284.681H352.435V131.302Z" fill="white"/>
<path opacity="0.5" d="M352.435 262.84H15.5837V284.682H352.435V262.84Z" fill="#FFC727"/>
<path d="M355.661 126.329H12.3525V131.31H355.661V126.329Z" fill="#FFC727"/>
<path opacity="0.5" d="M352.435 131.302H15.5837V137.989L352.435 135.516V131.302Z" fill="#FFC727"/>
<path d="M36.489 145.74H21.7058V171.65H36.489V145.74Z" fill="#37474F"/>
<path d="M52.3743 145.74H37.5911V171.65H52.3743V145.74Z" fill="#37474F"/>
<path d="M68.2598 145.74H53.4766V171.65H68.2598V145.74Z" fill="#37474F"/>
<path d="M88.4148 145.74H73.6316V171.65H88.4148V145.74Z" fill="#37474F"/>
<path d="M104.3 145.74H89.5171V171.65H104.3V145.74Z" fill="#37474F"/>
<path d="M120.186 145.74H105.402V171.65H120.186V145.74Z" fill="#37474F"/>
<path d="M36.489 180.733H21.7058V206.644H36.489V180.733Z" fill="#37474F"/>
<path d="M52.3743 180.733H37.5911V206.644H52.3743V180.733Z" fill="#37474F"/>
<path d="M68.2598 180.733H53.4766V206.644H68.2598V180.733Z" fill="#37474F"/>
<path d="M88.4148 180.733H73.6316V206.644H88.4148V180.733Z" fill="#37474F"/>
<path d="M104.3 180.733H89.5171V206.644H104.3V180.733Z" fill="#37474F"/>
<path d="M120.186 180.733H105.402V206.644H120.186V180.733Z" fill="#37474F"/>
<path d="M36.489 215.722H21.7058V241.633H36.489V215.722Z" fill="#37474F"/>
<path d="M52.3743 215.722H37.5911V241.633H52.3743V215.722Z" fill="#37474F"/>
<path d="M68.2598 215.722H53.4766V241.633H68.2598V215.722Z" fill="#37474F"/>
<path d="M88.4148 215.722H73.6316V241.633H88.4148V215.722Z" fill="#37474F"/>
<path d="M104.3 215.722H89.5171V241.633H104.3V215.722Z" fill="#37474F"/>
<path d="M120.186 215.722H105.402V241.633H120.186V215.722Z" fill="#37474F"/>
<path d="M262.617 145.74H247.833V171.65H262.617V145.74Z" fill="#37474F"/>
<path d="M278.502 145.74H263.719V171.65H278.502V145.74Z" fill="#37474F"/>
<path d="M294.387 145.74H279.604V171.65H294.387V145.74Z" fill="#37474F"/>
<path d="M314.542 145.74H299.759V171.65H314.542V145.74Z" fill="#37474F"/>
<path d="M330.428 145.74H315.645V171.65H330.428V145.74Z" fill="#37474F"/>
<path d="M346.313 145.74H331.53V171.65H346.313V145.74Z" fill="#37474F"/>
<path d="M262.617 180.733H247.833V206.644H262.617V180.733Z" fill="#37474F"/>
<path d="M278.502 180.733H263.719V206.644H278.502V180.733Z" fill="#37474F"/>
<path d="M294.387 180.733H279.604V206.644H294.387V180.733Z" fill="#37474F"/>
<path d="M314.542 180.733H299.759V206.644H314.542V180.733Z" fill="#37474F"/>
<path d="M330.428 180.733H315.645V206.644H330.428V180.733Z" fill="#37474F"/>
<path d="M346.313 180.733H331.53V206.644H346.313V180.733Z" fill="#37474F"/>
<path d="M262.617 215.722H247.833V241.633H262.617V215.722Z" fill="#37474F"/>
<path d="M278.502 215.722H263.719V241.633H278.502V215.722Z" fill="#37474F"/>
<path d="M294.387 215.722H279.604V241.633H294.387V215.722Z" fill="#37474F"/>
<path d="M314.542 215.722H299.759V241.633H314.542V215.722Z" fill="#37474F"/>
<path d="M330.428 215.722H315.645V241.633H330.428V215.722Z" fill="#37474F"/>
<path d="M346.313 215.722H331.53V241.633H346.313V215.722Z" fill="#37474F"/>
<path d="M352.435 174.656H15.5837V177.647H352.435V174.656Z" fill="white"/>
<path d="M352.435 209.643H15.5837V212.634H352.435V209.643Z" fill="white"/>
<path d="M352.435 244.637H15.5837V247.628H352.435V244.637Z" fill="white"/>
<path opacity="0.5" d="M352.435 177.646H15.5837V179.801L352.435 178.724V177.646Z" fill="#FFC727"/>
<path opacity="0.5" d="M352.435 212.635H15.5837V214.79L352.435 213.712V212.635Z" fill="#FFC727"/>
<path opacity="0.5" d="M352.435 247.628H15.5837V249.777L352.435 248.706V247.628Z" fill="#FFC727"/>
<path opacity="0.2" d="M21.7058 167.492L36.489 149.794V157.642L24.7871 171.65H21.7058V167.492ZM39.8761 145.74L37.568 148.503V156.35L46.4137 145.767L39.8761 145.74ZM79.4653 241.633H86.026L104.3 219.756V215.722H101.109L79.4653 241.633ZM105.431 218.437L107.699 215.722H105.431V218.437ZM108.726 206.638H115.287L120.214 200.739V192.885L108.726 206.638ZM252.882 145.74L247.862 151.749V159.596L259.443 145.74H252.882ZM262.646 241.633V239.706L261.036 241.633H262.646ZM263.748 241.633H267.596L278.56 228.543V220.688L263.776 238.386L263.748 241.633ZM282.68 215.722L279.633 219.369V227.223L289.24 215.722H282.68ZM294.416 206.638V201.671L290.267 206.638H294.416ZM299.759 195.275V203.129L314.543 185.431V180.769H311.877L299.759 195.275ZM315.645 184.112L318.455 180.769H315.662L315.645 184.112ZM326.031 171.678L330.434 166.407V158.526L319.47 171.65L326.031 171.678ZM341.114 145.767L331.536 157.234V165.088L346.319 147.39V145.767H341.114ZM339.1 241.66H345.661L346.319 240.873V232.991L339.1 241.66ZM21.7404 182.323V186.253L26.3566 180.762H23.0214L21.7404 182.323ZM33.9155 171.678L36.5236 168.556V164.625L30.5977 171.65L33.9155 171.678ZM52.2762 145.767L37.6257 163.306V167.236L52.4089 149.539V145.767H52.2762ZM53.5111 145.767V148.219L55.5595 145.767H53.5111ZM247.868 190.992V194.923L259.697 180.762H256.414L247.868 190.992ZM267.285 171.65L278.537 158.18V154.25L263.967 171.65H267.285ZM285.645 145.74L279.604 152.93V156.861L288.9 145.74H285.645ZM320.134 241.633L330.462 229.268V225.337L316.851 241.633H320.134ZM338.495 215.722L331.57 224.011V227.942L341.784 215.715L338.495 215.722ZM346.082 206.638H346.348V206.327L346.082 206.638ZM278.502 241.633V237.937L275.415 241.633H278.502ZM279.604 240.548L294.387 222.851V218.92L279.604 236.618V240.548ZM299.759 216.42L300.336 215.729H299.759V216.42ZM307.93 206.638L314.543 198.729V194.791L304.647 206.638H307.93ZM326.285 180.769L315.645 193.507V197.437L329.568 180.769H326.285ZM333.873 171.685H337.156L346.313 160.722V156.792L333.873 171.685ZM21.7058 193.203V194.101L32.8307 180.769H32.0806L21.7058 193.203ZM61.3297 145.767L39.6857 171.65H40.4358L52.3743 157.358L53.4764 156.039L62.0798 145.74L61.3297 145.767ZM92.3963 241.66L104.3 227.41V226.512L91.6462 241.66H92.3963ZM113.29 215.749L105.402 225.192V226.09L114.058 215.729L113.29 215.749ZM54.5035 241.633L68.2596 225.165V224.287L53.7534 241.654L54.5035 241.633ZM75.3974 215.722L73.6317 217.836V218.761L76.1475 215.749L75.3974 215.722ZM83.7353 206.638L88.4149 201.036V200.11L82.9851 206.611L83.7353 206.638ZM89.5054 198.819V199.717L104.289 182.019V181.121L89.5054 198.819ZM112.2 171.65H112.95L120.174 163.002V162.118L112.2 171.65ZM26.8009 241.633L36.489 230.035V226.104L23.5176 241.633H26.8009ZM45.1616 215.722L37.5911 224.785V228.715L48.4448 215.722H45.1616ZM53.4764 206.638H56.0326L68.2596 192.001V188.07L53.4764 205.768V206.638ZM74.376 180.769L73.6201 181.674V185.604L77.6593 180.769H74.376ZM85.2471 171.685L88.4033 167.906V163.976L81.9754 171.65L85.2471 171.685ZM103.608 145.774L89.5054 162.657V166.587L104.289 148.896V145.774H103.608ZM105.391 145.774V147.577L106.897 145.774H105.391ZM97.0528 241.633L104.3 232.957V229.026L93.7696 241.633H97.0528ZM115.414 215.722L105.402 227.741V231.672L118.674 215.784L115.414 215.722ZM115.489 241.633H116.239L120.186 236.908V236.031L115.489 241.633ZM256.327 241.633L262.617 234.103V233.205L255.56 241.633H256.327ZM277.221 215.722L263.719 231.886V232.784L277.971 215.722H277.221ZM285.565 206.638L294.393 196.069V195.171L284.815 206.638H285.565ZM306.453 180.734L299.759 188.74V189.638L307.197 180.769L306.453 180.734ZM314.531 171.65V171.043L314.023 171.65H314.531ZM315.633 170.621L330.416 152.93V152.032L315.645 169.716L315.633 170.621ZM335.673 145.753L331.518 150.727V151.625L336.423 145.753H335.673ZM315.645 227.838L314.543 229.157L304.122 241.633H304.872L314.543 230.055L315.645 228.736L326.533 215.722H325.783L315.645 227.838ZM333.353 206.638H334.103L346.313 192.021V191.13L333.353 206.638ZM335.263 241.633H336.013L346.313 229.302V228.432L335.263 241.633Z" fill="white"/>
<path opacity="0.5" d="M123.919 284.702H125.939V102.752H121.709L123.919 284.702Z" fill="#FFC727"/>
<path opacity="0.5" d="M244.1 284.702H242.081V102.752H246.31L244.1 284.702Z" fill="#FFC727"/>
<path d="M224.505 28.7432H143.509V48.1125H224.505V28.7432Z" fill="#FFC727"/>
<path opacity="0.6" d="M224.505 28.7432H143.509V48.1125H224.505V28.7432Z" fill="white"/>
<path opacity="0.5" d="M224.51 28.7432H143.509V35.4299L224.51 32.9569V28.7432Z" fill="#FFC727"/>
<path d="M227.736 23.7693H140.283V28.7498H227.736V23.7693Z" fill="#FFC727"/>
<path d="M242.081 65.2778H125.938V284.682H242.081V65.2778Z" fill="#FFC727"/>
<path opacity="0.7" d="M242.081 65.2778H125.938V284.682H242.081V65.2778Z" fill="white"/>
<path d="M136.677 52.2773H125.938V284.681H136.677V52.2773Z" fill="#FFC727"/>
<path opacity="0.8" d="M136.677 52.2773H125.938V284.681H136.677V52.2773Z" fill="white"/>
<path d="M242.081 52.2773H231.342V284.681H242.081V52.2773Z" fill="#FFC727"/>
<path opacity="0.8" d="M242.081 52.2773H231.342V284.681H242.081V52.2773Z" fill="white"/>
<path d="M231.337 44.2368H136.677V65.2709H231.337V44.2368Z" fill="#FFC727"/>
<path opacity="0.5" d="M229.323 284.682H231.342V65.2778L227.124 72.4688L229.323 284.682Z" fill="#FFC727"/>
<path opacity="0.5" d="M138.696 284.682H136.677V65.2778L140.895 72.4688L138.696 284.682Z" fill="#FFC727"/>
<path d="M231.337 104.051H136.677V107.042H231.337V104.051Z" fill="white"/>
<path opacity="0.5" d="M231.342 107.042H136.677V109.198L231.342 108.12V107.042Z" fill="#FFC727"/>
<path opacity="0.5" d="M231.342 147.224H136.677V149.379L231.342 148.302V147.224Z" fill="#FFC727"/>
<path opacity="0.5" d="M231.342 187.407H136.677V189.562L231.342 188.484V187.407Z" fill="#FFC727"/>
<path d="M231.337 144.234H136.677V147.225H231.337V144.234Z" fill="white"/>
<path d="M160.848 72.4956H146.065V98.4066H160.848V72.4956Z" fill="#37474F"/>
<path d="M181.217 72.4956H166.434V98.4066H181.217V72.4956Z" fill="#37474F"/>
<path d="M201.585 72.4956H186.802V98.4066H201.585V72.4956Z" fill="#37474F"/>
<path d="M221.954 72.4956H207.171V98.4066H221.954V72.4956Z" fill="#37474F"/>
<path d="M160.848 112.685H146.065V138.596H160.848V112.685Z" fill="#37474F"/>
<path d="M181.217 112.685H166.434V138.596H181.217V112.685Z" fill="#37474F"/>
<path d="M201.585 112.685H186.802V138.596H201.585V112.685Z" fill="#37474F"/>
<path d="M221.954 112.685H207.171V138.596H221.954V112.685Z" fill="#37474F"/>
<path d="M160.848 152.869H146.065V178.78H160.848V152.869Z" fill="#37474F"/>
<path d="M181.217 152.869H166.434V178.78H181.217V152.869Z" fill="#37474F"/>
<path d="M201.585 152.869H186.802V178.78H201.585V152.869Z" fill="#37474F"/>
<path d="M221.954 152.869H207.171V178.78H221.954V152.869Z" fill="#37474F"/>
<path d="M160.848 193.044H146.065V218.955H160.848V193.044Z" fill="#37474F"/>
<path d="M181.217 193.044H166.434V218.955H181.217V193.044Z" fill="#37474F"/>
<path d="M201.585 193.044H186.802V218.955H201.585V193.044Z" fill="#37474F"/>
<path d="M221.954 193.044H207.171V218.955H221.954V193.044Z" fill="#37474F"/>
<path opacity="0.5" d="M231.342 187.407H136.677V189.555L231.342 188.484V187.407Z" fill="#FFC727"/>
<path d="M231.337 184.417H136.677V187.408H231.337V184.417Z" fill="white"/>
<path opacity="0.5" d="M231.342 227.589H136.677V229.745L231.342 228.667V227.589Z" fill="#FFC727"/>
<path opacity="0.5" d="M231.342 227.582H136.677V229.738L231.342 228.66V227.582Z" fill="#FFC727"/>
<path d="M231.337 224.59H136.677V227.581H231.337V224.59Z" fill="white"/>
<path d="M202.232 242.82H164.951V284.681H202.232V242.82Z" fill="white"/>
<path d="M182.636 245.577H164.951V284.681H182.636V245.577Z" fill="#37474F"/>
<path d="M202.238 245.577H184.552V284.681H202.238V245.577Z" fill="#37474F"/>
<path d="M164.951 242.82H159.25V284.681H164.951V242.82Z" fill="white"/>
<path d="M211.735 242.821V235.996H156.284V242.821H211.735Z" fill="white"/>
<path d="M207.933 242.82H202.232V284.681H207.933V242.82Z" fill="white"/>
<path d="M159.25 242.82V243.987L207.939 244.409V242.82H159.25Z" fill="#EBEBEB"/>
<g opacity="0.2">
<path d="M176.012 245.576L164.951 258.818V250.971L169.457 245.576H176.012Z" fill="white"/>
<path d="M182.636 269.021V272.945L172.833 284.681H169.555L182.636 269.021Z" fill="white"/>
<path d="M202.232 245.576V249.486L184.552 270.651V266.728L202.22 245.576H202.232Z" fill="white"/>
</g>
<g opacity="0.2">
<path d="M153.612 152.868H160.173L146.065 169.758V161.904L153.612 152.868Z" fill="white"/>
<path d="M166.434 137.519L181.217 119.821V127.675L172.1 138.59H166.434V137.519Z" fill="white"/>
<path d="M187.177 112.685H193.738L186.802 120.988V113.134L187.177 112.685Z" fill="white"/>
<path d="M201.586 95.437V98.4073H199.104L201.586 95.437Z" fill="white"/>
<path d="M191.696 218.954L201.586 207.115V214.962L198.25 218.954H191.696Z" fill="white"/>
<path d="M219.894 193.044L207.171 208.276V200.428L213.339 193.044H219.894Z" fill="white"/>
<path d="M186.802 217.565L201.585 199.868V200.766L186.802 218.463V217.565Z" fill="white"/>
<path d="M208.037 193.044L207.171 194.08V193.182L207.287 193.044H208.037Z" fill="white"/>
<path d="M221.954 175.484V176.382L219.952 178.779H219.202L221.954 175.484Z" fill="white"/>
<path d="M146.065 176.484L160.848 158.787V159.685L146.065 177.383V176.484Z" fill="white"/>
<path d="M166.434 152.868H166.543L166.434 153V152.868Z" fill="white"/>
<path d="M177.72 138.59L181.217 134.404V135.302L178.47 138.59H177.72Z" fill="white"/>
<path d="M199.358 112.685H200.108L186.802 128.614V127.716L199.358 112.685Z" fill="white"/>
<path d="M221.954 85.6353V86.5333L212.035 98.4077H211.285L221.954 85.6353Z" fill="white"/>
<path d="M146.065 131.122L160.848 113.424V114.322L146.065 132.02V131.122Z" fill="white"/>
<path d="M173.392 98.4079L181.217 89.041V89.939L174.142 98.4079H173.392Z" fill="white"/>
<path d="M195.786 72.4951L186.802 83.2505V82.3525L195.036 72.4951H195.786Z" fill="white"/>
<path d="M160.848 77.2285V81.1659L146.446 98.4077H146.065V94.9261L160.848 77.2285Z" fill="white"/>
<path d="M146.065 210.796L160.848 193.098V197.036L146.065 214.733V210.796Z" fill="white"/>
<path d="M194.454 152.868H197.743L186.802 165.966L181.217 172.652L176.099 178.779H172.81L181.217 168.715L186.802 162.028L194.454 152.868Z" fill="white"/>
<path d="M221.954 119.952V123.883L209.67 138.589H207.171V137.65L221.954 119.952Z" fill="white"/>
<path d="M146.272 178.779L160.848 161.33V165.26L149.556 178.779H146.272Z" fill="white"/>
<path d="M167.917 152.868H171.2L166.434 158.574V154.644L167.917 152.868Z" fill="white"/>
<path d="M179.844 138.589L181.217 136.945V138.589H179.844Z" fill="white"/>
<path d="M201.482 112.685H201.585V116.491L186.802 134.189V130.258L201.482 112.685Z" fill="white"/>
<path d="M221.954 88.177V92.1075L216.692 98.4074H213.409L221.954 88.177Z" fill="white"/>
<path d="M156.076 193.044H156.826L146.065 205.927V205.029L156.076 193.044Z" fill="white"/>
<path d="M189.635 152.868H190.386L186.802 157.158L181.217 163.845L168.742 178.779H167.991L189.635 152.868Z" fill="white"/>
<path d="M201.562 138.59L201.586 138.562V138.59H201.562Z" fill="white"/>
<path d="M221.954 114.177V115.075L207.171 132.773V131.875L221.954 114.177Z" fill="white"/>
</g>
<path d="M2.65283 284.681C118.841 284.26 249.178 284.253 365.366 284.681C249.178 285.11 118.841 285.103 2.65283 284.681Z" fill="#263238"/>
</svg>
