<svg width="86" height="79" viewBox="0 0 86 79" fill="none" xmlns="http://www.w3.org/2000/svg">
<path d="M81.1088 36.7571L80.8008 36.7598L80.8365 40.9285L81.1444 40.9259L81.1088 36.7571Z" fill="#1F3A4A"/>
<path d="M81.163 42.3743L80.855 42.377L80.8694 44.0594L81.1774 44.0567L81.163 42.3743Z" fill="#1F3A4A"/>
<path d="M4.31364 71.7321L80.3296 71.082L79.9426 25.829L3.92662 26.4791L4.31364 71.7321Z" fill="#1F3A4A"/>
<path opacity="0.1" d="M4.31364 71.7321L80.3296 71.082L79.9426 25.829L3.92662 26.4791L4.31364 71.7321Z" fill="black"/>
<path opacity="0.1" d="M42.1461 50.8362L3.9261 26.4773L79.9409 25.8254L42.1461 50.8362Z" fill="#263238"/>
<path d="M36.9992 4.59249L3.92639 26.4759L79.9411 25.8241L46.4984 4.51241C45.0768 3.60602 43.4229 3.13119 41.7369 3.1454C40.051 3.15961 38.4053 3.66226 36.9992 4.59249Z" fill="#1F3A4A"/>
<path opacity="0.2" d="M77.1184 25.8501L45.3434 5.59878C44.2714 4.91479 43.024 4.5564 41.7524 4.56702C40.4808 4.57764 39.2396 4.95681 38.1791 5.6586L6.74767 26.449L77.1184 25.8501Z" fill="#263238"/>
<path d="M63.2442 24.0801L73.2075 27.6983L73.2303 30.2645L42.1467 50.8348L10.7138 30.8022L10.6682 25.6697L63.2442 24.0801Z" fill="white"/>
<path d="M63.2442 24.0801L64.7048 29.5902L73.2074 27.6982" fill="#E0E0E0"/>
<path d="M63.2442 24.0801L63.8502 28.5717L73.2074 27.6982" fill="#F0F0F0"/>
<path d="M48.5892 46.5612L80.3294 71.0789L4.31492 71.7275L35.6283 46.6703C37.4639 45.2023 39.7395 44.3935 42.0899 44.3737C44.4403 44.3539 46.7291 45.1243 48.5892 46.5612Z" fill="#1F3A4A"/>
</svg>
