<svg width="78" height="78" viewBox="0 0 78 78" fill="none" xmlns="http://www.w3.org/2000/svg">
<path d="M39 9.75977C37.7209 9.75977 36.4543 10.0117 35.2726 10.5012C34.0908 10.9907 33.0171 11.7082 32.1126 12.6126C31.2081 13.5171 30.4907 14.5908 30.0012 15.7726C29.5117 16.9543 29.2597 18.2209 29.2597 19.5C29.2597 20.7791 29.5117 22.0457 30.0012 23.2274C30.4907 24.4092 31.2081 25.4829 32.1126 26.3874C33.0171 27.2919 34.0908 28.0093 35.2726 28.4988C36.4543 28.9883 37.7209 29.2403 39 29.2403C41.5833 29.2403 44.0607 28.2141 45.8874 26.3874C47.714 24.5608 48.7402 22.0833 48.7402 19.5C48.7402 16.9167 47.714 14.4393 45.8874 12.6126C44.0607 10.786 41.5833 9.75977 39 9.75977ZM60.9375 14.625C58.9981 14.625 57.1381 15.3954 55.7668 16.7668C54.3954 18.1382 53.625 19.9981 53.625 21.9375C53.625 23.8769 54.3954 25.7369 55.7668 27.1082C57.1381 28.4796 58.9981 29.25 60.9375 29.25C62.8769 29.25 64.7369 28.4796 66.1082 27.1082C67.4796 25.7369 68.25 23.8769 68.25 21.9375C68.25 19.9981 67.4796 18.1382 66.1082 16.7668C64.7369 15.3954 62.8769 14.625 60.9375 14.625ZM17.0625 14.625C15.1231 14.625 13.2631 15.3954 11.8918 16.7668C10.5204 18.1382 9.75 19.9981 9.75 21.9375C9.75 23.8769 10.5204 25.7369 11.8918 27.1082C13.2631 28.4796 15.1231 29.25 17.0625 29.25C19.0019 29.25 20.8619 28.4796 22.2332 27.1082C23.6046 25.7369 24.375 23.8769 24.375 21.9375C24.375 19.9981 23.6046 18.1382 22.2332 16.7668C20.8619 15.3954 19.0019 14.625 17.0625 14.625ZM24.375 38.9659C24.384 37.6789 24.9016 36.4477 25.8149 35.5408C26.7281 34.6339 27.963 34.125 29.25 34.125H48.75C50.0429 34.125 51.2829 34.6386 52.1971 35.5529C53.1114 36.4671 53.625 37.7071 53.625 39V53.625C53.6263 55.1594 53.3861 56.6844 52.9132 58.1441C51.8338 61.4528 49.6102 64.2683 46.6416 66.085C43.6731 67.9017 40.1542 68.6007 36.7167 68.0563C33.2792 67.512 30.1484 65.76 27.8864 63.1151C25.6244 60.4701 24.3794 57.1053 24.375 53.625V38.9659ZM19.5 39C19.5 37.2206 19.9729 35.5583 20.8065 34.125H9.75C8.45707 34.125 7.21709 34.6386 6.30285 35.5529C5.38862 36.4671 4.875 37.7071 4.875 39V51.1875C4.87434 53.1829 5.3636 55.1479 6.29983 56.91C7.23606 58.6721 8.59061 60.1773 10.2445 61.2936C11.8985 62.4098 13.8011 63.1029 15.7855 63.312C17.7699 63.521 19.7753 63.2397 21.6255 62.4926C20.2254 59.7448 19.4969 56.7041 19.5 53.6201V39ZM58.5 39V53.625C58.5 56.8181 57.7346 59.8309 56.3745 62.4926C58.2247 63.2397 60.2301 63.521 62.2145 63.312C64.1989 63.1029 66.1015 62.4098 67.7555 61.2936C69.4094 60.1773 70.7639 58.6721 71.7002 56.91C72.6364 55.1479 73.1257 53.1829 73.125 51.1875V39C73.125 37.7071 72.6114 36.4671 71.6971 35.5529C70.7829 34.6386 69.5429 34.125 68.25 34.125H57.1935C58.0223 35.5583 58.5 37.2206 58.5 39Z" fill="#1F3A4A"/>
</svg>
