<svg width="73" height="70" viewBox="0 0 73 70" fill="none" xmlns="http://www.w3.org/2000/svg">
<rect width="73" height="70" rx="8" fill="#1F3A4A"/>
<path d="M49.5833 45.416V49.5827H24.5833V45.416C24.5833 45.416 24.5833 37.0827 37.0833 37.0827C49.5833 37.0827 49.5833 45.416 49.5833 45.416ZM43.3333 26.666C43.3333 25.4299 42.9668 24.2215 42.28 23.1937C41.5933 22.1659 40.6171 21.3648 39.4751 20.8918C38.3331 20.4187 37.0764 20.295 35.864 20.5361C34.6516 20.7773 33.538 21.3725 32.6639 22.2466C31.7898 23.1207 31.1946 24.2343 30.9534 25.4467C30.7123 26.6591 30.836 27.9158 31.3091 29.0578C31.7821 30.1998 32.5832 31.1759 33.611 31.8627C34.6388 32.5495 35.8472 32.916 37.0833 32.916C38.7409 32.916 40.3306 32.2575 41.5028 31.0854C42.6749 29.9133 43.3333 28.3236 43.3333 26.666ZM50 37.2077C51.1388 38.2583 52.0569 39.5253 52.7008 40.9346C53.3446 42.3439 53.7013 43.8674 53.75 45.416V49.5827H60V45.416C60 45.416 60 38.2285 50 37.2077ZM47.5 20.416C46.8705 20.4161 46.2449 20.5145 45.6458 20.7077C46.8647 22.4555 47.5182 24.5351 47.5182 26.666C47.5182 28.7969 46.8647 30.8765 45.6458 32.6244C46.2449 32.8176 46.8705 32.916 47.5 32.916C49.1576 32.916 50.7473 32.2575 51.9194 31.0854C53.0915 29.9133 53.75 28.3236 53.75 26.666C53.75 25.0084 53.0915 23.4187 51.9194 22.2466C50.7473 21.0745 49.1576 20.416 47.5 20.416ZM26.6667 30.8327H20.4167V24.5827H16.25V30.8327H10V34.9994H16.25V41.2494H20.4167V34.9994H26.6667V30.8327Z" fill="white"/>
</svg>
