<svg width="150" height="98" viewBox="0 0 150 98" fill="none" xmlns="http://www.w3.org/2000/svg">
<path d="M75 97.5759C116.421 97.5759 150 95.6154 150 93.1971C150 90.7788 116.421 88.8184 75 88.8184C33.5786 88.8184 0 90.7788 0 93.1971C0 95.6154 33.5786 97.5759 75 97.5759Z" fill="#F5F5F5"/>
<path d="M39.262 27.9035L38.9062 27.7527C39.1859 27.1385 39.3748 26.487 39.467 25.8186L39.8539 25.8611C39.757 26.5671 39.5576 27.2551 39.262 27.9035ZM39.1112 23.4783C38.7513 22.6745 38.1916 21.9762 37.4853 21.4501C36.7791 20.924 35.9498 20.5875 35.0767 20.4728L35.1386 20.0859C36.0751 20.2105 36.9642 20.5727 37.7212 21.1381C38.4782 21.7034 39.0779 22.4532 39.4632 23.3159L39.1112 23.4783Z" fill="#1F3A4A"/>
<path d="M37.0921 31.7944L33.2781 33.5351L33.1079 33.1483C32.847 32.6226 32.6783 32.0561 32.6089 31.4734C32.5721 30.9987 32.6233 30.5214 32.7598 30.0653C33.09 29.1571 33.4775 28.2708 33.9202 27.4118C34.2606 26.7232 34.347 26.1959 34.1794 25.8297C34.1172 25.6677 34.0212 25.5207 33.8978 25.3987C33.7744 25.2766 33.6265 25.1822 33.4638 25.1218C33.084 25.0253 32.6817 25.0764 32.3381 25.2649C32.1174 25.3589 31.9181 25.4969 31.7525 25.6705C31.5869 25.844 31.4584 26.0496 31.375 26.2745C31.2073 26.7258 31.2589 27.3628 31.5297 28.1854L27.4217 29.4696C26.9079 28.1312 26.9079 26.6499 27.4217 25.3114C27.9374 24.022 29.1263 22.9556 30.9881 22.1124C32.4426 21.4471 33.7578 21.2188 34.9298 21.4161C35.648 21.5028 36.3312 21.7749 36.9124 22.2055C37.4936 22.6362 37.9528 23.2106 38.2448 23.8724C38.5059 24.4541 38.6023 25.0964 38.5233 25.7291C38.3365 26.7175 37.9833 27.6671 37.4789 28.5374C37.1398 29.1141 36.9066 29.7469 36.7904 30.4057C36.7741 30.8865 36.8778 31.3638 37.0921 31.7944ZM33.6108 34.595L37.6878 32.7615L39.3241 36.355L35.247 38.1769L33.6108 34.595Z" fill="#1F3A4A"/>
<path d="M27.6692 40.3933L25.7351 43.0237L25.4876 42.8187C25.1104 42.557 24.7796 42.2341 24.5089 41.8632C24.3034 41.554 24.1578 41.2089 24.0796 40.8459C23.9546 40.1027 23.8809 39.3518 23.8591 38.5985C23.8281 37.9989 23.685 37.6082 23.4336 37.438C23.3279 37.3484 23.2039 37.2829 23.0703 37.2461C22.9366 37.2094 22.7966 37.2023 22.6599 37.2253C22.3639 37.3027 22.1091 37.4911 21.9482 37.7514C21.833 37.8987 21.7492 38.068 21.702 38.249C21.6547 38.4299 21.6451 38.6187 21.6736 38.8035C21.8079 39.2981 22.0999 39.7354 22.5052 40.049L20.1843 42.4899C19.3249 41.7731 18.7591 40.7653 18.5945 39.6584C18.4527 38.5907 18.8575 37.411 19.8091 36.119C20.3992 35.2335 21.2433 34.5472 22.2306 34.1501C22.7528 33.9344 23.3222 33.8588 23.8826 33.9307C24.443 34.0026 24.9749 34.2196 25.4257 34.5601C25.8259 34.857 26.1364 35.2585 26.3231 35.7206C26.5714 36.4687 26.6917 37.2533 26.679 38.0415C26.6656 38.5674 26.7469 39.0915 26.9188 39.5887C27.0977 39.9154 27.3558 40.1921 27.6692 40.3933ZM26.3656 43.6271L28.439 40.8111L30.9224 42.6407L28.849 45.4568L26.3656 43.6271Z" fill="#1F3A4A"/>
<path d="M68.845 91.8043C68.5257 91.8046 68.2125 91.7171 67.9396 91.5513C67.6667 91.3855 67.4447 91.1479 67.2978 90.8644C65.7505 87.8627 63.7893 84.3388 60.277 80.5247C60.0748 80.3059 59.9328 80.0382 59.865 79.748C59.7972 79.4578 59.8059 79.155 59.8902 78.8692C61.1938 74.3395 63.2439 68.1466 63.2633 68.0847C63.3288 67.8609 63.4387 67.6526 63.5864 67.4722C63.7342 67.2919 63.9167 67.1431 64.1232 67.0347C64.3297 66.9264 64.5559 66.8608 64.7883 66.8417C65.0206 66.8227 65.2545 66.8506 65.4758 66.9239C65.6972 66.9972 65.9015 67.1143 66.0767 67.2682C66.2518 67.4221 66.3942 67.6097 66.4952 67.8199C66.5963 68.03 66.654 68.2583 66.665 68.4912C66.6759 68.7241 66.6399 68.9568 66.5589 69.1755C66.5396 69.2335 64.7719 74.5678 63.4915 78.904C66.221 82.0521 68.5375 85.5358 70.3846 89.2707C70.5203 89.5359 70.5857 89.8314 70.5745 90.1291C70.5633 90.4268 70.4758 90.7166 70.3206 90.9709C70.1653 91.2251 69.9474 91.4352 69.6877 91.5812C69.428 91.7271 69.1352 91.8039 68.8373 91.8043H68.845Z" fill="#1F3A4A"/>
<path d="M71.7345 93.1965H58.2771L65.41 89.1504L71.3863 89.3825L71.7345 93.1965Z" fill="#263238"/>
<path d="M70.4498 76.8935C76.575 74.9787 80.2538 69.3106 78.6666 64.2334C77.0794 59.1562 70.8272 56.5927 64.702 58.5075C58.5768 60.4223 54.898 66.0905 56.4852 71.1676C58.0724 76.2448 64.3245 78.8083 70.4498 76.8935Z" fill="#263238"/>
<path d="M36.9557 61.3836C36.5552 61.3821 36.1676 61.2421 35.8584 60.9874C35.5493 60.7328 35.3376 60.3791 35.2593 59.9863C35.181 59.5935 35.2409 59.1858 35.4288 58.832C35.6167 58.4783 35.9211 58.2004 36.2904 58.0454C36.591 57.9198 36.855 57.7202 37.0579 57.4653C37.2607 57.2103 37.3959 56.9083 37.4509 56.5871C37.4855 56.2094 37.6432 55.8535 37.8996 55.574C38.1561 55.2945 38.4971 55.1068 38.8705 55.0399C39.3013 54.9519 39.7273 54.8422 40.147 54.7111C42.4988 54.0264 45.4116 53.1638 54.5791 55.74C63.6229 50.6843 63.7273 41.1995 63.7273 40.7895C63.7273 40.3299 63.9091 39.8889 64.2331 39.5627C64.557 39.2366 64.9968 39.0519 65.4564 39.0488C65.9144 39.0488 66.3538 39.2297 66.6791 39.552C67.0044 39.8744 67.1892 40.3122 67.1932 40.7702C67.1932 41.2769 67.1391 53.1831 55.5887 59.144C55.195 59.3481 54.7378 59.3925 54.3122 59.2678C45.5701 56.7457 43.0945 57.4652 41.1334 58.0415L40.5995 58.1963C40.3415 58.8798 39.9461 59.5033 39.4379 60.0282C38.9296 60.5531 38.3192 60.9683 37.6443 61.2483C37.4263 61.3396 37.192 61.3856 36.9557 61.3836Z" fill="#263238"/>
<path d="M57.2366 48.9636C53.9447 35.8814 45.1756 2.13548 73.2779 0.0737444C98.4906 -1.77911 105.407 31.7928 107.09 43.3973C107.932 49.2691 108.389 55.1897 108.459 61.1212C108.491 64.1217 107.474 67.0391 105.584 69.3697C103.694 71.7003 101.05 73.2978 98.1077 73.8862C84.3718 76.679 71.3747 77.0736 62.6172 73.6193C61.467 73.1551 60.4977 72.3313 59.8542 71.2709C59.2107 70.2105 58.9275 68.9704 59.0469 67.7358C59.3834 63.9914 59.3911 57.5161 57.2366 48.9636Z" fill="#1F3A4A"/>
<path opacity="0.1" d="M107.105 43.4047C105.519 32.45 99.2837 2.01525 77.4517 0.0811616C76.2063 -0.045088 74.9515 0.20014 73.8453 0.785945C72.739 1.37175 71.831 2.27191 71.2356 3.37297C70.2608 5.26064 70.2917 7.54673 71.75 9.80961C76.5466 17.2868 88.0234 43.0759 86.2905 57.129C85.5168 63.5231 81.4901 68.629 84.9792 75.8161C89.3896 75.43 93.7734 74.7842 98.1077 73.882C101.05 73.2936 103.695 71.6961 105.584 69.3655C107.474 67.0349 108.491 64.1175 108.459 61.117C108.394 55.1897 107.942 49.273 107.105 43.4047Z" fill="black"/>
<path d="M103.33 61.3039C103.284 61.3039 103.241 61.2861 103.208 61.2542C103.175 61.2224 103.157 61.1792 103.156 61.1337C103.09 55.2098 102.634 49.2968 101.79 43.4329C97.6126 14.5531 86.3678 -0.0492133 69.2589 1.21181C69.236 1.21339 69.213 1.21043 69.1913 1.20311C69.1696 1.19579 69.1495 1.18425 69.1323 1.16915C69.115 1.15406 69.1009 1.1357 69.0908 1.11514C69.0807 1.09458 69.0747 1.07222 69.0732 1.04935C69.071 1.0034 69.0867 0.958398 69.117 0.923781C69.1473 0.889165 69.1898 0.86762 69.2357 0.863672C86.5457 -0.412825 97.9259 14.294 102.115 43.3826C102.958 49.2622 103.415 55.1905 103.484 61.1298C103.484 61.176 103.466 61.2202 103.433 61.2529C103.401 61.2855 103.357 61.3039 103.31 61.3039H103.33Z" fill="#263238"/>
<path d="M103.067 77.8135C109.192 75.8986 112.871 70.2305 111.284 65.1533C109.697 60.0762 103.445 57.5126 97.3194 59.4274C91.1942 61.3423 87.5154 67.0104 89.1026 72.0876C90.6898 77.1647 96.942 79.7283 103.067 77.8135Z" fill="#263238"/>
<path d="M104.127 91.8027C103.807 91.8034 103.494 91.7161 103.221 91.5502C102.948 91.3844 102.726 91.1465 102.579 90.8627C101.032 87.861 99.071 84.3371 95.5548 80.5231C95.3541 80.3032 95.2132 80.0356 95.1455 79.7457C95.0778 79.4559 95.0855 79.1535 95.168 78.8675C96.4754 74.3379 98.5217 68.1449 98.5449 68.083C98.6165 67.8669 98.73 67.667 98.8789 67.4947C99.0278 67.3224 99.2091 67.1811 99.4126 67.079C99.6161 66.9768 99.8377 66.9157 100.065 66.8991C100.292 66.8826 100.52 66.9109 100.736 66.9825C100.952 67.0542 101.152 67.1677 101.325 67.3166C101.497 67.4654 101.638 67.6468 101.74 67.8503C101.842 68.0538 101.904 68.2754 101.92 68.5025C101.937 68.7296 101.908 68.9577 101.837 69.1739C101.817 69.2319 100.053 74.5661 98.7731 78.9023C101.503 82.0494 103.818 85.5334 105.662 89.269C105.798 89.5342 105.863 89.8298 105.852 90.1275C105.841 90.4252 105.754 90.715 105.598 90.9692C105.443 91.2235 105.225 91.4336 104.965 91.5795C104.706 91.7254 104.413 91.8023 104.115 91.8027H104.127Z" fill="#1F3A4A"/>
<path d="M100.483 38.9138C100.095 38.9141 99.7178 38.7844 99.4121 38.5454C99.1064 38.3065 98.8895 37.972 98.796 37.5955C98.7026 37.2189 98.7379 36.8219 98.8964 36.4677C99.0548 36.1135 99.3273 35.8226 99.6704 35.6414C100.003 35.4634 107.558 31.3361 109.677 21.4181C104.649 19.3138 95.5895 14.5598 93.6089 12.1693C93.414 11.9381 93.2809 11.6613 93.2221 11.3647C92.9934 9.93635 93.1264 8.47343 93.6089 7.10973L92.6961 5.34584C92.4847 4.93548 92.4451 4.45797 92.5858 4.01837C92.7265 3.57876 93.0361 3.21307 93.4465 3.00173C93.8569 2.7904 94.3344 2.75073 94.774 2.89146C95.2136 3.03219 95.5793 3.34179 95.7906 3.75215L97.1019 6.28968C97.243 6.55525 97.3123 6.85309 97.3028 7.15368C97.2933 7.45426 97.2054 7.74714 97.0478 8.00328C96.6938 8.71025 96.5437 9.50189 96.6145 10.2894C98.8465 12.3047 107.832 17.0741 112.254 18.7104C112.628 18.8493 112.944 19.1135 113.146 19.4582C113.348 19.8029 113.425 20.207 113.364 20.6019C111.403 33.2779 101.705 38.4999 101.295 38.7166C101.044 38.8476 100.766 38.9154 100.483 38.9138Z" fill="#263238"/>
<path d="M94.9473 11.9298C94.7913 11.929 94.6382 11.8864 94.5043 11.8062C94.3704 11.726 94.2605 11.6113 94.1862 11.474C94.1118 11.3368 94.0757 11.1821 94.0817 11.0261C94.0877 10.8702 94.1355 10.7187 94.2201 10.5875C94.282 10.4947 95.7132 8.33238 97.8949 7.74828C98.0049 7.71882 98.1196 7.71131 98.2324 7.72617C98.3453 7.74104 98.4542 7.778 98.5528 7.83493C98.6514 7.89186 98.7378 7.96765 98.8071 8.05799C98.8764 8.14832 98.9272 8.25141 98.9567 8.36139C98.9862 8.47137 98.9937 8.58607 98.9788 8.69895C98.9639 8.81183 98.927 8.92068 98.87 9.01927C98.8131 9.11787 98.7373 9.20429 98.647 9.2736C98.5567 9.34291 98.4536 9.39374 98.3436 9.4232C96.8234 9.83323 95.6823 11.5198 95.6746 11.5352C95.5958 11.6564 95.4881 11.756 95.3611 11.8249C95.2341 11.8938 95.0918 11.9299 94.9473 11.9298Z" fill="#263238"/>
<path d="M107.016 93.1965H93.5588L100.692 89.1504L106.668 89.3825L107.016 93.1965Z" fill="#263238"/>
<path d="M78.8356 41.3672C83.9258 40.9165 87.7233 36.837 87.3177 32.2554C86.912 27.6738 82.4567 24.325 77.3665 24.7757C72.2763 25.2264 68.4788 29.3059 68.8844 33.8875C69.2901 38.4691 73.7454 41.8179 78.8356 41.3672Z" fill="white"/>
<path d="M77.1065 38.3489C78.4563 37.9644 78.9832 35.6607 78.2832 33.2033C77.5832 30.746 75.9215 29.0657 74.5716 29.4502C73.2217 29.8348 72.6949 32.1385 73.3949 34.5958C74.0948 37.0531 75.7566 38.7334 77.1065 38.3489Z" fill="#263238"/>
<path d="M67.5724 34.6405C73.4134 33.8901 84.9792 30.5905 86.8862 29.2599C85.3854 24.8656 78.3762 21.1058 72.1407 23.2255C66.4893 25.1325 67.5724 34.6405 67.5724 34.6405Z" fill="#263238"/>
<path d="M68.7058 37.4628C75.9586 36.0857 85.3854 33.7725 88.0815 32.291C87.9152 37.0179 86.5342 41.8106 79.1383 43.4313C73.0885 44.7504 68.7058 37.4628 68.7058 37.4628Z" fill="#263238"/>
<path d="M62.7313 42.0071C65.3539 40.2718 65.6996 36.1744 63.5035 32.8552C61.3074 29.5359 57.401 28.2518 54.7784 29.987C52.1558 31.7222 51.8101 35.8197 54.0062 39.1389C56.2023 42.4582 60.1087 43.7423 62.7313 42.0071Z" fill="white"/>
<path d="M58.8845 36.1167C59.3216 38.19 58.9425 39.9191 58.0335 39.9848C57.1245 40.0506 56.0337 38.4144 55.5927 36.341C55.1517 34.2677 55.5347 32.5425 56.4398 32.4728C57.345 32.4032 58.4435 34.0433 58.8845 36.1167Z" fill="#263238"/>
<path d="M51.6934 35.3235C55.6118 35.7838 63.3946 35.2693 64.6866 34.5498C63.7311 30.8248 59.097 26.5698 54.8846 27.1113C51.0861 27.5987 51.6934 35.3235 51.6934 35.3235Z" fill="#263238"/>
<path d="M52.4207 37.7657C57.2907 37.9862 63.6384 37.8624 65.4487 37.1777C65.2823 40.895 64.3075 44.4383 59.3331 44.3803C55.2715 44.3339 52.4207 37.7657 52.4207 37.7657Z" fill="#263238"/>
<path d="M80.4496 20.8844C76.0233 20.9086 71.6943 19.5865 68.0367 17.0936C67.6699 16.816 67.4284 16.4042 67.3653 15.9486C67.3022 15.4931 67.4226 15.0311 67.7001 14.6643C67.9776 14.2976 68.3895 14.0561 68.845 13.993C69.3006 13.9299 69.7626 14.0503 70.1293 14.3278C74.2231 16.9977 79.1899 17.983 83.9929 17.0781C84.2166 17.0357 84.4466 17.0377 84.6695 17.0842C84.8925 17.1306 85.1041 17.2205 85.2923 17.3488C85.4806 17.477 85.6417 17.641 85.7665 17.8315C85.8913 18.022 85.9774 18.2353 86.0198 18.459C86.0622 18.6828 86.0601 18.9127 86.0137 19.1357C85.9673 19.3586 85.8773 19.5703 85.7491 19.7585C85.6209 19.9467 85.4568 20.1078 85.2663 20.2326C85.0758 20.3575 84.8626 20.4435 84.6389 20.4859C83.2579 20.7488 81.8554 20.8822 80.4496 20.8844Z" fill="#263238"/>
<path d="M49.4228 17.8942C49.1451 17.8928 48.8717 17.8249 48.6256 17.6963C48.3794 17.5677 48.1676 17.3821 48.0078 17.1549C47.848 16.9277 47.7449 16.6656 47.7071 16.3905C47.6693 16.1153 47.6979 15.8351 47.7905 15.5733C48.7072 13.0125 50.2352 11.3531 52.324 10.6336C56.107 9.33003 60.1841 11.8637 60.3582 11.972C60.7381 12.2217 61.005 12.6104 61.1016 13.0546C61.1981 13.4989 61.1166 13.9633 60.8746 14.3482C60.6325 14.733 60.2492 15.0076 59.807 15.113C59.3647 15.2184 58.8988 15.1461 58.5092 14.9118C57.7355 14.4205 55.2715 13.2833 53.4419 13.9177C52.3897 14.2852 51.6084 15.2097 51.0552 16.7492C50.9337 17.0846 50.7118 17.3744 50.4197 17.5793C50.1276 17.7841 49.7796 17.8941 49.4228 17.8942Z" fill="#263238"/>
<path d="M63.0968 47.1686C63.0482 47.1685 62.9998 47.1606 62.9537 47.1454C62.8224 47.1084 62.7111 47.0208 62.6444 46.9019C62.5777 46.7829 62.5609 46.6423 62.5978 46.511C62.7515 46.0925 62.9865 45.7086 63.2893 45.3813C63.592 45.0541 63.9565 44.7899 64.3617 44.604C66.3499 43.5789 69.3903 43.7917 73.3784 45.2345C73.4429 45.2578 73.5021 45.2937 73.5527 45.34C73.6032 45.3864 73.6441 45.4423 73.6729 45.5045C73.7016 45.5668 73.7178 45.6341 73.7204 45.7026C73.7229 45.7711 73.7119 45.8395 73.6878 45.9037C73.665 45.9681 73.6295 46.0272 73.5835 46.0777C73.5376 46.1283 73.482 46.1691 73.42 46.1979C73.3581 46.2267 73.2911 46.2429 73.2228 46.2455C73.1546 46.2481 73.0865 46.2371 73.0225 46.2132C68.4465 44.5576 66.0598 44.9135 64.8994 45.5092C64.3199 45.755 63.8592 46.2171 63.6151 46.7973C63.5819 46.9077 63.513 47.0041 63.4192 47.0712C63.3254 47.1384 63.2121 47.1727 63.0968 47.1686Z" fill="#263238"/>
<path d="M46.7152 45.2617C40.6626 45.7995 34.7759 47.5282 29.3936 50.3484C32.3798 49.7836 43.0675 63.0089 45.8139 73.2054C50.8851 71.3293 56.7957 70.049 63.0969 69.0471C59.279 58.5373 52.297 46.6272 46.7152 45.2617Z" fill="#1F3A4A"/>
<path opacity="0.6" d="M46.7152 45.2617C40.6626 45.7995 34.7759 47.5282 29.3936 50.3484C32.3798 49.7836 43.0675 63.0089 45.8139 73.2054C50.8851 71.3293 56.7957 70.049 63.0969 69.0471C59.279 58.5373 52.297 46.6272 46.7152 45.2617Z" fill="white"/>
<path d="M46.7152 45.2627C40.1083 44.5161 29.3819 50.0476 29.3819 50.0476C27.4826 51.2583 27.9971 53.5289 29.0337 54.4921C30.0279 53.0648 41.114 49.3513 45.2801 48.8523C43.2106 46.9337 45.1369 45.5257 46.7152 45.2627Z" fill="#1F3A4A"/>
<path opacity="0.2" d="M46.7152 45.2627C40.1083 44.5161 29.3819 50.0476 29.3819 50.0476C27.4826 51.2583 27.9971 53.5289 29.0337 54.4921C30.0279 53.0648 41.114 49.3513 45.2801 48.8523C43.2106 46.9337 45.1369 45.5257 46.7152 45.2627Z" fill="white"/>
<path d="M36.9595 61.384C36.6715 61.3851 36.3877 61.3151 36.1333 61.1801C35.8789 61.0452 35.6617 60.8495 35.5012 60.6104C34.244 58.6763 35.0293 55.7403 35.1995 55.1679C35.3444 54.7432 35.6481 54.3912 36.0469 54.1855C36.4457 53.9797 36.9086 53.9364 37.3386 54.0644C37.7687 54.1924 38.1325 54.4819 38.3539 54.8722C38.5752 55.2625 38.637 55.7233 38.5261 56.1581C38.2437 57.129 38.1857 58.3707 38.41 58.7111C38.6612 59.0969 38.7488 59.5666 38.6538 60.017C38.5588 60.4675 38.2889 60.8617 37.9033 61.1132C37.6223 61.2947 37.2939 61.3889 36.9595 61.384Z" fill="#263238"/>
</svg>
