<svg width="100" height="100" viewBox="0 0 100 100" fill="none" xmlns="http://www.w3.org/2000/svg">
<circle cx="33.6667" cy="33.6667" r="33.6667" transform="matrix(-1 0 0 1 83.3333 16.666)" fill="#1F3A4A"/>
<circle opacity="0.5" cx="37" cy="37" r="35.992" transform="matrix(-1 0 0 1 86.6667 13.334)" stroke="#1F3A4A" stroke-width="2.01607"/>
<path d="M63.6721 34.0391C64.1683 33.9724 64.6728 34.0059 65.1565 34.1377C65.6401 34.2695 66.094 34.4976 66.4924 34.8086L66.801 34.4131L66.803 34.4141L66.4944 34.8096C67.2985 35.4387 67.8275 36.3697 67.9612 37.3994C68.0947 38.4292 67.8211 39.4697 67.2034 40.292L48.9875 64.4766C48.6282 64.9518 48.1666 65.3356 47.6399 65.5986C47.1133 65.8615 46.5348 65.9967 45.9495 65.9951H45.9456C45.1259 65.9966 44.3265 65.727 43.6682 65.2246H43.6692L43.6204 65.1885L33.5081 57.3057C33.1094 56.9947 32.7741 56.6063 32.5217 56.1621C32.2695 55.718 32.1046 55.2274 32.0383 54.7178C31.9721 54.2081 32.0057 53.6899 32.136 53.1934C32.2663 52.6968 32.4909 52.2311 32.7971 51.8242C33.1033 51.4174 33.485 51.0769 33.9192 50.8213C34.3534 50.5657 34.8323 50.3999 35.3284 50.333C35.8245 50.2662 36.329 50.2991 36.8127 50.4307C37.2962 50.5622 37.7502 50.7899 38.1487 51.1006L44.7024 56.2168L45.2415 56.6377L45.6526 56.0908L61.1409 35.5303C61.4472 35.1235 61.8286 34.7828 62.2629 34.5273C62.6972 34.2719 63.176 34.1057 63.6721 34.0391Z" fill="white" stroke="white" stroke-width="1.34405"/>
<circle cx="34.0794" cy="12.733" r="3.94194" fill="#1F3A4A"/>
<circle cx="20.1311" cy="10.9136" r="2.12258" fill="#1F3A4A"/>
<circle cx="15.886" cy="27.2886" r="2.12258" fill="#1F3A4A"/>
<circle cx="7.69876" cy="48.8174" r="3.03226" fill="#1F3A4A"/>
<circle cx="9.21487" cy="75.8042" r="2.12258" fill="#1F3A4A"/>
<circle cx="18.615" cy="89.4502" r="3.03226" fill="#1F3A4A"/>
<circle cx="38.0215" cy="91.2695" r="1.2129" fill="#1F3A4A"/>
<circle cx="54.0923" cy="94.604" r="2.72903" fill="#1F3A4A"/>
<circle cx="67.7376" cy="90.6631" r="1.81935" fill="#1F3A4A"/>
<circle cx="84.4148" cy="83.688" r="2.72903" fill="#1F3A4A"/>
<circle cx="88.6602" cy="70.9536" r="1.51613" fill="#1F3A4A"/>
<circle cx="94.1182" cy="59.4302" r="1.51613" fill="#1F3A4A"/>
<circle cx="92.6021" cy="36.6885" r="3.03226" fill="#1F3A4A"/>
<circle cx="84.1118" cy="33.0498" r="1.81935" fill="#1F3A4A"/>
<circle cx="70.1633" cy="16.6748" r="1.81935" fill="#1F3A4A"/>
<circle cx="53.1826" cy="5.15334" r="1.81935" fill="#1F3A4A"/>
<circle cx="81.6858" cy="12.4307" r="3.03226" fill="#1F3A4A"/>
</svg>
