<svg width="322" height="274" viewBox="0 0 322 274" fill="none" xmlns="http://www.w3.org/2000/svg">
<path d="M319.167 93.7812H6.66196V121.349H319.167V93.7812Z" fill="#EBEBEB"/>
<path d="M245.994 12.6387H203.197V63.8814H245.994V12.6387Z" fill="white"/>
<path d="M248.243 65.8382V10.6689H201.002V65.8246L248.243 65.8382ZM203.252 12.6663H246.04V63.9091H203.197L203.252 12.6663Z" fill="#EBEBEB"/>
<path d="M206.269 19.919V46.5527H239.625V19.919L206.269 19.919Z" fill="#EBEBEB"/>
<path d="M216.043 23.9354V52.5869H233.132V23.9354H216.043Z" fill="#C7C7C7"/>
<path d="M199.148 65.8369H200.971V10.6812H199.148V65.8369Z" fill="#DBDBDB"/>
<path d="M185.224 12.6387H142.428V63.8814H185.224V12.6387Z" fill="white"/>
<path d="M177.863 15.8633H166.692V57.8623H177.863V15.8633Z" fill="#C7C7C7"/>
<path d="M187.451 65.8382V10.6689H140.202V65.8246L187.451 65.8382ZM142.459 12.6663H185.255V63.9091H142.428L142.459 12.6663Z" fill="#EBEBEB"/>
<path d="M172.371 23.9346H155.282V52.5861H172.371V23.9346Z" fill="#EBEBEB"/>
<path d="M138.379 65.8369H140.202V10.6812H138.379V65.8369Z" fill="#DBDBDB"/>
<path d="M124.462 12.6387H81.666V63.8814H124.462V12.6387Z" fill="white"/>
<path d="M119.715 46.417H96.2339V58.7556H119.715V46.417Z" fill="#EBEBEB"/>
<path d="M126.688 65.8382V10.6689H79.4396V65.8246L126.688 65.8382ZM81.6969 12.6663H124.493V63.9091H81.6659L81.6969 12.6663Z" fill="#EBEBEB"/>
<path d="M111.609 23.9346H94.5196V52.5861H111.609V23.9346Z" fill="#C7C7C7"/>
<path d="M77.6166 65.8369H79.4396L79.4396 10.6812H77.6166L77.6166 65.8369Z" fill="#DBDBDB"/>
<path d="M6.66196 273.686C106.768 273.27 219.061 273.263 319.167 273.686C219.1 274.108 106.768 274.102 6.66196 273.686Z" fill="#263238"/>
<path d="M260.786 174.274C261.041 170.448 261.656 166.647 262.625 162.91C263.533 159.55 264.828 156.093 267.24 153.326C269.451 150.79 272.616 148.765 276.301 148.37C279.846 147.988 283.174 149.379 285.827 151.342C289.116 153.776 291.629 156.993 293.995 160.115C296.585 163.609 298.939 167.232 301.046 170.968C301.116 171.091 300.907 171.193 300.837 171.07C299.01 167.902 296.901 164.866 294.53 161.99C292.369 159.232 289.937 156.645 287.262 154.26C284.826 152.174 281.739 150.217 278.209 150.122C274.68 150.026 271.46 151.751 269.343 154.13C267.015 156.789 265.782 160.109 264.882 163.34C263.95 166.898 263.34 170.515 263.059 174.158C262.369 181.657 262.183 189.155 261.989 196.654C261.88 200.901 261.818 205.148 261.772 209.395C261.772 211.549 261.751 213.701 261.71 215.851C261.803 217.931 261.71 220.014 261.43 222.081C261.345 222.497 260.569 222.456 260.492 222.081C260.205 220.124 260.096 218.15 260.166 216.178C260.135 214.137 260.106 212.092 260.081 210.043C260.042 206.075 260.019 202.108 260.034 198.14C260.057 190.171 260.166 182.182 260.786 174.274Z" fill="#263238"/>
<path d="M272.957 168.596C273.407 166.483 274.222 163.722 275.595 162.079C278.062 159.134 280.722 160.415 278.263 163.681C276.439 166.101 275.254 168.85 274.796 171.725C274.796 171.725 278.946 176.926 283.949 179.489C283.732 177.492 283.088 174.411 283.53 171.445C284.492 165.017 288.922 165.378 287.828 170.484C286.944 174.574 286.587 178.93 286.827 180.812C288.497 181.765 290.292 182.539 292.172 183.116C291.885 182.373 291.582 181.473 291.241 180.389C289.465 174.629 293.84 172.829 293.979 176.074C294.261 178.84 294.83 181.579 295.678 184.254C298.083 184.936 300.069 185.447 301.287 185.822C304.45 186.841 307.28 188.529 309.525 190.737C311.806 188.93 313.7 186.778 315.118 184.384C313.566 183.232 311.169 181.507 307.818 179.428C301.527 175.529 303.715 170.607 308.702 173.668C312.302 175.876 315.087 179.973 316.359 182.073C318.058 178.411 319.021 174.517 319.206 170.566C314.272 166.476 302.055 160.818 305.739 160.818C309.052 160.818 316.46 165.085 319.182 166.735C319.117 165.613 318.977 164.495 318.764 163.388C314.109 160.709 298.998 156.571 301.403 155.344C304.056 154.028 314.59 158.316 317.786 159.679C317.188 157.858 316.244 156.139 314.994 154.594C308.563 147.027 296.974 144.423 291.916 145.868C288.34 146.884 289.387 154.866 288.619 154.594C274.206 149.508 267.636 153.101 272.957 168.596ZM308.191 167.723C309.207 166.639 313.923 169.823 312.558 171.568C311.193 173.313 306.872 169.107 308.191 167.723ZM283.538 160.906C284.779 161.588 282.949 165.63 281.033 164.41C279.404 163.367 282.289 160.218 283.538 160.92V160.906Z" fill="#FFC727"/>
<path d="M285.423 162.154C286.075 161.03 286.75 159.905 287.487 158.821C288.171 157.75 288.965 156.737 289.86 155.794C289.659 155.576 289.457 155.351 289.247 155.112C289.162 155.024 289.31 154.901 289.403 154.983C289.643 155.228 289.868 155.474 290.101 155.719C290.125 155.729 290.146 155.743 290.164 155.761C290.181 155.778 290.194 155.799 290.202 155.821C291.094 156.755 291.931 157.723 292.73 158.705C294.143 158.991 295.536 159.346 296.904 159.768C298.308 160.184 299.712 160.614 301.077 161.132C301.225 161.18 301.147 161.391 301.007 161.336C299.65 160.805 298.277 160.293 296.865 159.877C295.453 159.462 294.181 159.196 292.831 158.841C293.273 159.387 293.7 159.932 294.119 160.491C296.654 161.198 299.121 162.083 301.496 163.136C303.994 164.179 306.391 165.392 308.78 166.606C308.92 166.674 308.78 166.858 308.656 166.783C306.329 165.556 303.877 164.506 301.411 163.49C299.084 162.543 296.702 161.759 294.375 160.852C300.239 168.903 303.761 178.188 308.47 186.791C308.54 186.913 308.315 187.016 308.252 186.893C306.817 183.88 305.15 180.942 303.598 177.97C302.194 175.311 300.821 172.632 299.417 169.967C299.006 169.189 298.579 168.412 298.153 167.635C298.409 171.937 298.308 176.306 299.107 180.587C299.112 180.603 299.112 180.62 299.108 180.637C299.104 180.653 299.096 180.668 299.085 180.681C299.073 180.694 299.058 180.705 299.041 180.712C299.024 180.72 299.006 180.723 298.987 180.723C298.968 180.723 298.949 180.72 298.932 180.712C298.915 180.705 298.9 180.694 298.889 180.681C298.877 180.668 298.869 180.653 298.865 180.637C298.861 180.62 298.862 180.603 298.866 180.587C298.525 175.993 297.602 171.473 297.641 166.851C297.641 166.851 297.641 166.81 297.641 166.79C296.648 165.031 295.585 163.3 294.437 161.616C292.49 165.638 290.45 169.721 289.542 174.043C289.542 174.173 289.263 174.118 289.31 173.982C290.628 169.653 291.854 165.317 294.228 161.309C292.982 159.486 291.601 157.737 290.093 156.074C289.441 157.144 288.604 158.153 287.867 159.175C287.13 160.198 286.432 161.18 285.764 162.209C284.317 164.383 283.087 166.664 282.088 169.026C282.033 169.155 281.793 169.087 281.855 168.964C283.003 166.681 284.143 164.377 285.423 162.154Z" fill="#263238"/>
<path d="M239.159 171.942C242.922 168.623 247.304 164.267 253.122 164.273C258.739 164.273 262.873 168.255 265.247 172.358C267.737 176.646 268.629 181.507 269.327 186.224C270.148 191.879 270.645 197.567 270.816 203.266C270.917 206.429 270.902 209.599 270.816 212.762C270.809 215.978 270.524 219.189 269.963 222.367C269.947 222.483 269.884 222.59 269.784 222.667C269.685 222.745 269.557 222.787 269.424 222.787C269.291 222.787 269.163 222.745 269.064 222.667C268.964 222.59 268.901 222.483 268.885 222.367C268.714 219.702 268.838 217.03 268.885 214.357C268.931 211.685 268.885 209.101 268.745 206.477C268.528 201.167 268.086 195.863 267.372 190.58C266.759 185.972 266.263 181.227 264.696 176.776C263.276 172.733 260.655 168.139 256 166.373C249.678 163.96 243.496 168.364 239.361 172.079C239.237 172.174 239.043 172.038 239.159 171.942Z" fill="#263238"/>
<path d="M219.937 179.36C219.937 180.041 220.015 180.723 220.069 181.364C221.881 180.176 224 179.403 226.236 179.114C231.581 178.617 231.24 182.189 227.671 182.339C225.155 182.368 222.667 182.807 220.333 183.634C221.21 189.831 223.149 194.821 223.436 194.889C228.18 194.651 232.9 194.127 237.562 193.321C236.227 190.833 233.202 187.52 234.746 187.254C236.289 186.988 237.973 189.933 238.826 193.096C242.323 192.515 245.762 191.692 249.112 190.635C246.785 188.849 243.124 186.62 244.512 185.672C245.901 184.725 248.786 187.86 250.516 190.137C252.09 189.573 253.579 188.842 254.953 187.963C251.788 183.873 244.093 183.041 245.071 180.082C246.048 177.124 253.309 181.228 256.551 186.702C260.36 183.232 261.477 178.317 261.074 174.118C257.754 173.777 251.369 174.397 251.835 172.297C252.269 170.307 256.908 170.607 260.686 171.827C260.334 170.166 259.577 168.592 258.467 167.212C254.969 163.265 244.303 168.282 244.303 168.282C244.303 168.282 245.443 158.861 241.37 157.232C239.043 156.291 234.885 156.298 230.735 158.452C233.062 158.616 235.878 159.27 237.011 160.688C238.454 162.502 236.173 163.483 234.723 162.652C233.699 162.058 231.79 160.191 228.346 159.925C226.866 161.014 225.561 162.276 224.468 163.674C224.08 164.158 223.692 164.676 223.343 165.228C225.312 164.45 227.452 164.063 229.611 164.095C231.769 164.127 233.893 164.577 235.832 165.412C240.486 167.457 237.872 171.65 233.893 170.007C229.913 168.364 226.135 166.755 221.9 167.689C220.349 170.825 219.837 174.54 219.875 178.201C221.937 176.875 224.259 175.893 226.725 175.304C231.325 174.247 232.713 176.667 227.664 177.11C224.942 177.394 222.313 178.159 219.937 179.36ZM225.538 172.87C225.22 171.561 228.478 171.186 229.021 172.243C229.479 173.15 225.848 174.179 225.538 172.87ZM253.464 180.123C253.774 179.407 255.962 180.219 255.791 181.112C255.465 182.298 253.146 180.839 253.441 180.123H253.464ZM238.058 184.718C239.648 184.159 242.138 187.636 240.385 188.426C238.632 189.217 236.739 185.181 238.035 184.718H238.058Z" fill="#FFC727"/>
<path d="M224.064 194.18C226.461 190.655 228.835 187.117 231.348 183.661C232.519 182.046 233.745 180.471 235.025 178.923C234.831 178.889 234.637 178.835 234.451 178.801L233.497 178.644C232.76 178.528 232.023 178.433 231.278 178.371C230.534 178.31 229.874 178.276 229.168 178.269C228.416 178.228 227.662 178.262 226.919 178.371C226.833 178.371 226.818 178.262 226.919 178.262C227.694 178.262 228.431 178.208 229.184 178.194C229.936 178.18 230.642 178.194 231.371 178.242C232.101 178.289 232.729 178.337 233.411 178.426C233.784 178.48 234.187 178.535 234.528 178.603C234.754 178.631 234.977 178.672 235.196 178.726C236.499 177.158 237.846 175.62 239.237 174.111C235.088 172.336 230.671 171.097 226.12 170.43C226.042 170.43 226.065 170.314 226.12 170.327C230.742 170.888 235.234 172.087 239.431 173.879C240.207 173.047 240.982 172.229 241.758 171.404C242.534 170.58 243.55 169.598 244.334 168.623C244.388 168.562 244.489 168.623 244.434 168.684C243.353 169.727 242.336 170.819 241.386 171.957C243.1 173.004 244.73 174.155 246.265 175.399C247.863 176.64 249.422 177.928 250.919 179.244C250.981 179.292 250.919 179.373 250.842 179.319C249.345 178.017 247.793 176.769 246.188 175.59C244.582 174.411 242.867 173.32 241.238 172.147L240.121 173.436L239.555 174.083C239.547 174.102 239.533 174.118 239.516 174.131C238.896 174.84 238.275 175.556 237.655 176.278C238.382 177.201 239.003 178.186 239.509 179.217C240.044 180.205 240.517 181.262 240.944 182.271C241.801 184.422 242.47 186.628 242.945 188.869C242.945 188.937 242.844 188.965 242.829 188.869C242.317 186.661 241.585 184.496 240.641 182.4C240.176 181.323 239.648 180.273 239.09 179.223C238.593 178.276 237.996 177.356 237.538 176.394C237.003 177.022 236.468 177.655 235.94 178.289C235.793 178.474 235.646 178.664 235.49 178.848C235.49 178.889 235.49 178.944 235.436 178.944C233.792 180.989 232.225 183.034 230.696 185.127C230.79 185.27 230.861 185.424 230.906 185.584C231.007 185.836 231.1 186.095 231.185 186.354C231.357 186.87 231.496 187.393 231.604 187.922C231.705 188.413 231.782 188.917 231.837 189.421C231.847 189.992 231.896 190.561 231.984 191.126C231.984 191.208 231.852 191.214 231.868 191.126C231.909 190.593 231.865 190.059 231.736 189.537C231.643 188.992 231.534 188.453 231.387 187.915C231.239 187.376 231.108 186.947 230.945 186.477C230.867 186.238 230.774 185.999 230.681 185.761C230.634 185.638 230.565 185.509 230.518 185.372C229.804 186.354 229.098 187.342 228.4 188.338C227.02 190.308 225.654 192.285 224.274 194.255C224.196 194.364 223.994 194.282 224.064 194.18Z" fill="#263238"/>
<path d="M261.035 221.23C261.097 219.232 261.454 217.221 261.702 215.238C261.95 213.254 262.206 211.25 262.478 209.252C262.943 205.408 263.207 201.481 264.238 197.711C264.998 194.431 266.857 191.426 269.575 189.081C270.985 187.842 272.836 187.065 274.819 186.879C276.813 186.829 278.769 187.361 280.381 188.393C282.214 189.58 283.79 191.046 285.035 192.721C286.394 194.378 287.615 196.119 288.689 197.929C288.728 197.998 288.604 198.039 288.565 197.977C286.54 194.955 283.857 192.314 280.668 190.206C279.252 189.179 277.522 188.544 275.696 188.379C274.804 188.367 273.919 188.51 273.091 188.8C272.263 189.091 271.508 189.522 270.871 190.07C268.218 192.115 266.69 195.073 265.774 197.998C264.688 201.461 264.339 205.108 263.804 208.659C263.478 210.773 263.176 212.886 262.858 214.992C262.54 217.099 262.338 219.253 261.834 221.325C261.816 221.416 261.759 221.497 261.675 221.552C261.591 221.606 261.485 221.63 261.382 221.617C261.278 221.605 261.184 221.558 261.119 221.485C261.054 221.413 261.024 221.321 261.035 221.23Z" fill="#263238"/>
<path d="M272.205 205.729C272.91 206.564 273.743 207.309 274.679 207.944C274.307 205.995 273.849 202.532 274.974 200.691C276.712 197.828 278.768 199.26 277.728 201.748C276.697 203.991 276.132 206.378 276.06 208.797C278.422 210.101 280.953 211.152 283.6 211.925C283.32 210.807 283.237 209.658 283.352 208.517C283.701 205.456 286.37 205.511 285.679 208.694C285.417 209.926 285.293 211.177 285.307 212.43C289.153 213.472 293.084 214.251 297.067 214.761C299.103 212.445 300.744 209.88 301.938 207.147C299.099 206.526 293.366 206.383 293.491 204.604C293.654 202.211 299.208 204.052 302.458 205.79C303.203 203.708 303.536 201.529 303.443 199.348C300.891 198.72 298.27 198.338 295.624 198.21C289.79 197.767 290.077 194.863 294.305 194.924C297.408 194.979 301.372 196.656 303.241 197.528C302.023 190.554 295.973 186.083 291.117 185.939C282.956 185.653 285.896 194.576 285.896 194.576C285.896 194.576 280.365 191.168 275.145 191.25C269.924 191.332 266.628 198.905 272.205 205.729ZM294.01 192.824C293.832 191.822 297.47 191.584 297.664 192.872C297.889 194.317 294.189 193.847 294.01 192.824ZM299.867 203.295C299.797 202.614 301.364 202.525 301.721 203.35C301.954 203.888 299.929 203.943 299.859 203.295H299.867ZM280.272 203.909C281.506 204.059 282.204 207.924 280.086 207.849C278.496 207.788 279.225 203.779 280.265 203.909H280.272Z" fill="#FFC727"/>
<path d="M281.971 208.195C282.173 207.718 282.351 207.227 282.53 206.736C282.367 207.234 282.227 207.732 282.119 208.236C282.103 208.359 281.932 208.291 281.971 208.195Z" fill="#263238"/>
<path d="M284.128 201.985C284.508 200.996 284.904 200.015 285.377 199.04C285.609 198.522 285.85 198.01 286.106 197.499C286.295 197.046 286.54 196.611 286.835 196.204C286.582 195.8 286.362 195.381 286.176 194.95C286.176 194.915 286.222 194.881 286.253 194.915C286.852 195.597 287.384 196.323 287.844 197.083C288.068 197.417 288.286 197.765 288.503 198.106C288.964 198.143 289.423 198.205 289.876 198.29L291.342 198.556L292.793 198.849C293.274 198.951 293.754 199.094 294.243 199.156C294.352 199.156 294.305 199.326 294.204 199.292C293.699 199.138 293.18 199.022 292.653 198.944C292.18 198.856 291.714 198.781 291.241 198.719C290.768 198.658 290.287 198.61 289.814 198.569C289.457 198.535 289.092 198.522 288.736 198.488C288.93 198.787 289.131 199.087 289.317 199.394C289.349 199.44 289.377 199.488 289.403 199.537C289.798 199.534 290.191 199.575 290.574 199.66C291.001 199.721 291.42 199.796 291.838 199.878C292.692 200.042 293.537 200.219 294.375 200.424C296.144 200.86 297.889 201.351 299.627 201.855C299.727 201.855 299.665 202.012 299.565 201.985C297.835 201.469 296.074 201.039 294.29 200.696C293.46 200.533 292.622 200.362 291.784 200.205L290.528 199.974C290.198 199.927 289.871 199.863 289.55 199.783C290.45 201.242 291.295 202.721 292.071 204.234C293.762 207.527 295.174 210.915 296.64 214.289C296.679 214.378 296.532 214.432 296.501 214.344C295.112 210.988 293.504 207.706 291.683 204.514C291.358 203.927 291.016 203.348 290.69 202.769C290.69 202.884 290.628 203.007 290.605 203.123C290.52 203.525 290.442 203.921 290.365 204.323C290.209 205.12 290.054 205.925 289.922 206.722C289.533 208.363 289.313 210.031 289.263 211.706C289.263 211.815 289.085 211.808 289.108 211.706C289.248 210.915 289.248 210.083 289.31 209.279C289.372 208.474 289.441 207.602 289.55 206.77C289.659 205.938 289.775 205.155 289.922 204.357C290 203.955 290.078 203.559 290.163 203.157C290.187 202.857 290.274 202.564 290.419 202.291C289.938 201.446 289.465 200.601 288.984 199.762C288.503 198.924 288.068 198.188 287.603 197.404C287.409 197.076 287.192 196.722 286.982 196.408C286.834 196.82 286.655 197.223 286.447 197.615L285.811 198.978C285.346 199.974 284.911 200.989 284.477 201.998C283.856 203.43 283.174 204.902 282.669 206.395C283.15 204.95 283.569 203.43 284.128 201.985Z" fill="#263238"/>
<path d="M282.53 206.737C282.53 206.621 282.608 206.506 282.647 206.39L282.53 206.737Z" fill="#263238"/>
<path d="M247.39 217.344L247.964 228.019L249.445 269.166H281.746L283.22 228.019L283.794 217.344H247.39Z" fill="#455A64"/>
<path d="M247.39 217.344L247.754 224.099L283.391 224.856L283.794 217.344H247.39Z" fill="#37474F"/>
<path d="M245.094 221.658H286.09V213.028H245.094V221.658Z" fill="#455A64"/>
<path d="M279.124 269.165H273.454V273.685H279.124V269.165Z" fill="#455A64"/>
<path d="M279.124 269.165H273.454V271.421H279.124V269.165Z" fill="#37474F"/>
<path d="M257.722 269.165H252.06V273.685H257.722V269.165Z" fill="#455A64"/>
<path d="M257.722 269.165H252.06V271.421H257.722V269.165Z" fill="#37474F"/>
<path d="M76.3601 53.1797C81.4798 70.1471 90.1445 86.5826 96.3192 87.8778C103.797 89.4389 106.877 71.5173 105.837 71.0333C105.062 70.6856 93.5344 59.3968 82.8838 49.6554C73.0478 40.6639 75.0879 48.9805 76.3601 53.1797Z" fill="#D3766A"/>
<path d="M94.0155 86.4865C96.203 89.1587 101.928 89.8608 123.78 89.5541C126.805 89.5132 130.645 70.0918 127.41 69.9963C123.338 69.8668 106.978 70.828 105.837 71.0325C97.32 72.539 91.8357 83.821 94.0155 86.4865Z" fill="#D3766A"/>
<path d="M119.335 89.4857C122.38 90.3395 125.491 91.0024 128.643 91.4695C131.133 91.7285 138.324 92.308 138.922 89.9289C139.333 88.2996 135.152 87.5225 132.204 86.9158C130.653 86.5954 128.612 85.5524 128.884 84.6389C129.365 83.0983 133.368 83.9981 136.059 84.8912C141.272 86.6295 148.416 90.072 150.922 87.5293C151.868 86.5749 150.317 85.3002 148.184 84.1208C151.519 85.3479 155.002 86.2477 156.104 85.2115C156.386 84.9474 156.543 84.5989 156.543 84.2367C156.543 83.8746 156.386 83.526 156.104 83.2619C156.517 83.3591 156.953 83.3462 157.358 83.2248C157.763 83.1034 158.117 82.8791 158.377 82.5802C159.191 81.5304 158.462 80.2693 157.128 79.0559C157.307 79.0103 157.47 78.9278 157.605 78.8151C157.74 78.7024 157.843 78.5629 157.903 78.4083C159.455 75.3202 147.54 68.8305 143.801 68.6055C136.399 68.2779 128.978 68.7356 121.701 69.9689C118.094 73.541 119.327 89.4789 119.335 89.4857Z" fill="#D3766A"/>
<path d="M133.298 78.6471C135.888 78.6271 138.453 79.0918 140.822 80.0105C143.801 81.1762 145.926 82.7373 148.525 84.2506C148.539 84.2587 148.55 84.2716 148.553 84.2863C148.557 84.301 148.554 84.3163 148.544 84.329C148.535 84.3417 148.521 84.3506 148.504 84.3538C148.487 84.357 148.47 84.3542 148.455 84.346C147.214 83.6303 142.149 80.9921 140.861 80.4127C138.521 79.3411 135.935 78.7513 133.298 78.688V78.6471Z" fill="#263238"/>
<path d="M134.531 74.4062C137.473 74.5818 140.386 75.0203 143.227 75.7151C146.291 76.5672 148.897 78.3123 151.449 79.9825C153.001 80.9846 154.49 82.0276 155.964 83.0842C156.026 83.1251 155.964 83.2205 155.894 83.1796C153.303 81.4481 150.65 79.7712 147.935 78.1896C145.428 76.6988 142.61 75.6586 139.643 75.1288C137.944 74.8221 136.23 74.638 134.516 74.4471C134.5 74.4471 134.5 74.4062 134.531 74.4062Z" fill="#263238"/>
<path d="M136.858 70.5215C139.651 70.6169 142.094 70.6919 144.732 71.6122C147.716 72.8007 150.52 74.3121 153.079 76.1114C154.475 77.0521 155.832 78.0269 157.174 79.029C157.236 79.0699 157.174 79.1517 157.097 79.1108C154.046 76.938 150.838 74.9411 147.493 73.1324C145.915 72.2488 144.19 71.5844 142.381 71.1623C140.563 70.8241 138.715 70.6211 136.858 70.5556C136.858 70.5556 136.843 70.5215 136.858 70.5215Z" fill="#263238"/>
<path d="M105.837 71.0322C102.269 72.0479 99.7325 74.2703 97.1649 76.6016C98.7939 73.7249 101.99 71.0868 105.837 71.0322Z" fill="#263238"/>
<path d="M81.0221 67.5483L100.462 63.2469C100.462 63.2469 85.7695 48.8018 80.0835 45.6251C73.6916 42.0463 73.009 45.7069 74.5138 51.8967C76.0187 58.0865 81.0221 67.5483 81.0221 67.5483Z" fill="#FFC727"/>
<path d="M80.6886 64.5214C81.3402 64.2896 87.3831 62.899 88.7018 62.6263C90.0205 62.3536 95.4195 61.1743 96.808 60.9902C96.8181 60.9938 96.8267 60.9999 96.8328 61.0078C96.8389 61.0157 96.8422 61.025 96.8422 61.0345C96.8422 61.0441 96.8389 61.0534 96.8328 61.0613C96.8267 61.0692 96.8181 61.0753 96.808 61.0788C95.4815 61.4879 90.0515 62.6808 88.7095 62.9876C87.3676 63.2943 81.3557 64.5487 80.6731 64.6032C80.6343 64.6305 80.6266 64.5623 80.6886 64.5214Z" fill="#263238"/>
<path opacity="0.1" d="M96.808 64.0533L81.0144 67.5503C81.0144 67.5503 76.0188 58.0885 74.5062 51.8714C73.5288 47.8358 73.4822 44.8705 75.3362 44.291L96.808 64.0533Z" fill="black"/>
<path d="M44.8505 266.2C42.9966 265.607 1.20098 236.382 0.417502 234.378C0.0994581 233.622 32.2994 197.744 32.2994 197.744L57.9601 216.15L37.2485 240.173C37.2485 240.173 47.55 257.651 48.1551 259.942C48.7601 262.232 46.6967 266.793 44.8505 266.2Z" fill="#D3766A"/>
<path d="M41.4067 247.066C41.3289 246.963 41.29 246.895 41.3133 246.868C41.3367 246.841 41.3522 246.936 41.4067 247.066Z" fill="#FFC727"/>
<path d="M44.9358 266.917C43.0586 266.304 0.789811 236.453 0.014095 234.421C-0.288434 233.651 4.31156 227.475 10.6802 221.551L37.9156 240.822C37.9156 240.822 47.7594 258.246 48.3567 260.557C48.954 262.868 46.8053 267.524 44.9358 266.917Z" fill="#FFC727"/>
<path d="M45.6884 265.002C38.7069 259.841 10.1606 239.622 2.84559 235.007C2.79129 234.966 2.76027 235.007 2.84559 235.048C9.60208 240.29 38.3656 260.312 45.6263 265.124C45.7815 265.206 45.828 265.111 45.6884 265.002Z" fill="#263238"/>
<path d="M46.8287 257.304C46.057 256.73 45.158 256.302 44.1886 256.049C43.2192 255.795 42.2005 255.722 41.197 255.832C39.3803 256.011 37.7126 256.8 36.5427 258.034C36.5427 258.075 36.5814 258.129 36.628 258.095C37.9996 257.04 39.7233 256.403 41.5411 256.28C43.3589 256.157 45.1731 256.555 46.7123 257.413C46.8131 257.441 46.883 257.345 46.8287 257.304Z" fill="#263238"/>
<path d="M39.5756 243.016C36.7676 240.971 32.6795 239.533 29.0492 240.33C28.9095 240.33 28.9638 240.535 29.0492 240.555C32.5745 241.163 36.0152 242.102 39.3119 243.357C39.3374 243.372 39.366 243.383 39.3962 243.388C39.4263 243.394 39.4574 243.394 39.4877 243.389C39.5179 243.384 39.5467 243.374 39.5725 243.359C39.5982 243.344 39.6204 243.325 39.6377 243.302C39.655 243.28 39.6671 243.255 39.6734 243.228C39.6797 243.202 39.6799 243.174 39.6741 243.148C39.6684 243.121 39.6567 243.096 39.6398 243.073C39.6229 243.051 39.6011 243.031 39.5756 243.016Z" fill="#263238"/>
<path d="M41.0418 245.314C38.2337 243.269 34.1457 241.83 30.5154 242.628C30.3757 242.628 30.43 242.832 30.5154 242.853C34.0404 243.462 37.481 244.401 40.7781 245.655C40.8295 245.685 40.8927 245.697 40.9538 245.687C41.0149 245.676 41.0689 245.645 41.1039 245.6C41.1389 245.555 41.152 245.499 41.1403 245.446C41.1287 245.392 41.0933 245.345 41.0418 245.314Z" fill="#263238"/>
<path d="M42.5467 247.611C39.7386 245.566 35.6428 244.127 32.0203 244.925C31.8806 244.925 31.9272 245.129 32.0203 245.15C35.5453 245.759 38.9858 246.698 42.283 247.952C42.3344 247.982 42.3976 247.994 42.4587 247.984C42.5198 247.973 42.5738 247.942 42.6088 247.897C42.6438 247.852 42.6569 247.796 42.6452 247.743C42.6336 247.689 42.5982 247.641 42.5467 247.611Z" fill="#263238"/>
<path d="M44.0515 249.9C41.2435 247.855 37.1477 246.424 33.5251 247.221C33.3854 247.221 33.432 247.426 33.5251 247.446C37.0495 248.054 40.4899 248.991 43.7878 250.241C43.8133 250.256 43.8419 250.267 43.8721 250.273C43.9022 250.278 43.9333 250.278 43.9636 250.273C43.9938 250.268 44.0226 250.258 44.0484 250.243C44.0741 250.228 44.0963 250.209 44.1136 250.187C44.1309 250.164 44.1431 250.139 44.1493 250.113C44.1556 250.086 44.1558 250.059 44.1501 250.032C44.1443 250.006 44.1326 249.98 44.1157 249.958C44.0988 249.935 44.077 249.916 44.0515 249.9Z" fill="#263238"/>
<path d="M10.0984 230.344C6.91024 228.108 2.94633 232.457 6.14229 234.7C9.33824 236.943 13.2556 232.587 10.0984 230.344Z" fill="white"/>
<path d="M48.6826 238.524C48.2017 236.479 45.4634 236.213 43.5784 236.677C40.3705 237.518 37.4723 239.089 35.1774 241.23C35.1662 241.238 35.157 241.248 35.1508 241.259C35.1445 241.27 35.1412 241.283 35.1412 241.295C35.1412 241.308 35.1445 241.32 35.1508 241.331C35.157 241.343 35.1662 241.352 35.1774 241.36C35.1462 241.415 35.13 241.476 35.1303 241.538C35.1305 241.599 35.1471 241.66 35.1787 241.715C35.2104 241.77 35.2562 241.817 35.3125 241.854C35.3689 241.891 35.4342 241.915 35.5032 241.926C38.6061 242.123 41.9727 242.676 45.0911 242.021C46.9373 241.639 49.1403 240.474 48.6826 238.524ZM40.3515 241.367C38.8 241.305 37.2486 241.176 35.6972 241.162C37.304 240.232 38.9636 239.374 40.6695 238.592C41.513 238.233 42.3839 237.925 43.2759 237.672C44.6412 237.283 49.3342 237.168 47.1545 240.078C45.9211 241.653 42.2054 241.449 40.3515 241.367Z" fill="#263238"/>
<path d="M27.2806 237.174C29.4448 239.253 32.5632 240.433 35.2937 241.816C35.3567 241.843 35.4258 241.856 35.4955 241.854C35.5652 241.852 35.6335 241.836 35.6948 241.807C35.756 241.778 35.8086 241.736 35.8481 241.686C35.8876 241.635 35.9129 241.577 35.9221 241.516C35.9367 241.517 35.9512 241.514 35.9646 241.509C35.978 241.503 35.9899 241.496 35.9995 241.486C36.0091 241.476 36.0161 241.465 36.0202 241.452C36.0242 241.44 36.0252 241.427 36.0229 241.414C35.4823 238.509 34.0834 235.78 31.9659 233.5C30.7015 232.198 28.2657 231.059 26.5359 232.525C24.8061 233.991 26.0162 235.967 27.2806 237.174ZM26.8695 234.55C26.8695 231.052 30.7093 233.459 31.6013 234.454C32.1689 235.105 32.6872 235.788 33.1528 236.499C34.1224 237.965 34.8361 239.533 35.635 241.073C34.3396 240.323 32.9899 239.676 31.6634 238.967C30.0654 238.135 26.8462 236.472 26.8695 234.55Z" fill="#263238"/>
<path d="M19.0114 212.648L45.5176 231.292C45.5176 231.292 89.3844 185.803 90.9901 178.972C92.8208 171.208 97.9017 110.381 97.7854 107.347C97.638 103.673 93.0303 87.5166 93.0303 87.5166H60.1709C60.1709 87.5166 55.5787 167.063 54.6245 169.504C53.5928 172.176 19.0114 212.648 19.0114 212.648Z" fill="#FFC727"/>
<path d="M48.1086 225.258C43.8732 221.665 27.3504 210.131 25.2948 209.19C25.2482 209.19 25.1862 209.238 25.2172 209.272C26.7143 210.826 40.7703 220.977 48 225.374C48.1086 225.401 48.1784 225.312 48.1086 225.258Z" fill="#263238"/>
<path d="M94.6516 99.4728C94.2142 99.3561 93.7685 99.265 93.3174 99.2001C92.8407 99.0797 92.3762 98.9247 91.9289 98.7365C91.0001 98.3243 90.1475 97.7911 89.4 97.155C88.5551 96.3662 87.8937 95.4399 87.453 94.4282C87.166 93.8488 85.824 90.7471 85.8085 90.7266C85.7929 90.7062 85.6766 90.7266 85.6921 90.7744C85.7852 91.2038 86.7005 93.8761 86.972 94.5441C87.3858 95.7237 88.0784 96.8132 89.0044 97.7413C89.7972 98.4628 90.754 99.0295 91.8125 99.4046C92.2954 99.5772 92.8009 99.6963 93.3174 99.7591C93.7737 99.8509 94.2505 99.8249 94.6904 99.6841C94.768 99.6364 94.7214 99.5 94.6516 99.4728Z" fill="#263238"/>
<path d="M65.5932 88.9268L64.9028 104.899L64.1271 120.871L62.374 152.808C62.0482 158.132 61.7224 163.449 61.3423 168.773C61.3423 169.455 61.2415 170.137 61.1639 170.818C61.1607 170.923 61.1371 171.027 61.0941 171.125C61.0528 171.213 61.0036 171.297 60.9467 171.377L60.6442 171.827C60.427 172.114 60.2098 172.386 59.9926 172.659C59.116 173.756 58.2007 174.82 57.2853 175.883C55.4469 178.01 53.5619 180.096 51.6769 182.182C47.8914 186.354 44.0826 190.503 40.2506 194.63L28.6536 206.934L39.9558 194.405C43.718 190.226 47.488 186.054 51.2037 181.848C53.0654 179.739 54.9116 177.626 56.7423 175.508C57.6577 174.445 58.5575 173.382 59.4263 172.298C59.6435 172.025 59.8529 171.752 60.0546 171.48C60.233 171.2 60.489 170.927 60.4735 170.696C60.5356 170.055 60.5976 169.407 60.6364 168.732C60.9932 163.422 61.288 158.098 61.5983 152.774L63.5143 120.844L64.515 104.885L65.5932 88.9268Z" fill="#263238"/>
<path d="M91.6495 174.732C91.4091 176.695 91.1919 178.141 90.9902 178.972C90.0903 182.81 75.856 198.837 63.5531 212.157L55.09 165.523C56.5949 148.971 60.1477 87.5098 60.1477 87.5098H76.5231L91.6495 174.732Z" fill="#263238"/>
<path d="M137.743 265.295C136.02 266.127 83.4424 274.436 81.2161 273.632C80.3628 273.339 70.9456 228.402 70.9456 228.402L103.596 223.63L110.484 253.174C110.484 253.174 132.204 257.905 134.57 259.01C136.936 260.114 139.472 264.47 137.743 265.295Z" fill="#D3766A"/>
<path d="M119.125 254.939C118.978 254.939 118.9 254.904 118.885 254.87L119.125 254.939Z" fill="#FFC727"/>
<path d="M138.658 265.443C136.897 266.275 83.4657 274.449 81.2084 273.624C80.3474 273.317 78.1055 266.2 77.26 258.081L111.717 252.853C111.717 252.853 133.104 257.877 135.478 258.988C137.851 260.099 140.419 264.605 138.658 265.443Z" fill="#FFC727"/>
<path d="M137.518 263.687C128.527 264.859 92.371 270.354 83.5821 272.112C83.5123 272.112 83.5201 272.174 83.5821 272.167C92.5262 271.172 128.628 265.418 137.541 263.809C137.735 263.775 137.712 263.659 137.518 263.687Z" fill="#263238"/>
<path d="M131.7 257.843C130.701 257.971 129.742 258.28 128.885 258.749C128.028 259.218 127.291 259.838 126.72 260.57C125.688 261.888 125.269 263.502 125.548 265.083C125.548 265.13 125.665 265.083 125.657 265.083C125.655 263.479 126.243 261.917 127.336 260.631C128.428 259.346 129.964 258.406 131.715 257.952C131.732 257.95 131.747 257.943 131.757 257.931C131.767 257.92 131.772 257.905 131.77 257.891C131.768 257.876 131.759 257.863 131.746 257.854C131.733 257.845 131.716 257.841 131.7 257.843Z" fill="#263238"/>
<path d="M114.68 253.215C111.081 253.72 107.148 255.465 105.434 258.382C105.364 258.498 105.55 258.58 105.643 258.512C108.496 256.591 111.572 254.941 114.82 253.59C114.873 253.571 114.916 253.536 114.94 253.49C114.964 253.445 114.968 253.393 114.95 253.345C114.932 253.298 114.894 253.258 114.844 253.233C114.794 253.209 114.736 253.203 114.68 253.215Z" fill="#263238"/>
<path d="M117.636 253.74C114.037 254.244 110.104 255.989 108.39 258.907C108.32 259.023 108.506 259.104 108.599 259.036C111.451 257.115 114.527 255.466 117.776 254.114C117.829 254.096 117.871 254.06 117.896 254.015C117.92 253.969 117.923 253.917 117.905 253.87C117.888 253.822 117.85 253.782 117.8 253.758C117.75 253.734 117.691 253.727 117.636 253.74Z" fill="#263238"/>
<path d="M120.591 254.264C116.992 254.768 113.059 256.514 111.345 259.431C111.275 259.547 111.461 259.629 111.554 259.561C114.407 257.64 117.483 255.99 120.731 254.639C120.784 254.62 120.827 254.584 120.851 254.539C120.875 254.493 120.879 254.442 120.861 254.394C120.843 254.346 120.805 254.306 120.755 254.282C120.705 254.258 120.647 254.252 120.591 254.264Z" fill="#263238"/>
<path d="M123.547 254.789C119.948 255.294 116.015 257.039 114.3 259.957C114.231 260.072 114.417 260.154 114.51 260.086C117.361 258.164 120.437 256.514 123.687 255.164C123.74 255.146 123.782 255.11 123.806 255.064C123.831 255.019 123.834 254.967 123.816 254.919C123.799 254.872 123.761 254.832 123.711 254.808C123.661 254.783 123.602 254.777 123.547 254.789Z" fill="#263238"/>
<path d="M84.3809 264.258C80.3627 264.885 81.4642 270.393 85.4902 269.752C89.5162 269.112 88.4457 263.665 84.3809 264.258Z" fill="white"/>
<path d="M116.891 244.216C114.812 243.173 112.78 244.809 111.934 246.356C110.535 249.03 109.962 251.981 110.274 254.911C110.274 254.979 110.344 254.993 110.399 254.986C110.425 255.044 110.466 255.095 110.519 255.135C110.572 255.175 110.636 255.204 110.704 255.219C110.772 255.233 110.843 255.234 110.912 255.219C110.98 255.205 111.043 255.176 111.097 255.136C113.338 253.193 116.015 251.367 117.52 248.878C118.396 247.42 118.854 245.204 116.891 244.216ZM113.788 251.585C112.71 252.559 111.578 253.487 110.546 254.502C110.813 252.828 111.178 251.167 111.64 249.526C111.874 248.733 112.172 247.957 112.532 247.201C113.098 246.036 116.1 242.866 117.132 246.24C117.737 248.101 115.099 250.419 113.819 251.585H113.788Z" fill="#263238"/>
<path d="M101.633 257.441C104.837 257.386 107.908 256.111 110.887 255.225C110.951 255.201 111.008 255.163 111.052 255.116C111.096 255.069 111.127 255.013 111.143 254.953C111.158 254.893 111.156 254.831 111.139 254.772C111.122 254.712 111.089 254.658 111.042 254.612C111.042 254.571 111.097 254.509 111.042 254.475C108.206 252.91 104.949 252.03 101.602 251.926C99.6549 251.892 97.0717 252.751 97.1958 254.85C97.2657 256.834 99.7247 257.475 101.633 257.441ZM99.1196 255.975C96.1564 253.644 100.725 252.723 102.16 252.798C103.091 252.86 104.017 252.976 104.93 253.146C106.804 253.516 108.655 253.971 110.476 254.509C108.979 254.864 107.528 255.327 106.055 255.736C104.247 256.241 100.71 257.263 99.0808 255.975H99.1196Z" fill="#263238"/>
<path d="M86.491 87.5166C86.491 87.5166 85.63 99.862 81.7514 108.649C81.7514 108.649 76.1585 111.71 75.5457 112.194L108.832 243.992L74.7001 249.827C74.7001 249.827 61.2958 185.98 60.171 181.604C58.3403 174.575 43.8809 114.798 43.2061 111.43C41.8641 104.327 49.3265 87.5166 49.3265 87.5166H86.491Z" fill="#FFC727"/>
<path d="M105.38 237.412C95.9934 238.646 78.0434 241.993 75.8326 242.798C75.786 242.798 75.8326 242.9 75.8326 242.9C78.2295 242.866 100.097 239.055 105.395 237.562C105.406 237.561 105.417 237.559 105.427 237.554C105.437 237.549 105.446 237.543 105.453 237.536C105.46 237.528 105.466 237.519 105.469 237.51C105.473 237.5 105.474 237.49 105.473 237.481C105.472 237.471 105.468 237.461 105.463 237.452C105.458 237.444 105.451 237.436 105.442 237.43C105.434 237.423 105.424 237.418 105.413 237.416C105.402 237.413 105.391 237.412 105.38 237.412Z" fill="#263238"/>
<path d="M53.5385 99.4792C54.2382 99.3914 54.9424 99.3345 55.6485 99.3088C56.3786 99.2325 57.1017 99.1118 57.8127 98.9475C59.1696 98.6487 60.4743 98.1901 61.6913 97.5841C62.869 96.9292 63.84 96.0243 64.5149 94.9528C64.9105 94.387 66.7257 91.3534 66.749 91.333C66.7723 91.3125 66.9662 91.333 66.9429 91.3875C66.4639 92.6519 65.9124 93.8941 65.2906 95.1095C64.6754 96.3595 63.666 97.4286 62.3817 98.1908C61.0583 98.8994 59.5996 99.3914 58.0765 99.6428C57.2947 99.7831 56.5004 99.863 55.7028 99.8814C54.9618 99.9365 54.2156 99.8742 53.4998 99.6973C53.3601 99.6292 53.4299 99.4996 53.5385 99.4792Z" fill="#263238"/>
<path d="M82.566 108.32C79.4529 109.287 76.442 110.492 73.5677 111.92C73.5554 111.924 73.5443 111.931 73.535 111.939C73.5256 111.947 73.5182 111.957 73.5132 111.968C73.5082 111.979 73.5056 111.99 73.5056 112.002C73.5056 112.013 73.5083 112.025 73.5134 112.036C73.5185 112.046 73.5259 112.056 73.5353 112.064C73.5447 112.073 73.5558 112.079 73.5681 112.084C73.5803 112.088 73.5934 112.09 73.6067 112.09C73.6199 112.09 73.633 112.088 73.6452 112.083C76.6783 110.965 79.7656 109.902 82.7211 108.641C82.7601 108.618 82.7887 108.584 82.8021 108.544C82.8155 108.505 82.8127 108.462 82.7943 108.424C82.776 108.386 82.7431 108.355 82.7014 108.336C82.6597 108.317 82.6118 108.312 82.566 108.32Z" fill="#263238"/>
<path d="M83.7139 90.1259C83.7139 90.0372 83.52 90.01 83.52 90.1259C83.4902 93.0868 83.2909 96.0445 82.9227 98.9878C82.7675 100.351 81.4411 107.891 78.7493 107.318C78.2994 107.223 78.0745 106.834 77.9736 106.234C77.9912 105.453 78.1215 104.676 78.3615 103.923C78.6718 102.342 78.9277 100.76 79.1372 99.1515C79.4901 96.1805 79.4901 93.1854 79.1372 90.2145C79.1372 90.1946 79.1282 90.1755 79.1122 90.1615C79.0962 90.1474 79.0745 90.1395 79.0519 90.1395C79.0292 90.1395 79.0075 90.1474 78.9915 90.1615C78.9755 90.1755 78.9665 90.1946 78.9665 90.2145C79.0045 94.3379 78.6881 98.4579 78.0202 102.539C77.6556 104.503 76.4687 107.448 78.8347 107.768C81.2006 108.088 82.8063 103.16 83.1089 101.803C83.8832 97.95 84.0865 94.025 83.7139 90.1259Z" fill="#263238"/>
<path d="M78.8192 107.51C78.5744 108.018 78.3671 108.539 78.1986 109.071C78.0192 109.482 77.9297 109.919 77.9349 110.359C77.9349 110.441 78.0668 110.448 78.1211 110.359C78.4045 109.974 78.619 109.554 78.7572 109.112C78.9666 108.628 79.1916 108.15 79.3855 107.666C79.3933 107.605 79.3766 107.544 79.3384 107.492C79.3001 107.44 79.2426 107.402 79.1757 107.383C79.1089 107.365 79.0368 107.367 78.9717 107.39C78.9067 107.413 78.8528 107.456 78.8192 107.51Z" fill="#263238"/>
<path d="M52.119 87.5166C51.1882 90.6478 50.3168 93.7904 49.5049 96.9444C48.7291 100.101 47.9534 103.27 47.4958 106.488L47.3716 107.688C47.3716 108.09 47.3716 108.485 47.3716 108.881L47.775 111.26L48.799 116.032L51.002 125.575L60.0236 163.58L69.0529 201.543L73.5365 220.549L77.9659 239.568L73.1642 220.617L68.4634 201.652L59.2556 163.682C56.2769 151.009 53.2671 138.337 50.4125 125.644L48.318 116.1L47.3406 111.328L46.9605 108.901C46.9731 108.083 47.0405 107.266 47.1622 106.454C47.6819 103.236 48.5042 100.08 49.3575 96.9103C50.2108 93.7404 51.1261 90.6319 52.119 87.5166Z" fill="#263238"/>
<path d="M77.6945 19.5707C79.6958 18.2823 84.2958 8.87495 75.1113 4.32125C66.0665 -0.157462 55.0203 10.1293 61.6604 17.7301C66.1285 22.836 73.4358 22.3043 77.6945 19.5707Z" fill="#263238"/>
<path d="M94.791 90.7053L93.3249 78.6053C93.3249 78.6053 98.7937 71.1067 96.1796 65.4282C94.8686 62.5583 85.5212 48.3859 80.2696 44.6843C75.3438 41.2009 67.3617 44.0708 64.8251 46.8044C57.5256 54.6575 53.5462 62.2447 48.2325 88.6875L94.791 90.7053Z" fill="#FFC727"/>
<path d="M84.5673 76.1113C82.2223 76.2141 79.889 76.467 77.5858 76.868C76.4455 77.0861 75.3207 77.3452 74.196 77.6247C73.6374 77.7678 73.0712 77.8905 72.5049 78.0132C71.9155 78.1551 71.3085 78.233 70.6975 78.245C70.6432 78.245 70.6432 78.3132 70.6975 78.32C71.2726 78.3655 71.8505 78.3769 72.4273 78.3541C72.9832 78.3153 73.5353 78.2424 74.0796 78.136C75.2432 77.9314 76.4067 77.6724 77.5548 77.4543C79.882 77.018 82.2091 76.5749 84.6061 76.2818C84.6276 76.2739 84.6453 76.2597 84.6563 76.2416C84.6672 76.2235 84.6707 76.2027 84.6662 76.1826C84.6616 76.1625 84.6492 76.1444 84.6312 76.1314C84.6132 76.1184 84.5906 76.1113 84.5673 76.1113Z" fill="#263238"/>
<path d="M90.2456 78.156C88.3225 77.9108 86.3854 77.7606 84.4432 77.7061C83.4736 77.7061 82.5117 77.7061 81.542 77.7538C81.0766 77.7538 80.6112 77.8083 80.1535 77.8424C79.6958 77.8765 79.1373 77.9787 78.6021 78.0128C78.5478 78.0128 78.5478 78.0878 78.6021 78.081C79.083 78.081 79.564 78.1151 80.0449 78.1219H81.4955C82.4651 78.1219 83.4348 78.156 84.4044 78.1628C86.3437 78.1628 88.283 78.2037 90.2068 78.2719C90.3464 78.3128 90.3387 78.156 90.2456 78.156Z" fill="#263238"/>
<path d="M64.158 48.1615C48.3644 58.9118 32.6484 78.9331 35.1074 84.6047C37.8457 90.9172 55.726 79.567 55.8035 78.5377C55.8656 77.7674 64.3364 64.488 70.3947 52.0744C75.9877 40.5947 68.0676 45.4893 64.158 48.1615Z" fill="#D3766A"/>
<path d="M64.8252 67.4331L45.5564 62.5658C45.5564 62.5658 60.7915 48.557 66.5938 45.5235C73.1176 42.1151 73.6606 45.8098 71.923 51.9587C70.1854 58.1075 64.8252 67.4331 64.8252 67.4331Z" fill="#FFC727"/>
<path d="M65.283 64.44C64.6469 64.1878 58.6506 62.6199 57.3397 62.3063C56.0287 61.9927 50.6918 60.6634 49.311 60.4385C49.2987 60.4385 49.2868 60.4428 49.2781 60.4505C49.2694 60.4581 49.2645 60.4685 49.2645 60.4794C49.2645 60.4902 49.2694 60.5006 49.2781 60.5083C49.2868 60.516 49.2987 60.5203 49.311 60.5203C50.6142 60.9702 55.9977 62.3268 57.3242 62.6676C58.6506 63.0085 64.6159 64.44 65.2985 64.5218C65.3218 64.5218 65.3218 64.4536 65.283 64.44Z" fill="#263238"/>
<path d="M62.4748 66.8393C63.2505 66.9756 64.0728 67.1392 64.864 67.3028L64.6856 67.371L67.6256 61.747C68.5021 60.0973 69.72 57.7523 70.6198 56.1367C69.2117 60.0944 67.3154 63.905 64.9648 67.5005L64.895 67.6028C64.1193 67.3574 63.2738 67.112 62.4748 66.8393Z" fill="#263238"/>
<path d="M68.572 60.493C69.2391 59.7299 69.9621 59.0058 70.7362 58.3252C70.5633 58.7974 70.2821 59.2334 69.9098 59.6063C69.5376 59.9791 69.0822 60.2809 68.572 60.493Z" fill="#263238"/>
<path d="M35.9065 85.5994C37.8148 88.4285 44.23 91.7892 65.95 93.2003C68.9676 93.398 74.7544 74.3515 71.543 74.0039C67.5015 73.5608 53.9109 73.2335 52.7551 73.3222C44.1447 74.1879 34.006 82.7704 35.9065 85.5994Z" fill="#D3766A"/>
<path d="M64.1659 74.5357C64.1659 74.5357 72.3962 73.9427 77.9116 73.9563C81.0144 73.9563 86.2583 74.3789 88.5156 75.3197C91.8977 76.6831 105.031 84.2839 103.006 87.1266C101.168 89.6966 90.8273 81.9048 90.8273 81.9048C90.8273 81.9048 102.052 88.9535 99.1895 91.6939C96.3271 94.4343 86.0023 84.2635 86.0023 84.2635C86.0023 84.2635 97.351 91.7621 93.8991 94.1412C91.2849 95.9681 81.317 87.222 81.317 87.222C81.317 87.222 91.0212 93.7049 88.4303 95.6818C85.5679 97.8632 75.7861 90.2964 75.7861 90.2964C68.2306 94.3457 62.7541 93.5549 58.9298 92.5869C57.9757 92.3279 64.1659 74.5357 64.1659 74.5357Z" fill="#D3766A"/>
<path d="M87.1193 79.2195C88.4768 80.0103 89.8498 80.7942 91.1142 81.6872C92.3786 82.5802 93.6198 83.5005 94.7911 84.489C96.3477 85.7557 97.7325 87.1762 98.9179 88.7223C96.5908 86.1182 92.0994 82.8734 90.8272 81.9803C89.555 81.0873 88.3449 80.1534 87.0805 79.2536C87.0495 79.2399 87.0882 79.199 87.1193 79.2195Z" fill="#263238"/>
<path d="M83.3804 83.1865C85.0637 84.2568 86.7703 85.2657 88.3993 86.3973C90.0283 87.5289 91.4323 88.7287 92.9605 89.9489C93.0769 90.0443 92.9605 90.0716 92.8597 89.9489C91.3082 88.7832 89.718 87.8084 88.12 86.6495C86.5221 85.4906 85.0172 84.2909 83.3494 83.1933L83.3804 83.1865Z" fill="#263238"/>
<path d="M79.4786 86.085C82.0971 87.6803 84.5223 89.5077 86.716 91.5385C86.8323 91.6407 86.716 91.6612 86.5764 91.5385C84.2104 89.6911 82.372 88.2323 79.4165 86.1668C79.37 86.1327 79.4243 86.0577 79.4786 86.085Z" fill="#263238"/>
<path d="M75.2585 73.9903C78.8875 73.9081 82.5183 74.0722 86.1186 74.4812C87.0333 74.6014 87.9207 74.8476 88.7482 75.2106C91.1809 76.3071 93.5148 77.5651 95.7297 78.9735C97.7466 80.3369 105.814 85.1769 102.804 87.6242C100.694 88.8512 96.3658 86.0358 94.698 84.8565L94.9074 84.6452C96.6528 86.2403 98.8481 87.8355 99.616 89.9965C98.7472 87.8628 96.4744 86.4039 94.698 84.8565L94.9074 84.6452C96.4589 85.7086 100.578 88.2104 102.478 87.2833C104.883 85.2383 97.1105 80.5482 95.4039 79.3621C92.495 77.6715 89.5085 75.5037 86.0953 74.8288C82.5068 74.3485 78.8873 74.0684 75.2585 73.9903Z" fill="#263238"/>
<path d="M68.9443 73.7664C66.9507 73.7664 64.9648 73.6778 62.9712 73.6301C60.9777 73.5823 58.9996 73.5005 57.0137 73.5005C55.043 73.4031 53.0662 73.5153 51.1261 73.8346C49.1784 74.1668 47.254 74.597 45.3625 75.123C47.1824 74.3907 49.0788 73.8153 51.0252 73.4051C52.9924 73.0212 55.008 72.8631 57.0215 72.9347C59.0228 72.9825 61.0164 73.0574 63.0023 73.2006C64.9881 73.3438 66.9739 73.5142 68.9443 73.7664Z" fill="#263238"/>
<path d="M71.5041 45.0597C71.6205 45.8368 83.1398 58.7685 85.8393 58.9116C87.3442 58.9934 81.0609 45.9595 81.0609 45.9595L83.5975 39.2039L74.351 32.8438C74.351 32.8438 71.4576 44.7529 71.5041 45.0597Z" fill="#D3766A"/>
<path d="M73.2883 37.2542C73.8903 39.0386 74.9033 40.6953 76.2645 42.1213C77.6256 43.5473 79.3057 44.7121 81.2006 45.5436L83.5976 39.1629L74.3511 32.8027L73.2883 37.2542Z" fill="#263238"/>
<path d="M94.7524 29.1695C95.5281 40.7992 87.7167 42.5375 84.862 42.6875C82.2711 42.8238 73.428 42.9942 71.256 31.5009C69.084 20.0076 74.9872 15.9924 80.8981 15.4402C86.8091 14.8881 93.9457 17.533 94.7524 29.1695Z" fill="#D3766A"/>
<path d="M91.9519 27.0294C91.6492 26.9932 91.3488 26.9432 91.0521 26.8794C90.7263 26.8679 90.4146 26.7598 90.1678 26.5727C90.1036 26.5007 90.0687 26.4119 90.0687 26.3204C90.0687 26.229 90.1036 26.1402 90.1678 26.0682C90.3157 25.9392 90.4997 25.8467 90.7012 25.8001C90.9028 25.7534 91.1147 25.7542 91.3158 25.8023C91.7397 25.8483 92.1293 26.0304 92.4096 26.3136C92.4683 26.3834 92.5029 26.4665 92.5091 26.5531C92.5152 26.6397 92.4928 26.7261 92.4444 26.8017C92.3961 26.8774 92.3238 26.9391 92.2364 26.9795C92.1491 27.0199 92.0502 27.0372 91.9519 27.0294Z" fill="#263238"/>
<path d="M83.1398 27.2812C83.4501 27.2403 83.7294 27.1585 84.0319 27.0971C84.3561 27.0701 84.6613 26.9503 84.9007 26.7563C84.9642 26.6828 84.9986 26.593 84.9986 26.5007C84.9986 26.4083 84.9642 26.3186 84.9007 26.245C84.7466 26.123 84.5584 26.0392 84.3553 26.002C84.1522 25.9649 83.9416 25.9758 83.7449 26.0337C83.3235 26.0965 82.9443 26.296 82.6822 26.5927C82.6261 26.6612 82.5938 26.7425 82.5892 26.8268C82.5846 26.9111 82.608 26.9948 82.6564 27.0676C82.7048 27.1405 82.7763 27.1995 82.8621 27.2374C82.9479 27.2753 83.0444 27.2905 83.1398 27.2812Z" fill="#263238"/>
<path d="M85.1179 30.1846C85.1179 30.1846 85.0481 30.2255 85.0559 30.2596C85.1257 31.0503 85.0559 31.9638 84.2802 32.2637C84.2802 32.2637 84.2802 32.3114 84.2802 32.3046C85.2498 32.141 85.3429 30.9276 85.1179 30.1846Z" fill="#263238"/>
<path d="M84.2726 29.3877C82.8142 29.3877 82.8375 31.9168 84.1873 31.9509C85.537 31.9849 85.4905 29.4218 84.2726 29.3877Z" fill="#263238"/>
<path d="M83.6984 29.5311C83.4424 29.6743 83.1942 29.9333 82.9227 29.9674C82.6512 30.0015 82.2943 29.7288 82.0616 29.4766H82.0151C82.0151 29.9674 82.2245 30.4718 82.8296 30.54C83.4346 30.6082 83.7604 30.1651 83.9001 29.6674C83.8923 29.6061 83.7915 29.4697 83.6984 29.5311Z" fill="#263238"/>
<path d="M90.2843 29.9805C90.2843 29.9805 90.3541 30.0214 90.3541 30.0486C90.3541 30.8462 90.4472 31.7597 91.2617 32.0187V32.0664C90.2532 31.9437 90.1136 30.7303 90.2843 29.9805Z" fill="#263238"/>
<path d="M91.091 29.1491C92.5416 29.0536 92.6424 31.6168 91.3082 31.7054C89.974 31.794 89.8731 29.2377 91.091 29.1491Z" fill="#263238"/>
<path d="M91.7038 29.2993C91.9365 29.4288 92.177 29.6674 92.4795 29.6742C92.782 29.6811 93.0225 29.3947 93.2087 29.1221H93.2552C93.294 29.6129 93.1389 30.1242 92.6036 30.24C92.0684 30.3559 91.7426 29.9333 91.5874 29.4493C91.5486 29.3879 91.6107 29.2516 91.7038 29.2993Z" fill="#263238"/>
<path d="M89.0896 33.9276C89.0896 33.9276 89.2369 35.1138 89.2214 35.6728C89.2214 35.7273 89.0663 35.7478 88.8491 35.7546C88.2998 35.8292 87.7378 35.7695 87.2247 35.5819C86.7115 35.3943 86.2671 35.0861 85.9402 34.6911C85.9014 34.6366 85.9401 34.5821 86.041 34.6161C86.8358 35.1241 87.7966 35.392 88.7793 35.3796C88.8258 35.2228 88.4457 33.3346 88.5466 33.3346C89.038 33.3897 89.5199 33.4973 89.9816 33.655C89.7489 31.1736 89.0663 28.74 88.8724 26.2654C88.8724 26.2455 88.8813 26.2265 88.8973 26.2124C88.9133 26.1983 88.9351 26.1904 88.9577 26.1904C88.9803 26.1904 89.002 26.1983 89.018 26.2124C89.034 26.2265 89.043 26.2455 89.043 26.2654C89.8582 28.854 90.3779 31.5075 90.5944 34.1867C90.641 34.4798 89.3378 34.0299 89.0896 33.9276Z" fill="#263238"/>
<path d="M88.4458 35.6383C88.1056 36.0325 87.6572 36.3445 87.1426 36.5449C86.8554 36.641 86.5422 36.66 86.2427 36.5995C85.5911 36.4563 85.5756 35.9178 85.692 35.4815C85.7547 35.2455 85.8484 35.0168 85.9712 34.7998C86.6727 35.3049 87.54 35.5988 88.4458 35.6383Z" fill="#263238"/>
<path d="M87.1737 36.5722C86.8865 36.6683 86.5733 36.6873 86.2739 36.6268C85.6223 36.4836 85.6067 35.9451 85.7231 35.5088C86.0644 35.521 86.3915 35.6318 86.6538 35.8241C86.9161 36.0164 87.0988 36.2794 87.1737 36.5722Z" fill="#FF9BBC"/>
<path d="M86.2738 17.6891C86.5656 18.6941 86.5089 19.7529 86.1109 20.7294C84.6835 23.3539 81.0997 22.6586 79.9051 23.6948C78.7105 24.731 79.1294 26.6806 78.121 27.6554C76.6782 29.0188 74.7233 28.4734 74.4829 29.3869C74.2424 30.3004 73.5598 33.1771 72.2488 33.5452C70.9378 33.9133 64.9416 14.6896 82.0616 15.3168C82.0616 15.3168 84.3888 14.4715 88.0579 16.0939C92.0839 17.8936 93.8292 23.7357 93.8292 23.7357C93.8292 23.7357 93.7362 23.6539 93.1544 23.1971C92.3321 22.5564 92.0063 21.9565 91.4012 21.5406C90.4549 20.8589 89.9351 21.1316 88.9422 20.4908C87.8641 19.7092 86.9595 18.7593 86.2738 17.6891Z" fill="#263238"/>
<path d="M86.01 16.8516C86.2814 17.6017 86.4507 18.3774 86.5142 19.1625C86.6212 19.9281 86.4926 20.7049 86.1419 21.4121C85.7007 22.0632 85.002 22.5485 84.1793 22.7755C83.3648 23.0413 82.465 23.1163 81.5885 23.4572C81.1346 23.6162 80.7379 23.88 80.4404 24.2206C80.1875 24.5741 80.0161 24.9679 79.9362 25.3795C79.8475 26.1419 79.5169 26.867 78.982 27.4723C78.6893 27.7555 78.3287 27.9782 77.9264 28.1243C77.524 28.2705 77.0898 28.3365 76.6549 28.3176C75.7939 28.3176 74.8397 28.1063 74.002 28.4403C74.8708 28.1676 75.7473 28.4403 76.6549 28.5017C77.121 28.5323 77.5891 28.4738 78.027 28.3303C78.4649 28.1867 78.8622 27.9614 79.1915 27.67C79.7907 27.0399 80.1681 26.27 80.2775 25.4545C80.3544 25.089 80.5097 24.7397 80.7352 24.4252C80.9954 24.1455 81.3354 23.9315 81.7203 23.8048C82.496 23.5117 83.4191 23.4163 84.2802 23.1231C84.718 22.9838 85.1287 22.786 85.4981 22.5369C85.9015 22.2944 86.2252 21.9629 86.4367 21.5757C86.7785 20.8135 86.8751 19.9834 86.7159 19.1761C86.5862 18.3795 86.3492 17.5991 86.01 16.8516Z" fill="#263238"/>
<path d="M86.3436 17.54C86.5099 18.2646 86.7865 18.9663 87.1658 19.626C87.5418 20.3187 88.1405 20.8993 88.8879 21.2962C89.2653 21.4632 89.6602 21.5979 90.067 21.6984C90.4266 21.8044 90.746 21.9954 90.9901 22.2505C91.2142 22.5701 91.4741 22.8693 91.7658 23.1435C92.0763 23.3982 92.4472 23.5891 92.8518 23.7025C92.4936 23.5313 92.1773 23.2996 91.921 23.0208C91.6794 22.7295 91.4691 22.4191 91.2926 22.0937C91.0374 21.7604 90.6678 21.5072 90.2377 21.3711C89.8516 21.2686 89.4776 21.1339 89.1206 20.9689C88.4439 20.6013 87.8857 20.0873 87.4994 19.476C87.0633 18.8551 86.6771 18.2082 86.3436 17.54Z" fill="#263238"/>
<path d="M73.8624 32.1479C73.8624 32.1479 70.8603 28.5759 69.0064 29.5302C67.1524 30.4846 69.4873 35.6655 71.7136 36.3472C71.992 36.4504 72.2913 36.503 72.5935 36.502C72.8956 36.501 73.1945 36.4464 73.472 36.3413C73.7495 36.2362 73.9999 36.083 74.2083 35.8907C74.4167 35.6984 74.5787 35.4711 74.6846 35.2224L73.8624 32.1479Z" fill="#D3766A"/>
<path d="M69.7201 31.0107V31.0653C71.2715 31.5765 72.1403 32.8172 72.7454 34.1124C72.6516 33.9784 72.5259 33.8638 72.3769 33.7765C72.2279 33.6892 72.0592 33.6312 71.8823 33.6066C71.7055 33.582 71.5246 33.5913 71.3522 33.6339C71.1799 33.6765 71.02 33.7514 70.8837 33.8534C70.8449 33.8534 70.8837 33.9352 70.9302 33.9284C71.2024 33.841 71.499 33.8315 71.7777 33.9013C72.0564 33.9711 72.3028 34.1166 72.4816 34.317C72.7843 34.6451 73.0444 35.0017 73.2574 35.3804C73.3349 35.4963 73.5832 35.4281 73.5211 35.285C73.4435 33.5262 71.8378 31.1198 69.7201 31.0107Z" fill="#263238"/>
<path d="M71.5042 45.0537L85.8316 58.9125L81.061 45.9331L86.8013 50.7254L84.924 51.7411L87.4374 53.7862L86.9487 60.9303L76.492 55.395L77.6556 52.7159L73.4977 52.5319L71.5042 45.0537Z" fill="#FFC727"/>
<path opacity="0.5" d="M71.5042 45.0537L85.8316 58.9125L81.061 45.9331L86.8013 50.7254L84.924 51.7411L87.4374 53.7862L86.9487 60.9303L76.492 55.395L77.6556 52.7159L73.4977 52.5319L71.5042 45.0537Z" fill="white"/>
<path d="M128.783 220.336C128.783 191.705 150.022 168.411 176.102 168.411C202.181 168.411 223.42 191.705 223.42 220.336C223.42 248.967 202.181 272.26 176.102 272.26C150.022 272.26 128.783 248.967 128.783 220.336ZM133.523 220.336C133.523 246.669 152.636 268.095 176.125 268.095C199.614 268.095 218.727 246.669 218.727 220.336C218.727 194.002 199.575 172.576 176.102 172.576C152.628 172.576 133.484 194.002 133.484 220.336H133.523Z" fill="#263238"/>
<path d="M130.466 220.336C130.466 194.957 149.254 174.309 172.355 174.309C195.456 174.309 214.243 194.957 214.243 220.336C214.243 245.716 195.463 266.364 172.355 266.364C149.246 266.364 130.466 245.716 130.466 220.336ZM133.856 220.336C133.856 244.08 151.123 263.392 172.347 263.392C193.571 263.392 210.846 244.08 210.846 220.336C210.846 196.593 193.578 177.281 172.347 177.281C151.116 177.281 133.856 196.593 133.856 220.336Z" fill="#C7C7C7"/>
<path d="M167.173 220.336C167.173 224.495 170.214 227.835 173.961 227.835C177.707 227.835 180.756 224.468 180.756 220.336C180.756 216.205 177.715 212.838 173.961 212.838C170.206 212.838 167.173 216.178 167.173 220.336Z" fill="#C7C7C7"/>
<path d="M171.789 227.863C175.537 227.863 178.576 224.494 178.576 220.337C178.576 216.181 175.537 212.812 171.789 212.812C168.04 212.812 165.001 216.181 165.001 220.337C165.001 224.494 168.04 227.863 171.789 227.863Z" fill="#DBDBDB"/>
<path d="M171.789 218.851H110.305V221.823H171.789V218.851Z" fill="#C7C7C7"/>
<path d="M234.172 263.897C234.172 269.302 238.128 273.686 243.007 273.686C247.886 273.686 251.835 269.302 251.835 263.897C251.835 258.491 247.879 254.107 243.007 254.107C238.136 254.107 234.172 258.491 234.172 263.897Z" fill="#C7C7C7"/>
<path d="M240.176 273.686C245.055 273.686 249.011 269.303 249.011 263.897C249.011 258.49 245.055 254.107 240.176 254.107C235.296 254.107 231.34 258.49 231.34 263.897C231.34 269.303 235.296 273.686 240.176 273.686Z" fill="#DBDBDB"/>
<path d="M171.556 175.106H241.51V151.37H171.556V175.106Z" fill="#A6A6A6"/>
<path d="M182.897 232.218H241.51V229.239H182.897C180.348 229.238 177.904 228.347 176.1 226.764C174.297 225.181 173.282 223.033 173.278 220.793V98.6068C173.274 95.5778 171.903 92.6738 169.466 90.532C167.028 88.3901 163.724 87.1852 160.277 87.1816H152.38V90.1538H160.277C162.828 90.1556 165.273 91.0468 167.076 92.6316C168.88 94.2165 169.894 96.3655 169.896 98.6068V220.78C169.896 223.811 171.265 226.718 173.703 228.863C176.141 231.008 179.447 232.215 182.897 232.218Z" fill="#C7C7C7"/>
<path d="M239.819 254.107H243.201V136.924C243.197 134.197 241.962 131.583 239.768 129.655C237.574 127.726 234.599 126.641 231.495 126.638H171.587V129.61H231.495C233.702 129.612 235.818 130.383 237.379 131.754C238.939 133.126 239.817 134.985 239.819 136.924V254.107Z" fill="#C7C7C7"/>
<path d="M141.892 91.5449H162.86V85.6347H141.892V91.5449Z" fill="#263238"/>
<path d="M110.298 170.491H170.067V98.5455H110.298V170.491Z" fill="#263238"/>
<path d="M164.683 77.6927C161.161 94.2783 162.433 117.231 166.397 121.055C171.378 125.827 183.316 106.828 182.625 106.058C182.106 105.465 178.126 89.5746 173.968 78.6675C169.64 67.2969 165.552 73.5889 164.683 77.6927Z" fill="#F7A9A0"/>
<path d="M165.606 119.978C167.778 124.245 175.202 125.315 198.512 127.142C201.739 127.395 209.892 107.871 206.463 107.448C202.15 106.91 183.417 105.069 182.168 105.11C171.634 105.492 163.969 116.76 165.606 119.978Z" fill="#F7A9A0"/>
<path d="M182.168 105.11C177.451 105.792 173.41 108.014 169.888 110.775C172.626 107.326 177.281 104.851 182.168 105.11Z" fill="#263238"/>
<path d="M194.928 126.733C197.875 128.169 200.934 129.419 204.082 130.476C206.587 131.198 213.879 133.1 215.058 130.748C215.834 129.146 211.723 127.585 208.852 126.42C207.301 125.806 205.47 124.327 205.959 123.468C206.82 121.961 210.745 123.618 213.313 125.029C218.285 127.756 224.855 132.63 228.051 130.482C229.254 129.658 227.958 128.062 226.027 126.481C229.184 128.356 232.566 129.889 233.947 129.051C234.722 128.56 234.792 127.851 234.397 127.006C234.797 127.185 235.249 127.255 235.695 127.208C236.142 127.161 236.562 126.998 236.902 126.74C237.988 125.806 237.531 124.368 236.437 122.875C236.635 122.861 236.827 122.806 236.997 122.715C237.167 122.624 237.31 122.499 237.414 122.35C239.741 119.439 228.959 110.57 225.15 109.657C217.581 107.977 209.809 107.102 202.003 107.053C197.403 110.045 194.92 126.726 194.928 126.733Z" fill="#F7A9A0"/>
<path d="M211.909 118.075C214.584 118.527 217.119 119.473 219.348 120.85C222.156 122.602 224.002 124.599 226.329 126.63C226.391 126.685 226.329 126.774 226.236 126.719C225.127 125.751 220.511 122.111 219.309 121.266C217.148 119.73 214.617 118.648 211.909 118.102C211.909 118.102 211.878 118.075 211.909 118.075Z" fill="#263238"/>
<path d="M214.174 113.924C217.17 114.64 220.076 115.622 222.846 116.855C225.817 118.293 228.09 120.57 230.332 122.758C231.682 124.074 232.993 125.41 234.273 126.78C234.327 126.835 234.234 126.923 234.179 126.869C231.909 124.597 229.559 122.397 227.128 120.27C224.897 118.274 222.236 116.686 219.301 115.601C217.618 114.98 215.888 114.476 214.166 113.971C214.112 113.958 214.112 113.917 214.174 113.924Z" fill="#263238"/>
<path d="M217.494 110.331C220.356 110.938 222.862 111.456 225.367 112.895C228.68 114.79 231.829 117.926 232.938 119.03C234.156 120.257 235.327 121.518 236.483 122.793C236.53 122.847 236.429 122.915 236.382 122.868C233.737 120.065 230.886 117.417 227.85 114.94C226.427 113.741 224.802 112.743 223.032 111.981C221.235 111.297 219.374 110.749 217.47 110.345C217.47 110.345 217.478 110.325 217.494 110.331Z" fill="#263238"/>
<path d="M158.826 101.224L179.515 91.6805C179.515 91.6805 176.699 81.6664 174.248 76.3151C171.013 69.2324 167.266 68.6257 163.744 77.4604C161.363 83.3638 158.826 101.224 158.826 101.224Z" fill="#FFC727"/>
<g opacity="0.5">
<path d="M158.826 101.224L179.515 91.6802C179.515 91.6802 176.699 81.6662 174.248 76.3149C171.013 69.2321 167.266 68.6254 163.744 77.4601C161.363 83.3636 158.826 101.224 158.826 101.224Z" fill="white"/>
</g>
<path d="M159.897 98.5315C162.798 96.9568 165.715 95.423 168.717 94.0051C170.211 93.2961 171.721 92.6145 173.247 91.96C174.798 91.2783 176.35 90.7603 177.901 90.0786C177.987 90.0377 178.049 90.1604 177.963 90.1944C176.412 90.808 174.961 91.6124 173.456 92.3009C171.952 92.9894 170.439 93.6643 168.942 94.3937C165.948 95.798 162.945 97.2022 159.99 98.6679C159.874 98.6883 159.812 98.6065 159.897 98.5315Z" fill="#263238"/>
<path d="M166.599 82.9274C165.899 82.6822 165.162 82.5261 164.411 82.4639C165.016 82.8587 165.683 83.1755 166.39 83.4046C167.09 83.6513 167.826 83.8096 168.577 83.875C167.972 83.4781 167.306 83.159 166.599 82.9274ZM176.877 88.7695C176.577 88.1634 176.183 87.5968 175.706 87.0857C175.817 87.7402 176.031 88.378 176.342 88.9808C176.643 89.5888 177.037 90.1576 177.513 90.6714C177.404 90.0143 177.19 89.374 176.877 88.7695ZM164.342 93.3164C163.647 93.5764 162.999 93.9231 162.418 94.3457C163.166 94.2466 163.894 94.0562 164.582 93.7799C165.274 93.5198 165.919 93.1731 166.498 92.7506C165.749 92.8459 165.02 93.0365 164.334 93.3164H164.342Z" fill="white"/>
<path opacity="0.1" d="M176.606 93.0176L158.826 101.198C158.826 101.198 161.394 83.3376 163.744 77.4273C165.544 72.8941 167.414 70.8558 169.237 70.8831L176.606 93.0176Z" fill="black"/>
<path d="M168.701 114.688L173.945 128.24C173.945 128.24 224.258 135.527 235.444 146.523C251.734 162.529 286.059 217.118 286.059 217.118L256.311 235.824C256.311 235.824 213.685 174.649 209.411 169.536C205.137 164.424 142.668 159.386 131.11 151.506C119.552 143.625 127.573 114.694 127.573 114.694L168.701 114.688Z" fill="#F7A9A0"/>
<path d="M321.688 230.268C320.237 231.53 269.032 253.289 266.542 253.03C266.255 253.03 259.561 243.957 259.561 243.957C257.591 240.446 238.779 214.433 238.779 214.433L274.393 196.279L291.148 225.067C291.148 225.067 299.456 224.638 306.864 224.569C311.433 224.522 315.397 224.57 316.46 224.747C319.167 225.285 323.146 229.021 321.688 230.268Z" fill="#EBEBEB"/>
<path d="M250.912 231.64L247.157 226.186C247.157 226.186 262.423 223.521 275.021 217.597C275.021 217.597 269.188 230.372 264.161 231.612C259.134 232.853 250.912 231.64 250.912 231.64Z" fill="#EBEBEB"/>
<path d="M250.912 231.639L247.033 226.287L246.917 226.124C249.384 225.619 251.85 225.06 254.286 224.433C261.725 222.588 268.928 220.075 275.781 216.935L275.386 217.773C273.144 222.218 270.855 226.751 266.992 230.316C265.038 232.252 261.88 232.361 259.142 232.361C256.384 232.349 253.632 232.121 250.92 231.68L250.912 231.639ZM250.912 231.639C253.633 231.965 256.381 232.095 259.127 232.027C261.764 231.905 264.735 231.843 266.573 229.934C270.219 226.39 272.539 221.863 274.672 217.5L275.199 217.916C270.804 219.931 266.231 221.63 261.524 222.995C256.833 224.387 252.045 225.51 247.188 226.356L247.297 226.144L250.912 231.639Z" fill="#DBDBDB"/>
<path d="M282.096 208.476L287.937 217.856C287.937 217.856 276.254 231.489 269.994 234.134C263.734 236.779 256 239.411 256 239.411L250.237 231.639C250.237 231.639 261.004 228.565 266.426 225.041C271.848 221.516 282.096 208.476 282.096 208.476Z" fill="#EBEBEB"/>
<path d="M282.095 208.476L288.084 217.787L288.146 217.869L288.076 217.951C286.02 220.378 283.864 222.723 281.638 225.027C278.209 228.436 274.85 232.028 270.32 234.325C265.666 236.323 260.918 238.047 256.124 239.731L255.83 239.833L255.659 239.602L249.919 231.817L249.663 231.469C253.166 230.467 256.6 229.288 259.949 227.938C263.129 226.615 266.286 225.177 268.722 222.927C273.656 218.49 277.899 213.466 282.095 208.476ZM282.095 208.476C278.093 213.616 273.981 218.701 269.079 223.248C266.635 225.552 263.439 227.127 260.228 228.463C257.006 229.785 253.701 230.946 250.33 231.939L250.524 231.469L256.311 239.227L255.845 239.097C260.616 237.447 265.394 235.736 270.01 233.78C274.408 231.551 277.813 227.986 281.242 224.727C283.507 222.455 285.692 220.135 287.797 217.767V217.931L282.111 208.476H282.095Z" fill="#DBDBDB"/>
<path d="M291.357 224.659C291.357 224.659 299.611 224.387 303.536 224.387C303.536 224.387 298.735 230.91 297.152 233.474C295.57 236.037 295.601 242.09 295.601 242.09L279.458 248.723C279.458 248.723 281.374 239.016 283.422 235.826C285.47 232.635 291.357 224.659 291.357 224.659Z" fill="#EBEBEB"/>
<path d="M291.358 224.658C294.585 224.535 300.666 224.29 303.924 224.181C301.9 227.03 299.859 229.886 297.967 232.79C297.49 233.46 297.117 234.182 296.857 234.938C296.213 237.278 295.902 239.681 295.934 242.089V242.293L295.733 242.375C291.714 244.045 283.616 247.372 279.582 249.001L278.962 249.253C279.635 245.769 280.552 242.324 281.708 238.939C282.747 235.715 285.144 232.981 287.138 230.18C288.526 228.325 289.922 226.485 291.35 224.658H291.358ZM291.358 224.658L287.386 230.316C285.509 233.179 283.197 235.844 282.235 239.089C281.273 242.334 280.435 245.524 279.768 248.776L279.28 248.442C283.29 246.765 291.381 243.438 295.415 241.796L295.205 242.089C295.36 238.857 295.407 235.333 297.4 232.504C299.394 229.675 301.333 226.996 303.358 224.283L303.536 224.569C300.495 224.603 294.391 224.637 291.358 224.658Z" fill="#DBDBDB"/>
<path opacity="0.1" d="M223.063 188.426C216.299 178.882 210.807 171.207 209.411 169.536C205.137 164.417 142.66 159.379 131.102 151.506C119.544 143.632 127.565 114.694 127.565 114.694H168.678L173.922 128.246C173.922 128.246 202.91 132.446 221.776 139.283L223.063 188.426Z" fill="black"/>
<path d="M248.685 260.433C246.746 260.999 189.878 260.679 187.776 259.486C187.52 259.363 187.45 254.836 187.458 248.654V248.531C187.458 244.611 186.682 211.113 186.682 211.113L222.769 210.942L223.917 243.929C223.917 243.929 231.589 246.765 238.268 249.581C242.394 251.305 245.97 252.88 246.8 253.453C248.926 254.98 250.625 259.881 248.685 260.433Z" fill="#F7A9A0"/>
<path d="M223.18 233.69L187.179 233.765C187.179 233.765 184.386 167.123 179.918 165.317C172.401 162.283 143.033 162.815 126.153 152.092C112.446 143.387 123.772 114.688 123.772 114.688H160.06C160.06 114.688 165.032 124.804 165.862 127.871C165.862 127.871 200.963 136.352 213.08 148.029C224.592 159.134 223.18 233.69 223.18 233.69Z" fill="#F7A9A0"/>
<path d="M212.351 254.591C212.351 254.591 217.672 247.774 221.822 246.234C224.407 245.279 227.271 245.074 229.998 245.647C230.828 245.715 245.846 251.782 247.84 253.453C249.833 255.123 251.044 259.82 249.523 260.706C248.003 261.592 188.327 260.706 187.621 260.42C186.915 260.133 186.411 254.966 186.783 254.591C187.156 254.216 212.351 254.591 212.351 254.591Z" fill="#FFC727"/>
<path d="M119.032 125.936C117.729 130.537 113.602 149.379 131.824 157.668C150.045 165.958 175.303 163.844 178.173 165.515C181.043 167.185 181.733 180.321 181.733 180.321C181.733 180.321 203.989 162.87 212.995 161.479C222.001 160.088 246.909 158.875 246.909 158.875C246.909 158.875 241.192 146.789 228.61 140.217C213.165 132.153 173.945 128.24 173.945 128.24L119.032 125.936Z" fill="#FFC727"/>
<path opacity="0.5" d="M119.032 125.936C117.729 130.537 113.602 149.379 131.824 157.668C150.045 165.958 175.303 163.844 178.173 165.515C181.043 167.185 181.733 180.321 181.733 180.321C181.733 180.321 203.989 162.87 212.995 161.479C222.001 160.088 246.909 158.875 246.909 158.875C246.909 158.875 241.192 146.789 228.61 140.217C213.165 132.153 173.945 128.24 173.945 128.24L119.032 125.936Z" fill="white"/>
<path d="M147.47 127.129C147.466 127.183 147.466 127.238 147.47 127.292C147.516 127.238 147.563 127.19 147.602 127.136L147.47 127.129ZM174.093 129.74C173.393 129.491 172.656 129.335 171.905 129.276C172.51 129.671 173.176 129.988 173.883 130.217C174.582 130.465 175.319 130.622 176.071 130.68C175.464 130.288 174.798 129.972 174.093 129.74ZM131.374 126.454L129.745 126.386L130.327 126.604C131.027 126.849 131.764 127.005 132.514 127.067C132.159 126.829 131.777 126.623 131.374 126.454ZM120.514 133.659C120.212 133.05 119.815 132.481 119.335 131.969C119.448 132.624 119.664 133.262 119.979 133.864C120.273 134.475 120.667 135.044 121.15 135.554C121.053 134.901 120.852 134.263 120.553 133.659H120.514ZM157.244 131.751C156.551 132.013 155.904 132.36 155.32 132.78C156.817 132.574 158.224 132.023 159.4 131.185C158.667 131.284 157.954 131.474 157.283 131.751H157.244ZM173.131 144.873C172.844 145.487 172.666 146.135 172.603 146.796C173.489 145.718 174.04 144.457 174.201 143.135C173.765 143.669 173.418 144.254 173.169 144.873H173.131ZM120.878 146.571C120.737 146.903 120.615 147.243 120.514 147.586C120.584 147.723 120.661 147.859 120.739 147.989C121.011 147.594 121.242 147.179 121.429 146.748C121.709 146.133 121.884 145.485 121.949 144.825C121.514 145.362 121.167 145.95 120.917 146.571H120.878ZM148.393 141.213C148.108 141.827 147.928 142.474 147.858 143.135C148.76 142.075 149.324 140.823 149.495 139.508C149.052 140.03 148.695 140.604 148.432 141.213H148.393ZM166.646 154.315C165.95 154.06 165.215 153.895 164.466 153.824C165.074 154.219 165.743 154.538 166.452 154.771C167.152 155.017 167.889 155.173 168.639 155.235C168.042 154.847 167.383 154.537 166.684 154.315H166.646ZM165.094 137.954C164.398 137.7 163.664 137.535 162.914 137.463C164.137 138.248 165.574 138.734 167.08 138.874C166.474 138.482 165.808 138.168 165.102 137.94L165.094 137.954ZM129.884 141.083C129.184 140.837 128.448 140.679 127.697 140.613C128.301 141.015 128.97 141.334 129.683 141.56C130.383 141.806 131.12 141.962 131.87 142.024C131.264 141.627 130.598 141.306 129.892 141.069L129.884 141.083ZM139.55 134.648C139.253 134.038 138.858 133.469 138.379 132.957C138.487 133.613 138.704 134.252 139.022 134.852C139.321 135.461 139.715 136.03 140.194 136.543C140.089 135.883 139.875 135.24 139.558 134.634L139.55 134.648ZM172.363 161.295C172.081 161.91 171.901 162.558 171.827 163.218C172.282 162.685 172.645 162.097 172.906 161.472C173.186 160.857 173.363 160.21 173.433 159.55C172.988 160.08 172.63 160.663 172.37 161.282L172.363 161.295ZM155.514 160.873C155.233 161.488 155.052 162.135 154.979 162.795C155.871 161.72 156.425 160.457 156.585 159.134C156.139 159.662 155.782 160.243 155.522 160.859L155.514 160.873ZM130.49 156.707C130.195 156.099 129.801 155.531 129.318 155.024C129.413 155.604 129.595 156.17 129.861 156.707C130.133 156.851 130.404 157.001 130.691 157.137C130.637 156.98 130.567 156.837 130.497 156.694L130.49 156.707ZM147.284 154.458C146.982 153.851 146.585 153.284 146.105 152.774C146.217 153.429 146.434 154.067 146.749 154.669C147.043 155.278 147.437 155.845 147.92 156.353C147.812 155.694 147.601 155.052 147.292 154.444L147.284 154.458ZM157.702 147.375C157.009 147.636 156.363 147.985 155.786 148.411C156.532 148.315 157.258 148.125 157.942 147.845C158.638 147.585 159.286 147.236 159.866 146.809C159.121 146.905 158.396 147.09 157.709 147.361L157.702 147.375ZM181.532 137.954C180.839 138.214 180.192 138.558 179.608 138.977C181.102 138.769 182.509 138.221 183.688 137.388C182.94 137.477 182.212 137.668 181.532 137.954ZM137.199 147.689C136.506 147.95 135.858 148.296 135.276 148.718C136.022 148.625 136.748 148.437 137.432 148.159C138.127 147.897 138.775 147.548 139.356 147.123C138.611 147.222 137.885 147.412 137.199 147.689ZM214.887 135.295C214.784 135.639 214.717 135.991 214.686 136.345C214.94 136.056 215.161 135.746 215.345 135.418L214.887 135.295ZM191.856 144.403C191.577 145.018 191.4 145.666 191.329 146.325C191.781 145.795 192.142 145.209 192.399 144.587C192.678 143.971 192.856 143.324 192.927 142.665C192.489 143.199 192.136 143.784 191.88 144.403H191.856ZM210.668 160.866C210.473 161.307 210.325 161.764 210.225 162.229C210.373 162.175 210.52 162.12 210.66 162.079C210.87 161.745 211.054 161.399 211.211 161.043C211.49 160.427 211.667 159.78 211.738 159.121C211.295 159.655 210.943 160.243 210.691 160.866H210.668ZM227.733 158.139C227.455 158.755 227.275 159.402 227.198 160.061C227.65 159.53 228.013 158.945 228.276 158.323C228.556 157.708 228.734 157.06 228.804 156.401C228.364 156.93 228.009 157.511 227.749 158.125L227.733 158.139ZM192.05 159.986C191.35 159.739 190.614 159.58 189.863 159.516C190.466 159.915 191.132 160.235 191.841 160.464C192.541 160.709 193.278 160.865 194.028 160.927C193.44 160.526 192.789 160.2 192.097 159.959L192.05 159.986ZM191.119 132.46C190.419 132.212 189.683 132.054 188.932 131.989C190.178 132.774 191.64 133.252 193.167 133.373C192.556 132.979 191.882 132.666 191.166 132.446L191.119 132.46ZM209.838 144.28C209.137 144.034 208.401 143.876 207.65 143.81C208.257 144.207 208.926 144.526 209.636 144.757C210.336 145.003 211.073 145.159 211.823 145.221C211.214 144.829 210.546 144.512 209.838 144.28ZM226.523 142.344C226.226 141.736 225.834 141.167 225.36 140.654C225.467 141.309 225.681 141.947 225.996 142.549C226.296 143.157 226.69 143.725 227.167 144.239C227.06 143.583 226.843 142.944 226.523 142.344ZM201.204 153.742C200.908 153.132 200.513 152.562 200.032 152.051C200.142 152.709 200.359 153.35 200.676 153.953C200.97 154.562 201.365 155.13 201.848 155.637C201.738 154.981 201.522 154.343 201.204 153.742ZM182.113 167.505C181.818 166.894 181.42 166.324 180.934 165.815C181.05 166.469 181.266 167.107 181.578 167.71C181.878 168.32 182.275 168.889 182.757 169.4C182.648 168.745 182.431 168.106 182.113 167.505ZM238.392 150.374C237.699 150.635 237.052 150.979 236.468 151.397C237.962 151.189 239.369 150.642 240.548 149.809C239.802 149.905 239.076 150.095 238.392 150.374ZM201.894 136.1C201.2 136.36 200.552 136.707 199.97 137.129C200.718 137.03 201.447 136.84 202.135 136.563C202.826 136.303 203.472 135.957 204.051 135.534C203.304 135.63 202.578 135.821 201.894 136.1ZM218.386 152.147C217.693 152.409 217.046 152.756 216.462 153.176C217.21 153.083 217.939 152.894 218.626 152.617C219.319 152.352 219.966 152.003 220.55 151.581C219.801 151.684 219.073 151.879 218.386 152.161V152.147ZM183.122 179.251L183.517 178.951C183.538 178.859 183.551 178.765 183.556 178.672C183.395 178.854 183.249 179.048 183.122 179.251ZM189.273 174.445L189.467 174.575L189.591 174.486C189.492 174.466 189.391 174.452 189.289 174.445H189.273ZM199.955 166.776C199.986 167.007 200.037 167.234 200.11 167.458L200.382 167.287C200.25 167.117 200.149 166.953 199.955 166.776ZM245.288 156.632C244.991 156.025 244.596 155.458 244.116 154.949C244.227 155.604 244.443 156.242 244.76 156.844C245.058 157.453 245.452 158.022 245.932 158.534C245.818 157.882 245.602 157.246 245.288 156.646V156.632ZM182.191 152.147C181.498 152.409 180.851 152.756 180.267 153.176C181.016 153.083 181.745 152.894 182.431 152.617C183.123 152.353 183.768 152.004 184.347 151.581C183.601 151.685 182.875 151.88 182.191 152.161V152.147Z" fill="white"/>
<path opacity="0.1" d="M164.412 131.887C172.448 133.1 184.169 134.613 192.337 135.738L199.319 136.74C206.44 137.579 212.746 141.764 216.307 147.129C212.87 142.678 207.774 139.126 201.786 137.777C200.048 137.415 194.083 136.679 192.221 136.413C182.912 135.05 173.604 133.809 164.404 131.887H164.412Z" fill="black"/>
<path opacity="0.1" d="M177.653 132.753C183.486 133.155 189.211 133.7 195.052 133.973C189.218 134.568 183.307 134.154 177.653 132.753Z" fill="black"/>
<path d="M173.945 128.239L119.032 125.935C118.823 125.472 133.352 82.8521 156.026 69.9409C160.021 67.6709 167.592 69.7432 169.423 72.1837C176.668 81.8092 173.945 128.239 173.945 128.239Z" fill="#FFC727"/>
<g opacity="0.5">
<path d="M173.945 128.239L119.032 125.935C118.823 125.472 133.352 82.8521 156.026 69.9409C160.021 67.6709 167.592 69.7432 169.422 72.1837C176.668 81.8092 173.945 128.239 173.945 128.239Z" fill="white"/>
</g>
<path d="M159.68 74.0039C159.401 74.6194 159.223 75.2667 159.152 75.9263C159.604 75.3949 159.967 74.8095 160.23 74.188C160.506 73.5715 160.683 72.9247 160.758 72.2656C160.306 72.7971 159.943 73.3824 159.68 74.0039ZM152.52 98.9334C152.241 99.5489 152.063 100.196 151.992 100.856C152.887 99.7825 153.438 98.5186 153.59 97.1951C153.144 97.7284 152.784 98.3134 152.52 98.9334ZM129.163 108.913C128.883 109.531 128.705 110.181 128.636 110.843C129.086 110.308 129.449 109.72 129.714 109.097C129.991 108.482 130.166 107.834 130.233 107.175C129.789 107.709 129.429 108.294 129.163 108.913ZM147.974 125.376C147.724 125.939 147.554 126.528 147.47 127.128H147.578C147.964 126.637 148.279 126.106 148.517 125.547C148.796 124.931 148.974 124.284 149.045 123.624C148.596 124.161 148.236 124.751 147.974 125.376ZM165.04 122.649C164.762 123.266 164.582 123.912 164.505 124.572C164.962 124.046 165.325 123.462 165.583 122.84C165.866 122.226 166.043 121.578 166.11 120.918C165.663 121.444 165.3 122.022 165.032 122.636L165.04 122.649ZM139.053 89.2875C138.774 89.9029 138.597 90.5502 138.526 91.2098C139.41 90.131 139.963 88.8703 140.132 87.5492C139.676 88.0743 139.31 88.6554 139.046 89.2738L139.053 89.2875ZM166.599 82.9273C165.899 82.6821 165.162 82.526 164.412 82.4637C165.016 82.8586 165.683 83.1753 166.39 83.4045C167.09 83.6511 167.826 83.8095 168.577 83.8748C167.972 83.4779 167.306 83.1589 166.599 82.9273ZM174.356 102.887L173.798 102.676C173.1 102.431 172.366 102.275 171.618 102.212C172.217 102.611 172.882 102.928 173.588 103.153C173.844 103.235 174.108 103.317 174.364 103.385C174.395 103.235 174.387 103.071 174.379 102.908L174.356 102.887ZM130.505 126.106C129.805 125.857 129.069 125.699 128.317 125.635C128.751 125.927 129.222 126.172 129.722 126.365L131.351 126.433C131.11 126.331 130.815 126.228 130.528 126.126L130.505 126.106ZM147.105 108.757C146.404 108.505 145.664 108.347 144.91 108.286C145.517 108.683 146.186 109.002 146.896 109.234C147.596 109.478 148.333 109.631 149.083 109.69C148.484 109.307 147.826 108.999 147.129 108.777L147.105 108.757ZM152.256 85.8654C151.96 85.2552 151.566 84.6858 151.085 84.1748C151.317 85.4904 151.943 86.728 152.9 87.7605C152.796 87.1128 152.587 86.4815 152.279 85.8858L152.256 85.8654ZM163.791 106.834C163.491 106.226 163.097 105.657 162.62 105.144C162.729 105.799 162.943 106.437 163.256 107.039C163.555 107.647 163.949 108.217 164.427 108.729C164.323 108.082 164.117 107.451 163.814 106.855L163.791 106.834ZM138.472 118.232C138.172 117.624 137.775 117.057 137.292 116.548C137.406 117.203 137.623 117.841 137.936 118.443C138.23 119.052 138.625 119.62 139.108 120.127C139.003 119.48 138.797 118.85 138.495 118.253L138.472 118.232ZM173.774 115.908C173.989 115.888 174.202 115.854 174.411 115.805C174.411 115.703 174.411 115.601 174.411 115.499C174.185 115.618 173.972 115.755 173.774 115.908ZM139.177 100.651C138.483 100.911 137.835 101.258 137.254 101.681C138.002 101.581 138.73 101.391 139.418 101.115C140.11 100.855 140.755 100.508 141.334 100.085C140.588 100.181 139.861 100.372 139.177 100.651ZM155.669 116.698C154.976 116.963 154.329 117.312 153.745 117.734C155.244 117.524 156.654 116.971 157.833 116.132C157.087 116.222 156.358 116.403 155.669 116.671V116.698ZM121.902 117.939L121.646 118.58C122.303 118.322 122.916 117.987 123.469 117.584C122.934 117.639 122.408 117.749 121.902 117.912V117.939ZM164.334 93.3435C163.64 93.6035 162.992 93.9502 162.41 94.3729C163.158 94.2738 163.887 94.0833 164.574 93.8071C165.266 93.5469 165.912 93.2002 166.49 92.7777C165.746 92.865 165.02 93.0464 164.334 93.3163V93.3435Z" fill="white"/>
<path d="M149.308 74.8365C135.408 89.152 118.846 118.41 122.826 123.918C127.255 130.013 148.866 112.125 148.696 111.034C148.572 110.216 152.311 93.3104 156.872 80.5491C161.433 67.7878 152.745 71.3394 149.308 74.8365Z" fill="#F7A9A0"/>
<path d="M122.577 123.49C125.758 127.859 134.927 128.991 157.694 133.749C160.843 134.431 171.843 114.757 168.554 113.898C164.365 112.821 148.121 110.803 146.88 110.687C136.393 109.733 120.444 120.531 122.577 123.49Z" fill="#F7A9A0"/>
<path d="M161.619 112.827C161.619 112.827 171.153 113.55 177.444 114.49C180.958 115.015 186.884 116.392 189.265 117.817C192.826 119.944 206.153 130.851 203.228 133.748C200.568 136.373 190.46 125.725 190.46 125.725C190.46 125.725 201.739 135.677 197.868 138.322C193.997 140.967 184.417 127.593 184.417 127.593C184.417 127.593 195.735 138.05 191.259 140.218C187.877 141.86 178.413 130.183 178.413 130.183C178.413 130.183 188.079 139.229 184.681 141.049C180.919 143.053 171.447 132.76 171.447 132.76C161.929 136.107 155.84 134.273 151.69 132.521C150.65 132.099 161.619 112.827 161.619 112.827Z" fill="#F7A9A0"/>
<path d="M186.806 122.064C188.179 123.188 189.576 124.32 190.832 125.554C192.089 126.788 193.291 128.056 194.408 129.378C195.904 131.091 197.176 132.945 198.202 134.907C196.099 131.539 191.686 127.074 190.445 125.847C189.203 124.62 188.009 123.332 186.76 122.105C186.721 122.07 186.775 122.036 186.806 122.064Z" fill="#263238"/>
<path d="M181.671 125.963C183.355 127.469 185.084 128.908 186.69 130.476C188.296 132.044 189.646 133.652 191.12 135.302C191.236 135.432 191.12 135.445 190.995 135.302C189.444 133.7 187.893 132.316 186.341 130.735C184.79 129.153 183.277 127.504 181.648 125.963C181.601 125.97 181.648 125.936 181.671 125.963Z" fill="#263238"/>
<path d="M176.575 128.601C179.218 130.855 181.589 133.343 183.649 136.025C183.758 136.155 183.603 136.155 183.486 136.025C181.159 133.516 179.406 131.533 176.505 128.676C176.443 128.649 176.521 128.561 176.575 128.601Z" fill="#263238"/>
<path d="M174.411 114.081C177.292 114.41 180.153 114.865 182.982 115.444C185.092 115.922 187.349 116.337 189.188 117.435C194.37 120.843 199.272 125.029 202.538 129.978C201.724 128.927 200.824 127.929 199.846 126.992C196.957 124.158 193.819 121.527 190.46 119.126C189.412 118.293 188.214 117.618 186.915 117.128C182.881 115.765 178.592 115.001 174.403 114.081H174.411Z" fill="#263238"/>
<path d="M148.696 111C143.936 110.881 139.2 111.631 134.787 113.201C136.793 111.985 139.072 111.159 141.47 110.779C143.869 110.399 146.333 110.475 148.696 111Z" fill="#263238"/>
<path d="M131.296 91.8442L154.637 92.7508C154.637 92.7508 157.95 82.8526 158.896 77.1401C160.161 69.5937 157.259 67.4123 149.169 73.4862C143.746 77.5491 131.296 91.8442 131.296 91.8442Z" fill="#FFC727"/>
<g opacity="0.5">
<path d="M131.296 91.8444L154.637 92.751C154.637 92.751 157.95 82.8529 158.896 77.1403C160.16 69.594 157.259 67.4126 149.169 73.4864C143.746 77.5493 131.296 91.8444 131.296 91.8444Z" fill="white"/>
</g>
<path d="M153.032 92.6889C153.575 92.6071 154.11 92.5593 154.645 92.5253L154.389 92.682C155.561 88.5919 156.786 84.5495 158.376 80.5752C158.03 82.6599 157.554 84.7262 156.949 86.765C156.344 88.8714 155.646 90.9574 154.808 93.0024C154.21 92.9248 153.617 92.8202 153.032 92.6889Z" fill="#263238"/>
<path d="M157.298 84.2911C157.833 83.4663 158.345 82.6687 158.919 81.8779C158.881 82.3631 158.714 82.8337 158.433 83.2525C158.151 83.6714 157.763 84.0269 157.298 84.2911Z" fill="#263238"/>
<path d="M145.849 76.3559C145.562 76.6218 145.275 76.8945 144.988 77.1808C146.057 76.8936 147.054 76.4309 147.928 75.8174C147.208 75.9057 146.507 76.0872 145.849 76.3559ZM152.272 85.8996C151.976 85.2895 151.581 84.7201 151.1 84.209C151.332 85.5247 151.959 86.7623 152.915 87.7947C152.81 87.1347 152.596 86.4916 152.279 85.886L152.272 85.8996ZM139.038 89.3081C138.759 89.9235 138.581 90.5708 138.51 91.2304C139.394 90.1515 139.947 88.8909 140.116 87.5697C139.668 88.0895 139.307 88.6635 139.046 89.274L139.038 89.3081Z" fill="white"/>
<path d="M133.763 89.9895C137.168 89.9145 140.574 89.8805 143.979 89.9895C145.675 90.0441 147.372 90.119 149.068 90.2145C150.767 90.3099 152.458 90.5553 154.149 90.6303C154.242 90.6303 154.226 90.7667 154.149 90.7598C152.466 90.6099 150.736 90.6576 149.045 90.5826C147.354 90.5076 145.647 90.4463 143.948 90.3917C140.558 90.2826 137.161 90.1668 133.763 90.1259C133.654 90.1122 133.67 89.9895 133.763 89.9895Z" fill="#263238"/>
<path d="M167.111 78.5784C164.008 78.851 159.509 74.2292 157.981 70.7389C157.88 70.5003 160.308 61.7133 160.564 59.9273C160.618 59.5592 172.898 64.1469 172.898 64.1469C171.831 66.2957 171.065 68.5504 170.617 70.8616C170.586 71.1207 170.09 78.3193 167.111 78.5784Z" fill="#F7A9A0"/>
<path d="M170.586 71.2235C170.586 71.3598 170.586 71.5302 170.532 71.7211C170.111 71.7236 169.691 71.694 169.275 71.6325C162.364 70.6781 161.169 62.9205 160.967 59.9619L161.2 60.0233L161.72 60.1801L162.007 60.2687L162.395 60.3914L162.596 60.4595L163.031 60.6027L164.497 61.1003C164.542 61.1202 164.588 61.1362 164.637 61.1481C164.768 61.1958 164.893 61.2367 165.017 61.2912C166.048 61.6457 167.158 62.0479 168.205 62.4296L168.531 62.5455L170.082 63.1181L170.47 63.2613L170.687 63.3431L170.904 63.4249L171.471 63.6362L171.781 63.7453L171.99 63.8271C172.061 63.8454 172.128 63.8706 172.192 63.9021L172.844 64.1407C171.773 66.2882 171.007 68.5433 170.563 70.8553V71.1008V71.2167L170.586 71.2235Z" fill="#263238"/>
<path d="M176.334 44.8145C177.677 45.0265 178.915 45.5916 179.884 46.4351C180.854 47.2786 181.509 48.3608 181.764 49.5386C182.633 53.6696 181.074 57.4326 180.663 57.6507C180.252 57.8689 176.334 44.8145 176.334 44.8145Z" fill="#263238"/>
<path d="M159.719 48.2707C158.167 52.2381 160.153 63.8746 163.295 66.5537C167.856 70.4257 175.535 71.0051 179.336 66.1447C183.021 61.4342 180.112 46.3074 176.606 43.8602C171.401 40.254 161.991 42.415 159.719 48.2707Z" fill="#F7A9A0"/>
<path d="M172.526 55.6602C172.526 55.6602 172.463 55.7079 172.471 55.742C172.626 56.5191 172.657 57.4394 171.897 57.787C171.897 57.787 171.897 57.8347 171.897 57.8279C172.875 57.5893 172.82 56.3759 172.526 55.6602Z" fill="#263238"/>
<path d="M171.595 54.9372C170.144 55.0258 170.447 57.5685 171.796 57.4867C173.146 57.4049 172.813 54.8622 171.595 54.9372Z" fill="#263238"/>
<path d="M177.498 55.3192C177.498 55.2851 177.575 55.3192 177.575 55.3805C177.638 56.1713 177.862 57.0711 178.708 57.2552V57.3029C177.7 57.2688 177.413 56.0758 177.498 55.3192Z" fill="#263238"/>
<path d="M178.204 54.4194C179.631 54.1945 180.05 56.7235 178.724 56.9349C177.397 57.1462 177.002 54.6103 178.204 54.4194Z" fill="#263238"/>
<path d="M170.315 53.8809C170.703 53.7514 171.028 53.5878 171.393 53.431C171.801 53.3183 172.155 53.0907 172.401 52.7834C172.454 52.674 172.465 52.5525 172.433 52.437C172.401 52.3216 172.327 52.2183 172.223 52.1426C171.987 52.023 171.72 51.96 171.447 51.96C171.175 51.96 170.907 52.023 170.672 52.1426C170.155 52.3255 169.735 52.6705 169.492 53.1106C169.444 53.2136 169.43 53.3267 169.453 53.4364C169.476 53.5461 169.534 53.6477 169.621 53.7291C169.707 53.8104 169.819 53.868 169.942 53.8949C170.065 53.9218 170.195 53.917 170.315 53.8809Z" fill="#263238"/>
<path d="M179.204 53.0349C178.808 53.0027 178.415 52.9503 178.025 52.8781C177.6 52.8763 177.187 52.7491 176.854 52.5168C176.76 52.4242 176.705 52.3067 176.696 52.1831C176.688 52.0594 176.727 51.9369 176.807 51.8351C176.994 51.6622 177.229 51.5353 177.489 51.4671C177.749 51.3989 178.025 51.3918 178.289 51.4466C178.846 51.4913 179.365 51.7145 179.747 52.0737C179.838 52.1589 179.897 52.2665 179.917 52.382C179.936 52.4975 179.915 52.6154 179.856 52.72C179.797 52.8246 179.703 52.9108 179.586 52.9671C179.47 53.0234 179.337 53.047 179.204 53.0349Z" fill="#263238"/>
<path d="M172.999 60.6159C173.265 60.9047 173.596 61.1425 173.971 61.3149C174.346 61.4872 174.757 61.5903 175.178 61.618C175.549 61.6474 175.923 61.6291 176.288 61.5634C176.357 61.557 176.424 61.5433 176.489 61.5225L176.683 61.4748C176.73 61.4629 176.772 61.4378 176.801 61.4034C176.831 61.3689 176.846 61.327 176.846 61.2839C176.85 61.259 176.85 61.2338 176.846 61.2089V61.1135C176.792 60.5 176.614 59.5865 176.614 59.5865C176.877 59.6751 178.227 60.0637 178.165 59.7501C177.755 57.0209 177.032 54.3351 176.008 51.7334C176.008 51.6516 175.83 51.6857 175.853 51.7675C176.21 54.2898 177.071 56.7439 177.475 59.2661C176.994 59.1216 176.493 59.0368 175.985 59.0139C175.892 59.048 176.365 60.7795 176.365 61.059C175.805 61.1612 175.227 61.1632 174.666 61.0648C174.105 60.9664 173.572 60.7697 173.1 60.4863C172.999 60.4932 172.929 60.5545 172.999 60.6159Z" fill="#263238"/>
<path d="M161.185 60.2413C162.821 60.3504 163.566 55.9739 163.667 54.3243C163.76 52.8654 163.17 48.4276 163.17 48.1209C163.17 47.8141 170.803 50.6636 174.411 48.9253C178.018 47.1869 179.841 43.649 179.515 42.2174C179.189 40.7859 173.526 38.1273 169.337 38.7408C165.149 39.3543 160.711 45.0737 160.711 45.0737C161.22 44.2673 161.653 43.4261 162.007 42.5583C161.906 42.4083 159.463 43.8671 159.393 45.6327C159.393 45.6327 159.393 43.4308 159.183 43.4308C158.974 43.4308 157.345 45.6327 158.159 46.9075C158.159 46.9075 156.212 49.2048 156.499 51.2566C156.786 53.3085 159.269 60.105 161.185 60.2413Z" fill="#263238"/>
<path d="M176.97 47.684C175.964 48.4412 174.835 49.0616 173.619 49.5246C172.227 49.909 170.748 49.9863 169.314 49.7496C167.878 49.5504 166.487 49.1499 165.195 48.5634C164.055 48.0521 162.992 47.3773 161.805 46.9546C161.51 46.8524 161.293 47.2341 161.503 47.4114C163.756 49.2047 166.606 50.3136 169.632 50.5744C171.037 50.6964 172.453 50.4954 173.742 49.9911C175.031 49.4867 176.149 48.6964 176.986 47.6977C176.986 47.6977 176.986 47.6772 176.97 47.684Z" fill="#263238"/>
<path d="M163.116 57.7802C163.116 57.7802 160.192 54.0105 158.245 54.9171C156.298 55.8238 158.454 61.2841 160.719 62.0476C161.001 62.1604 161.306 62.2225 161.616 62.2303C161.926 62.2381 162.235 62.1914 162.524 62.093C162.813 61.9946 163.076 61.8464 163.299 61.6571C163.522 61.4679 163.7 61.2414 163.822 60.991L163.116 57.7802Z" fill="#F7A9A0"/>
<path d="M158.904 56.4648C158.904 56.4648 158.865 56.5126 158.904 56.5194C160.455 57.1056 161.301 58.4145 161.867 59.7642C161.778 59.6223 161.654 59.4992 161.505 59.4037C161.356 59.3082 161.185 59.2426 161.004 59.2114C160.823 59.1802 160.636 59.1843 160.457 59.2232C160.278 59.2622 160.11 59.3352 159.967 59.437C159.928 59.437 159.967 59.5188 160.013 59.512C160.293 59.4364 160.593 59.4391 160.87 59.5197C161.148 59.6003 161.391 59.7549 161.565 59.9619C161.853 60.3113 162.1 60.686 162.302 61.0799C162.371 61.2094 162.627 61.1413 162.573 60.9981V60.964C162.62 59.1848 161.084 56.6694 158.904 56.4648Z" fill="#263238"/>
<path d="M259.801 260.42H184.991V267.373H259.801V260.42Z" fill="#263238"/>
<path d="M108.475 175.147H178.53V151.411H108.475V175.147Z" fill="#A6A6A6"/>
<path d="M119.917 232.218H178.53V229.245H119.917C117.366 229.244 114.921 228.352 113.117 226.768C111.314 225.183 110.3 223.034 110.298 220.792V98.6673C110.296 95.6389 108.926 92.735 106.49 90.5929C104.054 88.4509 100.75 87.2458 97.3044 87.2422H89.3998V90.2212H97.3044C99.8522 90.2248 102.294 91.1158 104.096 92.699C105.898 94.2822 106.911 96.4284 106.916 98.6673V220.813C106.926 223.838 108.3 226.737 110.736 228.874C113.173 231.012 116.474 232.214 119.917 232.218Z" fill="#C7C7C7"/>
<path d="M176.877 262.99H180.259V136.959C180.255 134.231 179.021 131.617 176.826 129.689C174.632 127.76 171.657 126.675 168.554 126.672H108.614V129.651H168.523C169.618 129.648 170.702 129.835 171.715 130.201C172.727 130.567 173.648 131.105 174.423 131.783C175.199 132.462 175.815 133.268 176.236 134.156C176.657 135.044 176.875 135.997 176.877 136.959V262.99Z" fill="#C7C7C7"/>
<path d="M78.9199 91.585H99.8875V85.6747H78.9199V91.585Z" fill="#263238"/>
<path d="M66.5626 220.336C66.5626 191.705 87.8017 168.411 113.881 168.411C139.961 168.411 161.2 191.705 161.2 220.336C161.2 248.967 139.961 272.26 113.881 272.26C87.8017 272.26 66.5626 248.967 66.5626 220.336ZM71.3022 220.336C71.3022 246.669 90.4081 268.095 113.905 268.095C137.401 268.095 156.507 246.669 156.507 220.336C156.507 194.002 137.393 172.576 113.905 172.576C90.4159 172.576 71.3022 194.002 71.3022 220.336Z" fill="#263238"/>
<path d="M68.2771 220.336C68.2771 194.957 87.0649 174.309 110.166 174.309C133.267 174.309 152.054 194.957 152.054 220.336C152.054 245.716 133.267 266.364 110.166 266.364C87.0649 266.364 68.2771 245.716 68.2771 220.336ZM71.6592 220.336C71.6592 244.08 88.9344 263.392 110.158 263.392C131.382 263.392 148.657 244.08 148.657 220.336C148.657 196.593 131.397 177.281 110.166 177.281C88.9344 177.281 71.667 196.593 71.667 220.336H71.6592Z" fill="#C7C7C7"/>
<path d="M104.976 220.336C104.976 224.495 108.017 227.835 111.771 227.835C115.526 227.835 118.559 224.468 118.559 220.336C118.559 216.205 115.518 212.838 111.771 212.838C108.025 212.838 104.976 216.178 104.976 220.336Z" fill="#C7C7C7"/>
<path d="M109.592 227.863C113.34 227.863 116.379 224.494 116.379 220.337C116.379 216.181 113.34 212.812 109.592 212.812C105.843 212.812 102.804 216.181 102.804 220.337C102.804 224.494 105.843 227.863 109.592 227.863Z" fill="#DBDBDB"/>
<path d="M179.267 273.686C184.146 273.686 188.102 269.303 188.102 263.897C188.102 258.49 184.146 254.107 179.267 254.107C174.387 254.107 170.431 258.49 170.431 263.897C170.431 269.303 174.387 273.686 179.267 273.686Z" fill="#C7C7C7"/>
<path d="M176.435 273.686C181.315 273.686 185.271 269.303 185.271 263.897C185.271 258.49 181.315 254.107 176.435 254.107C171.555 254.107 167.6 258.49 167.6 263.897C167.6 269.303 171.555 273.686 176.435 273.686Z" fill="#DBDBDB"/>
<path d="M132.212 16.5381C131.909 19.0794 130.81 21.4969 129.035 23.5209C127.26 25.545 124.881 27.096 122.162 28.0009C119.443 28.9058 116.491 29.129 113.636 28.6457C110.781 28.1624 108.134 26.9916 105.992 25.2638L98.1422 26.2727L102.075 20.3147C101.173 18.3734 100.787 16.277 100.946 14.1848C101.105 12.0927 101.805 10.06 102.992 8.24116C104.179 6.42237 105.823 4.86544 107.798 3.68876C109.772 2.51207 112.027 1.74662 114.389 1.45061C116.751 1.15461 119.159 1.33584 121.429 1.98052C123.699 2.62521 125.773 3.71637 127.491 5.17104C129.21 6.62571 130.528 8.40558 131.346 10.3753C132.164 12.345 132.46 14.4527 132.212 16.5381Z" fill="white"/>
<path d="M132.212 16.5376C131.911 19.0809 130.816 21.5016 129.047 23.5317C128.17 24.5539 127.124 25.4547 125.944 26.204C123.607 27.7397 120.835 28.6828 117.931 28.9307C117.205 28.9785 116.477 28.9785 115.751 28.9307C115.022 28.9159 114.296 28.8498 113.579 28.733C110.687 28.2666 108.001 27.1004 105.822 25.3655L106.008 25.42L98.1655 26.4766L97.5914 26.5516L97.8785 26.1085L101.757 20.1369V20.3687C100.841 18.4099 100.446 16.2933 100.6 14.18C100.755 12.0666 101.457 10.0121 102.651 8.1728C103.845 6.33346 105.501 4.75769 107.493 3.56536C109.484 2.37302 111.759 1.59552 114.144 1.29199C116.529 0.988457 118.961 1.16689 121.256 1.81371C123.551 2.46054 125.647 3.55872 127.386 5.02473C129.125 6.49074 130.461 8.28597 131.292 10.2739C132.123 12.2618 132.427 14.39 132.181 16.4967L132.212 16.5376ZM132.212 16.5376C132.442 14.4567 132.132 12.3571 131.308 10.3962C130.483 8.43524 129.163 6.66381 127.449 5.21468C125.723 3.78669 123.655 2.71537 121.398 2.0789C119.141 1.46339 116.754 1.30492 114.417 1.61535C112.092 1.92413 109.877 2.69337 107.939 3.86493C106.021 5.05083 104.417 6.5881 103.239 8.37091C102.086 10.1575 101.407 12.1499 101.253 14.1994C101.107 16.2506 101.484 18.3045 102.354 20.2119L102.409 20.3346L102.339 20.4437L98.3904 26.3948L98.1034 26.0335L105.961 25.0655H106.07L106.148 25.1269C108.243 26.8565 110.846 28.0371 113.664 28.5353C114.365 28.6603 115.076 28.7378 115.79 28.7671C116.505 28.8114 117.223 28.8114 117.938 28.7671C119.371 28.6685 120.781 28.3955 122.127 27.9559C123.482 27.5241 124.758 26.9201 125.913 26.1631C126.492 25.7872 127.047 25.382 127.573 24.9496C128.079 24.5007 128.553 24.0249 128.992 23.5249C130.782 21.503 131.896 19.0839 132.212 16.5376Z" fill="#263238"/>
<path d="M125.354 15.5217C125.356 15.8523 125.246 16.1759 125.038 16.4515C124.83 16.727 124.534 16.9421 124.187 17.0696C123.839 17.197 123.457 17.2311 123.088 17.1674C122.719 17.1037 122.379 16.9452 122.113 16.7119C121.846 16.4786 121.664 16.1811 121.59 15.8569C121.516 15.5327 121.554 15.1966 121.697 14.891C121.841 14.5854 122.084 14.3242 122.397 14.1403C122.71 13.9565 123.078 13.8584 123.454 13.8584C123.957 13.8584 124.439 14.0334 124.795 14.3452C125.151 14.6569 125.352 15.08 125.354 15.5217Z" fill="#263238"/>
<path d="M118.544 15.5217C118.545 15.8523 118.435 16.1759 118.227 16.4515C118.019 16.727 117.723 16.9421 117.376 17.0696C117.029 17.197 116.646 17.2311 116.277 17.1674C115.908 17.1037 115.569 16.9452 115.302 16.7119C115.035 16.4786 114.854 16.1811 114.78 15.8569C114.706 15.5327 114.743 15.1966 114.886 14.891C115.03 14.5854 115.274 14.3242 115.586 14.1403C115.899 13.9565 116.267 13.8584 116.643 13.8584C117.146 13.8584 117.628 14.0334 117.984 14.3452C118.34 14.6569 118.542 15.08 118.544 15.5217Z" fill="#263238"/>
<path d="M111.717 15.5217C111.719 15.8523 111.609 16.1759 111.401 16.4515C111.193 16.727 110.897 16.9421 110.549 17.0696C110.202 17.197 109.82 17.2311 109.451 17.1674C109.082 17.1037 108.742 16.9452 108.476 16.7119C108.209 16.4786 108.027 16.1811 107.953 15.8569C107.879 15.5327 107.917 15.1966 108.06 14.891C108.204 14.5854 108.447 14.3242 108.76 14.1403C109.073 13.9565 109.44 13.8584 109.817 13.8584C110.319 13.8584 110.802 14.0334 111.158 14.3452C111.514 14.6569 111.715 15.08 111.717 15.5217Z" fill="#263238"/>
</svg>
